<?xml version="1.0" encoding="UTF-8"?>
<!DOCTYPE svg PUBLIC "-//W3C//DTD SVG 1.1//EN" "http://www.w3.org/Graphics/SVG/1.1/DTD/svg11.dtd">
<svg xmlns="http://www.w3.org/2000/svg" version="1.1" width="512px" height="512px" style="shape-rendering:geometricPrecision; text-rendering:geometricPrecision; image-rendering:optimizeQuality; fill-rule:evenodd; clip-rule:evenodd" xmlns:xlink="http://www.w3.org/1999/xlink">
<g><path style="opacity:0.988" fill="#000000" d="M 241.5,7.5 C 324.954,5.32342 393.787,35.6568 448,98.5C 502.742,169.933 517.075,248.933 491,335.5C 455.429,429.73 387.929,485.23 288.5,502C 202.11,511.321 129.277,484.488 70,421.5C 11.1915,351.146 -6.14181,271.479 18,182.5C 40.564,113.539 84.3973,63.0389 149.5,31C 178.846,17.4975 209.512,9.66422 241.5,7.5 Z M 309.5,74.5 C 310.5,74.5 311.5,74.5 312.5,74.5C 313.201,105.94 300.201,129.774 273.5,146C 265.873,148.858 258.04,150.691 250,151.5C 250.657,110.794 270.49,85.1271 309.5,74.5 Z M 308.5,146.5 C 336.268,145.219 358.601,155.552 375.5,177.5C 361.708,188.46 351.541,202.127 345,218.5C 336.668,250.681 344.835,277.848 369.5,300C 374.275,303.721 379.609,306.388 385.5,308C 375.496,336.645 359.83,361.645 338.5,383C 330.851,388.99 322.184,392.49 312.5,393.5C 309.5,393 306.5,392.5 303.5,392C 291.892,388.464 280.225,385.131 268.5,382C 258.014,379.942 247.681,380.609 237.5,384C 228.768,387.799 219.768,390.799 210.5,393C 200.377,394.738 191.044,392.738 182.5,387C 167.066,375.234 154.9,360.734 146,343.5C 125.206,308.656 116.206,270.989 119,230.5C 121.621,199.401 135.454,174.901 160.5,157C 174.58,149.318 189.58,146.651 205.5,149C 221.747,152.979 238.08,156.479 254.5,159.5C 258.555,159.425 262.555,158.925 266.5,158C 280.428,153.405 294.428,149.572 308.5,146.5 Z"/></g>
</svg>
