<?xml version="1.0" encoding="UTF-8"?>
<!DOCTYPE svg PUBLIC "-//W3C//DTD SVG 1.1//EN" "http://www.w3.org/Graphics/SVG/1.1/DTD/svg11.dtd">
<svg xmlns="http://www.w3.org/2000/svg" version="1.1" width="200" height="50"  style="shape-rendering:geometricPrecision; text-rendering:geometricPrecision; image-rendering:optimizeQuality; fill-rule:evenodd; clip-rule:evenodd" xmlns:xlink="http://www.w3.org/1999/xlink">
<g><path style="opacity:1" fill="#00044c" d="M 275.5,90.5 C 277.833,90.5 280.167,90.5 282.5,90.5C 282.833,94.5 283.167,98.5 283.5,102.5C 281.167,103.833 278.833,103.833 276.5,102.5C 276.495,98.4659 276.162,94.4659 275.5,90.5 Z"/></g>
<g><path style="opacity:1" fill="#fbb37a" d="M 282.5,90.5 C 284.833,90.5 287.167,90.5 289.5,90.5C 290.26,95.1502 290.926,99.8169 291.5,104.5C 289.167,104.5 286.833,104.5 284.5,104.5C 284.672,103.508 284.338,102.842 283.5,102.5C 283.167,98.5 282.833,94.5 282.5,90.5 Z"/></g>
<g><path style="opacity:1" fill="#a40702" d="M 289.5,90.5 C 293.846,90.3343 298.179,90.501 302.5,91C 301.352,94.7187 300.686,98.552 300.5,102.5C 299.646,103.632 299.646,104.965 300.5,106.5C 297.838,104.732 294.838,104.065 291.5,104.5C 290.926,99.8169 290.26,95.1502 289.5,90.5 Z"/></g>
<g><path style="opacity:0.757" fill="#6d5f69" d="M 275.5,90.5 C 276.162,94.4659 276.495,98.4659 276.5,102.5C 276.167,102.5 275.833,102.5 275.5,102.5C 274.968,98.3065 274.968,94.3065 275.5,90.5 Z"/></g>
<g><path style="opacity:0.874" fill="#38251c" d="M 275.5,102.5 C 275.833,102.5 276.167,102.5 276.5,102.5C 278.833,103.833 281.167,103.833 283.5,102.5C 284.338,102.842 284.672,103.508 284.5,104.5C 277.341,102.991 274.674,105.658 276.5,112.5C 280.319,113.166 284.319,113.499 288.5,113.5C 292.893,113.491 296.893,112.824 300.5,111.5C 300.5,109.833 300.5,108.167 300.5,106.5C 299.646,104.965 299.646,103.632 300.5,102.5C 300.833,102.5 301.167,102.5 301.5,102.5C 301.427,104.027 302.094,105.027 303.5,105.5C 305.421,109.745 304.421,113.078 300.5,115.5C 297.167,115.5 293.833,115.5 290.5,115.5C 288.708,115.366 287.042,115.699 285.5,116.5C 276.399,118.867 271.899,115.534 272,106.5C 272.66,104.676 273.827,103.343 275.5,102.5 Z M 284.5,104.5 C 286.833,104.5 289.167,104.5 291.5,104.5C 294.838,104.065 297.838,104.732 300.5,106.5C 300.5,108.167 300.5,109.833 300.5,111.5C 292.583,111.331 284.583,111.665 276.5,112.5C 274.674,105.658 277.341,102.991 284.5,104.5 Z"/></g>
<g><path style="opacity:0.357" fill="#bf876a" d="M 301.5,102.5 C 302.906,102.973 303.573,103.973 303.5,105.5C 302.094,105.027 301.427,104.027 301.5,102.5 Z"/></g>
<g><path style="opacity:0.035" fill="#9c6848" d="M 300.5,111.5 C 296.893,112.824 292.893,113.491 288.5,113.5C 284.319,113.499 280.319,113.166 276.5,112.5C 284.583,111.665 292.583,111.331 300.5,111.5 Z"/></g>
<g><path style="opacity:1" fill="#835237" d="M 290.5,115.5 C 293.833,115.5 297.167,115.5 300.5,115.5C 297.713,116.477 294.713,116.81 291.5,116.5C 293.178,118.887 294.511,121.554 295.5,124.5C 294.391,124.443 293.391,124.11 292.5,123.5C 292.167,122.5 291.5,121.833 290.5,121.5C 288.654,121.778 287.32,121.111 286.5,119.5C 287.689,118.571 289.022,118.238 290.5,118.5C 290.5,117.5 290.5,116.5 290.5,115.5 Z"/></g>
<g><path style="opacity:1" fill="#f29c6a" d="M 290.5,115.5 C 290.5,116.5 290.5,117.5 290.5,118.5C 289.022,118.238 287.689,118.571 286.5,119.5C 287.32,121.111 288.654,121.778 290.5,121.5C 289.036,123.984 287.369,123.984 285.5,121.5C 284.354,122.145 283.354,122.978 282.5,124C 284.473,124.495 286.473,124.662 288.5,124.5C 289.609,125.29 290.942,125.79 292.5,126C 291.833,126.333 291.167,126.667 290.5,127C 291.416,127.278 292.082,127.778 292.5,128.5C 288.833,128.5 285.167,128.5 281.5,128.5C 276.062,128.988 270.729,129.988 265.5,131.5C 264.761,131.631 264.094,131.464 263.5,131C 264.696,130.346 264.696,129.846 263.5,129.5C 261.618,130.093 259.785,130.76 258,131.5C 257.601,131.272 257.435,130.938 257.5,130.5C 264.865,127.55 272.531,125.216 280.5,123.5C 282.605,121.408 284.272,119.075 285.5,116.5C 287.042,115.699 288.708,115.366 290.5,115.5 Z"/></g>
<g><path style="opacity:1" fill="#67402b" d="M 240.5,182.5 C 240.5,181.5 240.5,180.5 240.5,179.5C 234.551,179.789 231.218,182.789 230.5,188.5C 232.5,188.5 234.5,188.5 236.5,188.5C 236.5,188.833 236.5,189.167 236.5,189.5C 233.167,190.833 230.833,193.167 229.5,196.5C 228.833,196.833 228.167,197.167 227.5,197.5C 225.833,195.167 223.833,193.167 221.5,191.5C 221.833,190.5 222.5,189.833 223.5,189.5C 229.607,190.835 231.107,188.502 228,182.5C 226.226,181.035 224.392,179.702 222.5,178.5C 223.263,177.732 224.263,177.232 225.5,177C 224.833,176.667 224.167,176.333 223.5,176C 224.636,174.855 225.636,173.688 226.5,172.5C 228.108,175.487 230.442,176.154 233.5,174.5C 238.415,177.644 241.748,176.31 243.5,170.5C 244.222,170.918 244.722,171.584 245,172.5C 249.185,166.987 253.685,161.82 258.5,157C 264.214,154.122 269.214,150.288 273.5,145.5C 276.894,143.728 280.227,142.061 283.5,140.5C 284.485,136.67 286.819,133.837 290.5,132C 292.044,130.813 293.711,130.48 295.5,131C 293.622,132.543 292.122,134.376 291,136.5C 289.933,137.191 288.766,137.691 287.5,138C 282.349,142.909 277.682,148.242 273.5,154C 271.079,156.094 268.412,157.76 265.5,159C 264.37,161.428 262.87,163.595 261,165.5C 257.236,166.428 255.07,168.761 254.5,172.5C 249.609,175.881 245.109,179.881 241,184.5C 240.536,183.906 240.369,183.239 240.5,182.5 Z"/></g>
<g><path style="opacity:1" fill="#6e452e" d="M 281.5,128.5 C 285.167,128.5 288.833,128.5 292.5,128.5C 296.924,128.652 301.257,129.319 305.5,130.5C 303.958,131.163 302.291,131.83 300.5,132.5C 280.511,151.655 260.344,170.655 240,189.5C 239.505,191.473 239.338,193.473 239.5,195.5C 239.083,192.841 238.083,190.508 236.5,188.5C 238.29,186.728 239.623,184.728 240.5,182.5C 240.369,183.239 240.536,183.906 241,184.5C 245.109,179.881 249.609,175.881 254.5,172.5C 255.07,168.761 257.236,166.428 261,165.5C 262.87,163.595 264.37,161.428 265.5,159C 268.412,157.76 271.079,156.094 273.5,154C 277.682,148.242 282.349,142.909 287.5,138C 288.766,137.691 289.933,137.191 291,136.5C 292.122,134.376 293.622,132.543 295.5,131C 293.711,130.48 292.044,130.813 290.5,132C 286.819,133.837 284.485,136.67 283.5,140.5C 280.227,142.061 276.894,143.728 273.5,145.5C 269.214,150.288 264.214,154.122 258.5,157C 253.685,161.82 249.185,166.987 245,172.5C 244.722,171.584 244.222,170.918 243.5,170.5C 243.53,169.503 243.03,168.836 242,168.5C 239.357,169.321 237.024,170.654 235,172.5C 234.153,170.807 233.32,169.14 232.5,167.5C 233.436,166.026 234.77,165.026 236.5,164.5C 237.496,164.586 238.329,164.252 239,163.5C 243.323,166.428 247.156,165.761 250.5,161.5C 247.572,160.516 244.572,160.183 241.5,160.5C 241.634,158.708 241.301,157.042 240.5,155.5C 241.5,154.5 242.5,153.5 243.5,152.5C 245.545,153.923 246.545,155.923 246.5,158.5C 251.617,159.37 254.951,157.37 256.5,152.5C 257.167,152.5 257.5,152.167 257.5,151.5C 262.043,149.628 265.71,146.628 268.5,142.5C 273.528,137.966 277.862,133.3 281.5,128.5 Z"/></g>
<g><path style="opacity:1" fill="#734830" d="M 305.5,130.5 C 306.959,130.433 308.292,130.766 309.5,131.5C 285.867,152.465 262.534,173.798 239.5,195.5C 239.338,193.473 239.505,191.473 240,189.5C 260.344,170.655 280.511,151.655 300.5,132.5C 302.291,131.83 303.958,131.163 305.5,130.5 Z"/></g>
<g><path style="opacity:1" fill="#7b4d33" d="M 309.5,131.5 C 312.167,132.5 314.833,133.5 317.5,134.5C 316.71,135.794 315.71,136.961 314.5,138C 315.712,139.107 315.379,139.607 313.5,139.5C 311.167,139.5 308.833,139.5 306.5,139.5C 306.44,138.957 306.107,138.624 305.5,138.5C 283.479,159.521 261.479,180.521 239.5,201.5C 239.483,199.972 238.816,199.472 237.5,200C 234.577,202.416 232.243,205.25 230.5,208.5C 229.833,208.833 229.167,209.167 228.5,209.5C 226.463,208.154 224.463,206.82 222.5,205.5C 224.785,205.295 226.118,204.629 226.5,203.5C 228.531,201.751 228.865,199.751 227.5,197.5C 228.167,197.167 228.833,196.833 229.5,196.5C 229.5,198.167 229.5,199.833 229.5,201.5C 235.158,201.842 237.824,199.176 237.5,193.5C 237.489,191.955 237.156,190.622 236.5,189.5C 236.5,189.167 236.5,188.833 236.5,188.5C 238.083,190.508 239.083,192.841 239.5,195.5C 262.534,173.798 285.867,152.465 309.5,131.5 Z"/></g>
<g><path style="opacity:1" fill="#9b6141" d="M 281.5,128.5 C 277.862,133.3 273.528,137.966 268.5,142.5C 268.804,141.85 269.137,141.183 269.5,140.5C 264.97,139.108 260.637,139.608 256.5,142C 250.891,146.269 251.224,149.435 257.5,151.5C 257.5,152.167 257.167,152.5 256.5,152.5C 254.208,152.244 252.041,152.577 250,153.5C 250.88,149.711 250.38,146.045 248.5,142.5C 248.082,141.778 247.416,141.278 246.5,141C 252.378,136.727 258.712,133.561 265.5,131.5C 270.729,129.988 276.062,128.988 281.5,128.5 Z"/></g>
<g><path style="opacity:1" fill="#7f5036" d="M 306.5,139.5 C 307.415,141.754 308.748,143.754 310.5,145.5C 310.5,145.833 310.5,146.167 310.5,146.5C 309.518,145.859 308.518,145.193 307.5,144.5C 285.705,165.13 263.705,185.463 241.5,205.5C 240.818,204.757 240.151,204.091 239.5,203.5C 239.5,202.833 239.5,202.167 239.5,201.5C 261.479,180.521 283.479,159.521 305.5,138.5C 306.107,138.624 306.44,138.957 306.5,139.5 Z"/></g>
<g><path style="opacity:1" fill="#ba7650" d="M 265.5,131.5 C 258.712,133.561 252.378,136.727 246.5,141C 247.416,141.278 248.082,141.778 248.5,142.5C 243.611,144.277 241.945,147.61 243.5,152.5C 242.5,153.5 241.5,154.5 240.5,155.5C 236.334,148.556 234.001,149.39 233.5,158C 233.32,160.802 234.32,162.969 236.5,164.5C 234.77,165.026 233.436,166.026 232.5,167.5C 230.519,165.856 228.519,164.19 226.5,162.5C 225.702,162.957 225.369,163.624 225.5,164.5C 224.427,163.749 224.26,162.749 225,161.5C 227.864,159.522 228.531,157.189 227,154.5C 226.292,155.381 225.458,156.047 224.5,156.5C 232.578,144.274 243.578,135.608 257.5,130.5C 257.435,130.938 257.601,131.272 258,131.5C 259.785,130.76 261.618,130.093 263.5,129.5C 264.696,129.846 264.696,130.346 263.5,131C 264.094,131.464 264.761,131.631 265.5,131.5 Z"/></g>
<g><path style="opacity:1" fill="#f9a872" d="M 268.5,142.5 C 265.71,146.628 262.043,149.628 257.5,151.5C 251.224,149.435 250.891,146.269 256.5,142C 260.637,139.608 264.97,139.108 269.5,140.5C 269.137,141.183 268.804,141.85 268.5,142.5 Z"/></g>
<g><path style="opacity:1" fill="#f89e6c" d="M 306.5,139.5 C 308.833,139.5 311.167,139.5 313.5,139.5C 317.04,140.303 320.207,141.97 323,144.5C 324.713,149.199 323.213,151.532 318.5,151.5C 316.668,150.752 315.001,149.752 313.5,148.5C 312.833,147.167 311.833,146.167 310.5,145.5C 308.748,143.754 307.415,141.754 306.5,139.5 Z"/></g>
<g><path style="opacity:1" fill="#875539" d="M 310.5,146.5 C 306.229,150.269 302.062,154.269 298,158.5C 297.517,159.448 297.351,160.448 297.5,161.5C 295.692,161.491 294.025,161.991 292.5,163C 275.604,179.399 258.604,195.565 241.5,211.5C 237.015,214.657 234.682,218.99 234.5,224.5C 234.167,224.5 233.833,224.5 233.5,224.5C 230.466,221.984 227.132,219.984 223.5,218.5C 224.167,218.5 224.5,218.167 224.5,217.5C 229.22,216.719 230.553,214.052 228.5,209.5C 229.167,209.167 229.833,208.833 230.5,208.5C 229.737,212.138 231.07,213.638 234.5,213C 238.152,210.855 239.818,207.689 239.5,203.5C 240.151,204.091 240.818,204.757 241.5,205.5C 263.705,185.463 285.705,165.13 307.5,144.5C 308.518,145.193 309.518,145.859 310.5,146.5 Z"/></g>
<g><path style="opacity:1" fill="#8d583c" d="M 310.5,145.5 C 311.833,146.167 312.833,147.167 313.5,148.5C 292.512,169.82 270.846,190.486 248.5,210.5C 246.358,212.618 244.692,214.952 243.5,217.5C 243.737,216.209 243.404,215.209 242.5,214.5C 242.443,213.391 242.11,212.391 241.5,211.5C 258.604,195.565 275.604,179.399 292.5,163C 294.025,161.991 295.692,161.491 297.5,161.5C 297.351,160.448 297.517,159.448 298,158.5C 302.062,154.269 306.229,150.269 310.5,146.5C 310.5,146.167 310.5,145.833 310.5,145.5 Z"/></g>
<g><path style="opacity:1" fill="#f09868" d="M 328.5,142.5 C 331.892,143.564 333.892,145.897 334.5,149.5C 333.929,151.741 332.596,153.408 330.5,154.5C 329.571,155.689 329.238,157.022 329.5,158.5C 327.833,158.5 326.167,158.5 324.5,158.5C 323.71,157.599 322.71,156.932 321.5,156.5C 321.586,155.504 321.252,154.671 320.5,154C 322.9,153.814 325.234,153.314 327.5,152.5C 326.087,148.981 326.421,145.647 328.5,142.5 Z"/></g>
<g><path style="opacity:1" fill="#935c3e" d="M 313.5,148.5 C 315.001,149.752 316.668,150.752 318.5,151.5C 315.894,152.476 313.561,153.976 311.5,156C 289.012,177.633 266.512,199.133 244,220.5C 243.517,219.552 243.351,218.552 243.5,217.5C 244.692,214.952 246.358,212.618 248.5,210.5C 270.846,190.486 292.512,169.82 313.5,148.5 Z"/></g>
<g><path style="opacity:1" fill="#975f41" d="M 317.5,134.5 C 321.783,135.975 325.783,137.975 329.5,140.5C 329.167,141.167 328.833,141.833 328.5,142.5C 326.421,145.647 326.087,148.981 327.5,152.5C 325.234,153.314 322.9,153.814 320.5,154C 321.252,154.671 321.586,155.504 321.5,156.5C 320.325,156.281 319.325,156.614 318.5,157.5C 294.511,179.489 270.844,201.822 247.5,224.5C 246.998,222.915 245.998,222.415 244.5,223C 243.139,224.584 242.472,226.418 242.5,228.5C 241.71,229.609 241.21,230.942 241,232.5C 240.667,232.167 240.333,231.833 240,231.5C 239.148,232.571 238.315,233.571 237.5,234.5C 233.116,234.174 228.783,234.508 224.5,235.5C 228.745,241.443 234.411,244.776 241.5,245.5C 239.051,246.791 236.384,247.791 233.5,248.5C 233.542,250.188 233.542,251.854 233.5,253.5C 229.458,249.46 225.791,245.127 222.5,240.5C 219.945,235.387 217.945,230.053 216.5,224.5C 216.803,222.886 217.47,221.552 218.5,220.5C 220.886,224.397 223.886,227.897 227.5,231C 233.247,231.997 235.247,229.83 233.5,224.5C 233.833,224.5 234.167,224.5 234.5,224.5C 236.479,226.936 238.646,226.936 241,224.5C 242.316,221.312 242.816,217.978 242.5,214.5C 243.404,215.209 243.737,216.209 243.5,217.5C 243.351,218.552 243.517,219.552 244,220.5C 266.512,199.133 289.012,177.633 311.5,156C 313.561,153.976 315.894,152.476 318.5,151.5C 323.213,151.532 324.713,149.199 323,144.5C 320.207,141.97 317.04,140.303 313.5,139.5C 315.379,139.607 315.712,139.107 314.5,138C 315.71,136.961 316.71,135.794 317.5,134.5 Z"/></g>
<g><path style="opacity:1" fill="#f7a46f" d="M 240.5,155.5 C 241.301,157.042 241.634,158.708 241.5,160.5C 244.572,160.183 247.572,160.516 250.5,161.5C 247.156,165.761 243.323,166.428 239,163.5C 238.329,164.252 237.496,164.586 236.5,164.5C 234.32,162.969 233.32,160.802 233.5,158C 234.001,149.39 236.334,148.556 240.5,155.5 Z"/></g>
<g><path style="opacity:1" fill="#f6a470" d="M 248.5,142.5 C 250.38,146.045 250.88,149.711 250,153.5C 252.041,152.577 254.208,152.244 256.5,152.5C 254.951,157.37 251.617,159.37 246.5,158.5C 246.545,155.923 245.545,153.923 243.5,152.5C 241.945,147.61 243.611,144.277 248.5,142.5 Z"/></g>
<g><path style="opacity:1" fill="#9f6444" d="M 321.5,156.5 C 322.71,156.932 323.71,157.599 324.5,158.5C 299.146,181.522 274.146,204.856 249.5,228.5C 249.267,226.938 248.6,225.605 247.5,224.5C 270.844,201.822 294.511,179.489 318.5,157.5C 319.325,156.614 320.325,156.281 321.5,156.5 Z"/></g>
<g><path style="opacity:1" fill="#a66948" d="M 329.5,140.5 C 333.463,143.129 337.129,146.129 340.5,149.5C 337.317,152.866 335.484,156.866 335,161.5C 333.6,160.884 332.1,160.551 330.5,160.5C 328.667,160.585 327.334,161.252 326.5,162.5C 302.193,185.139 277.859,207.805 253.5,230.5C 252.5,230.5 251.5,230.5 250.5,230.5C 250.666,234.846 250.499,239.179 250,243.5C 247.519,245.314 244.685,245.98 241.5,245.5C 242.122,244.373 242.955,243.373 244,242.5C 243.554,238.543 241.387,235.877 237.5,234.5C 238.315,233.571 239.148,232.571 240,231.5C 240.333,231.833 240.667,232.167 241,232.5C 241.21,230.942 241.71,229.609 242.5,228.5C 242.336,231.187 242.503,233.854 243,236.5C 245.789,239.129 247.789,238.462 249,234.5C 249.495,232.527 249.662,230.527 249.5,228.5C 274.146,204.856 299.146,181.522 324.5,158.5C 326.167,158.5 327.833,158.5 329.5,158.5C 329.238,157.022 329.571,155.689 330.5,154.5C 332.596,153.408 333.929,151.741 334.5,149.5C 333.892,145.897 331.892,143.564 328.5,142.5C 328.833,141.833 329.167,141.167 329.5,140.5 Z"/></g>
<g><path style="opacity:0.99" fill="#9c6242" d="M 225.5,164.5 C 225.401,167.237 225.735,169.904 226.5,172.5C 225.636,173.688 224.636,174.855 223.5,176C 224.167,176.333 224.833,176.667 225.5,177C 224.263,177.232 223.263,177.732 222.5,178.5C 220.547,177.095 219.547,177.761 219.5,180.5C 220.03,183.89 221.363,186.89 223.5,189.5C 222.5,189.833 221.833,190.5 221.5,191.5C 220.185,190.524 218.852,189.524 217.5,188.5C 216.614,189.325 216.281,190.325 216.5,191.5C 215.206,192.29 214.039,193.29 213,194.5C 212.333,193.167 211.667,191.833 211,190.5C 210.392,193.817 209.892,197.151 209.5,200.5C 210.293,206.14 210.626,211.807 210.5,217.5C 206.183,196.403 210.016,176.736 222,158.5C 222.708,157.619 223.542,156.953 224.5,156.5C 225.458,156.047 226.292,155.381 227,154.5C 228.531,157.189 227.864,159.522 225,161.5C 224.26,162.749 224.427,163.749 225.5,164.5 Z"/></g>
<g><path style="opacity:1" fill="#f49e6c" d="M 292.5,123.5 C 293.391,124.11 294.391,124.443 295.5,124.5C 322.027,127.549 342.527,140.215 357,162.5C 360.015,167.525 362.182,172.858 363.5,178.5C 365.432,185.057 364.599,185.724 361,180.5C 361.909,184.707 361.409,188.707 359.5,192.5C 359.719,191.325 359.386,190.325 358.5,189.5C 354.894,191.603 351.727,194.269 349,197.5C 348.044,201.925 349.877,203.592 354.5,202.5C 351.638,203.522 349.138,205.188 347,207.5C 346.235,209.066 346.402,210.399 347.5,211.5C 347.5,212.833 347.5,214.167 347.5,215.5C 346.833,214.5 346.167,213.5 345.5,212.5C 345.978,208.662 344.978,205.329 342.5,202.5C 342.5,201.833 342.833,201.5 343.5,201.5C 345.948,201.915 347.281,200.915 347.5,198.5C 346.661,195.326 344.995,192.659 342.5,190.5C 343.602,189.824 344.602,189.158 345.5,188.5C 349.008,191.499 352.175,191.166 355,187.5C 356.07,184.124 357.236,180.79 358.5,177.5C 356.86,171.553 354.193,166.219 350.5,161.5C 347.882,157.709 345.049,154.043 342,150.5C 342.434,154.452 342.434,158.452 342,162.5C 340.806,164.525 339.306,164.859 337.5,163.5C 336.158,165.005 334.492,165.672 332.5,165.5C 332.167,165.5 331.833,165.5 331.5,165.5C 329.999,164.248 328.332,163.248 326.5,162.5C 327.334,161.252 328.667,160.585 330.5,160.5C 332.1,160.551 333.6,160.884 335,161.5C 335.484,156.866 337.317,152.866 340.5,149.5C 337.129,146.129 333.463,143.129 329.5,140.5C 325.783,137.975 321.783,135.975 317.5,134.5C 314.833,133.5 312.167,132.5 309.5,131.5C 308.292,130.766 306.959,130.433 305.5,130.5C 301.257,129.319 296.924,128.652 292.5,128.5C 292.082,127.778 291.416,127.278 290.5,127C 291.167,126.667 291.833,126.333 292.5,126C 290.942,125.79 289.609,125.29 288.5,124.5C 290.099,124.768 291.432,124.434 292.5,123.5 Z"/></g>
<g><path style="opacity:1" fill="#ac6c4a" d="M 326.5,162.5 C 328.332,163.248 329.999,164.248 331.5,165.5C 329.093,166.712 326.76,168.212 324.5,170C 301.635,191.367 278.969,212.867 256.5,234.5C 255.5,233.167 254.5,231.833 253.5,230.5C 277.859,207.805 302.193,185.139 326.5,162.5 Z"/></g>
<g><path style="opacity:1" fill="#b2714d" d="M 331.5,165.5 C 331.833,165.5 332.167,165.5 332.5,165.5C 333.718,166.161 335.051,166.828 336.5,167.5C 335.311,168.429 333.978,168.762 332.5,168.5C 329.972,172.38 326.972,176.046 323.5,179.5C 302.892,198.771 282.225,218.104 261.5,237.5C 261.44,236.957 261.107,236.624 260.5,236.5C 259.749,237.376 259.249,238.376 259,239.5C 257.88,237.97 257.046,236.303 256.5,234.5C 278.969,212.867 301.635,191.367 324.5,170C 326.76,168.212 329.093,166.712 331.5,165.5 Z"/></g>
<g><path style="opacity:1" fill="#f49e6b" d="M 232.5,167.5 C 233.32,169.14 234.153,170.807 235,172.5C 237.024,170.654 239.357,169.321 242,168.5C 243.03,168.836 243.53,169.503 243.5,170.5C 241.748,176.31 238.415,177.644 233.5,174.5C 230.442,176.154 228.108,175.487 226.5,172.5C 225.735,169.904 225.401,167.237 225.5,164.5C 225.369,163.624 225.702,162.957 226.5,162.5C 228.519,164.19 230.519,165.856 232.5,167.5 Z"/></g>
<g><path style="opacity:1" fill="#b97550" d="M 350.5,161.5 C 347.089,164.742 344.255,168.408 342,172.5C 339.514,170.054 336.68,169.388 333.5,170.5C 334.127,171.417 334.461,172.417 334.5,173.5C 310.883,195.416 287.383,217.416 264,239.5C 263.005,238.934 262.172,238.267 261.5,237.5C 282.225,218.104 302.892,198.771 323.5,179.5C 326.972,176.046 329.972,172.38 332.5,168.5C 333.978,168.762 335.311,168.429 336.5,167.5C 335.051,166.828 333.718,166.161 332.5,165.5C 334.492,165.672 336.158,165.005 337.5,163.5C 339.306,164.859 340.806,164.525 342,162.5C 342.434,158.452 342.434,154.452 342,150.5C 345.049,154.043 347.882,157.709 350.5,161.5 Z"/></g>
<g><path style="opacity:1" fill="#d8895d" d="M 350.5,161.5 C 354.193,166.219 356.86,171.553 358.5,177.5C 357.236,180.79 356.07,184.124 355,187.5C 352.175,191.166 349.008,191.499 345.5,188.5C 345.188,182.864 342.188,180.531 336.5,181.5C 338.184,179.798 340.184,178.298 342.5,177C 339.849,176.847 337.516,176.013 335.5,174.5C 335.5,173.833 335.167,173.5 334.5,173.5C 334.461,172.417 334.127,171.417 333.5,170.5C 336.68,169.388 339.514,170.054 342,172.5C 344.255,168.408 347.089,164.742 350.5,161.5 Z"/></g>
<g><path style="opacity:1" fill="#c77e56" d="M 335.5,174.5 C 337.516,176.013 339.849,176.847 342.5,177C 340.184,178.298 338.184,179.798 336.5,181.5C 315.134,201.867 293.801,222.201 272.5,242.5C 273.357,243.425 274.357,244.092 275.5,244.5C 275.833,245.5 276.5,246.167 277.5,246.5C 278.512,247.872 279.512,249.205 280.5,250.5C 280.492,253.545 280.159,256.545 279.5,259.5C 277.801,259.66 276.134,259.494 274.5,259C 272.877,256.92 271.377,254.754 270,252.5C 267.619,254.895 265.785,257.561 264.5,260.5C 264.762,259.022 264.429,257.689 263.5,256.5C 261.018,255.103 258.352,254.269 255.5,254C 256.966,253.365 258.3,252.531 259.5,251.5C 261.191,253.256 263.191,253.756 265.5,253C 266.297,249.255 266.797,245.421 267,241.5C 267.915,240.672 268.581,239.672 269,238.5C 289.807,219.028 310.64,199.528 331.5,180C 332.721,177.966 334.055,176.133 335.5,174.5 Z"/></g>
<g><path style="opacity:1" fill="#f39b69" d="M 222.5,178.5 C 224.392,179.702 226.226,181.035 228,182.5C 231.107,188.502 229.607,190.835 223.5,189.5C 221.363,186.89 220.03,183.89 219.5,180.5C 219.547,177.761 220.547,177.095 222.5,178.5 Z"/></g>
<g><path style="opacity:1" fill="#ef9867" d="M 240.5,182.5 C 239.623,184.728 238.29,186.728 236.5,188.5C 234.5,188.5 232.5,188.5 230.5,188.5C 231.218,182.789 234.551,179.789 240.5,179.5C 240.5,180.5 240.5,181.5 240.5,182.5 Z"/></g>
<g><path style="opacity:1" fill="#d9895e" d="M 345.5,188.5 C 344.602,189.158 343.602,189.824 342.5,190.5C 344.995,192.659 346.661,195.326 347.5,198.5C 347.281,200.915 345.948,201.915 343.5,201.5C 341.082,200.086 339.415,198.086 338.5,195.5C 339.025,190.882 337.692,189.882 334.5,192.5C 315.701,210.729 296.701,228.729 277.5,246.5C 276.5,246.167 275.833,245.5 275.5,244.5C 296.48,225.189 317.48,205.855 338.5,186.5C 340.51,188.171 342.843,188.838 345.5,188.5 Z"/></g>
<g><path style="opacity:1" fill="#e99465" d="M 236.5,189.5 C 237.156,190.622 237.489,191.955 237.5,193.5C 237.824,199.176 235.158,201.842 229.5,201.5C 229.5,199.833 229.5,198.167 229.5,196.5C 230.833,193.167 233.167,190.833 236.5,189.5 Z"/></g>
<g><path style="opacity:1" fill="#ea9565" d="M 221.5,191.5 C 223.833,193.167 225.833,195.167 227.5,197.5C 228.865,199.751 228.531,201.751 226.5,203.5C 224.173,203.753 222.173,203.086 220.5,201.5C 218.579,198.404 217.246,195.07 216.5,191.5C 216.281,190.325 216.614,189.325 217.5,188.5C 218.852,189.524 220.185,190.524 221.5,191.5 Z"/></g>
<g><path style="opacity:1" fill="#c07a53" d="M 359.5,192.5 C 359.309,196.663 357.643,199.996 354.5,202.5C 349.877,203.592 348.044,201.925 349,197.5C 351.727,194.269 354.894,191.603 358.5,189.5C 359.386,190.325 359.719,191.325 359.5,192.5 Z"/></g>
<g><path style="opacity:1" fill="#e79364" d="M 338.5,195.5 C 319.219,213.778 299.886,232.111 280.5,250.5C 279.512,249.205 278.512,247.872 277.5,246.5C 296.701,228.729 315.701,210.729 334.5,192.5C 337.692,189.882 339.025,190.882 338.5,195.5 Z"/></g>
<g><path style="opacity:1" fill="#f69d6b" d="M 338.5,195.5 C 339.415,198.086 341.082,200.086 343.5,201.5C 342.833,201.5 342.5,201.833 342.5,202.5C 340.956,202.297 339.622,201.63 338.5,200.5C 336.846,204.783 337.513,208.617 340.5,212C 342.134,212.494 343.801,212.66 345.5,212.5C 343.249,213.015 341.249,214.015 339.5,215.5C 338.571,214.064 337.405,212.731 336,211.5C 334.608,214.278 334.108,217.278 334.5,220.5C 333.698,219.048 333.198,217.382 333,215.5C 330.175,219.325 327.008,222.825 323.5,226C 317.767,231.406 311.767,236.406 305.5,241C 307.632,242.62 307.965,244.454 306.5,246.5C 306.762,245.022 306.429,243.689 305.5,242.5C 301.834,244.504 298.834,247.171 296.5,250.5C 296.565,250.062 296.399,249.728 296,249.5C 291.991,254.675 287.491,259.342 282.5,263.5C 281.828,264.949 281.161,266.282 280.5,267.5C 280.739,265.533 280.406,263.699 279.5,262C 276.167,261.333 272.833,261.333 269.5,262C 265.325,264.689 261.325,267.523 257.5,270.5C 253.883,269.358 250.55,267.692 247.5,265.5C 251.927,265.507 256.594,265.34 261.5,265C 263.141,263.871 264.141,262.371 264.5,260.5C 265.785,257.561 267.619,254.895 270,252.5C 271.377,254.754 272.877,256.92 274.5,259C 276.134,259.494 277.801,259.66 279.5,259.5C 280.159,256.545 280.492,253.545 280.5,250.5C 299.886,232.111 319.219,213.778 338.5,195.5 Z"/></g>
<g><path style="opacity:1" fill="#de8d60" d="M 239.5,201.5 C 239.5,202.167 239.5,202.833 239.5,203.5C 239.818,207.689 238.152,210.855 234.5,213C 231.07,213.638 229.737,212.138 230.5,208.5C 232.243,205.25 234.577,202.416 237.5,200C 238.816,199.472 239.483,199.972 239.5,201.5 Z"/></g>
<g><path style="opacity:1" fill="#d5875c" d="M 336.5,181.5 C 342.188,180.531 345.188,182.864 345.5,188.5C 342.843,188.838 340.51,188.171 338.5,186.5C 317.48,205.855 296.48,225.189 275.5,244.5C 274.357,244.092 273.357,243.425 272.5,242.5C 293.801,222.201 315.134,201.867 336.5,181.5 Z"/></g>
<g><path style="opacity:1" fill="#b8744f" d="M 347.5,215.5 C 347.5,214.167 347.5,212.833 347.5,211.5C 351.026,206.904 355.692,204.737 361.5,205C 359.666,209.005 357.333,212.672 354.5,216C 351.826,218.125 349.493,217.958 347.5,215.5 Z"/></g>
<g><path style="opacity:1" fill="#70462f" d="M 216.5,191.5 C 217.246,195.07 218.579,198.404 220.5,201.5C 222.173,203.086 224.173,203.753 226.5,203.5C 226.118,204.629 224.785,205.295 222.5,205.5C 220.144,204.425 217.811,204.425 215.5,205.5C 217.062,210.643 220.062,214.643 224.5,217.5C 224.5,218.167 224.167,218.5 223.5,218.5C 221.219,218.077 219.552,218.744 218.5,220.5C 217.47,221.552 216.803,222.886 216.5,224.5C 217.945,230.053 219.945,235.387 222.5,240.5C 221.603,239.402 220.77,239.402 220,240.5C 219.667,238.833 219.333,237.167 219,235.5C 218.329,236.252 217.496,236.586 216.5,236.5C 213.297,230.556 211.297,224.223 210.5,217.5C 210.626,211.807 210.293,206.14 209.5,200.5C 209.892,197.151 210.392,193.817 211,190.5C 211.667,191.833 212.333,193.167 213,194.5C 214.039,193.29 215.206,192.29 216.5,191.5 Z"/></g>
<g><path style="opacity:1" fill="#bd7852" d="M 342.5,202.5 C 344.978,205.329 345.978,208.662 345.5,212.5C 343.801,212.66 342.134,212.494 340.5,212C 337.513,208.617 336.846,204.783 338.5,200.5C 339.622,201.63 340.956,202.297 342.5,202.5 Z"/></g>
<g><path style="opacity:1" fill="#e28f62" d="M 222.5,205.5 C 224.463,206.82 226.463,208.154 228.5,209.5C 230.553,214.052 229.22,216.719 224.5,217.5C 220.062,214.643 217.062,210.643 215.5,205.5C 217.811,204.425 220.144,204.425 222.5,205.5 Z"/></g>
<g><path style="opacity:1" fill="#fcac75" d="M 334.5,220.5 C 334.833,224.167 336.833,226.167 340.5,226.5C 339.152,227.601 337.652,228.601 336,229.5C 335.211,231.712 335.378,233.712 336.5,235.5C 336.027,236.906 335.027,237.573 333.5,237.5C 332.01,240.212 332.344,242.712 334.5,245C 331.964,245.186 329.631,245.686 327.5,246.5C 322.571,249.013 322.238,252.18 326.5,256C 322.161,255.318 317.828,255.485 313.5,256.5C 311.785,260.209 312.618,263.209 316,265.5C 316.688,266.332 316.521,266.998 315.5,267.5C 312.411,265.075 309.078,263.075 305.5,261.5C 304.167,260.833 302.833,260.167 301.5,259.5C 304.771,255.9 306.438,251.566 306.5,246.5C 307.965,244.454 307.632,242.62 305.5,241C 311.767,236.406 317.767,231.406 323.5,226C 327.008,222.825 330.175,219.325 333,215.5C 333.198,217.382 333.698,219.048 334.5,220.5 Z"/></g>
<g><path style="opacity:1" fill="#d4875c" d="M 241.5,211.5 C 242.11,212.391 242.443,213.391 242.5,214.5C 242.816,217.978 242.316,221.312 241,224.5C 238.646,226.936 236.479,226.936 234.5,224.5C 234.682,218.99 237.015,214.657 241.5,211.5 Z"/></g>
<g><path style="opacity:1" fill="#b8744f" d="M 339.5,215.5 C 342.869,218.976 343.202,222.642 340.5,226.5C 336.833,226.167 334.833,224.167 334.5,220.5C 334.108,217.278 334.608,214.278 336,211.5C 337.405,212.731 338.571,214.064 339.5,215.5 Z"/></g>
<g><path style="opacity:1" fill="#b1704d" d="M 343.5,230.5 C 341.872,225.099 343.872,221.766 349.5,220.5C 351.547,220.489 353.547,220.156 355.5,219.5C 356.167,219.833 356.833,220.167 357.5,220.5C 355.47,225.863 351.803,229.53 346.5,231.5C 345.416,231.315 344.416,230.982 343.5,230.5 Z"/></g>
<g><path style="opacity:1" fill="#d4865c" d="M 223.5,218.5 C 227.132,219.984 230.466,221.984 233.5,224.5C 235.247,229.83 233.247,231.997 227.5,231C 223.886,227.897 220.886,224.397 218.5,220.5C 219.552,218.744 221.219,218.077 223.5,218.5 Z"/></g>
<g><path style="opacity:1" fill="#ed9767" d="M 364.5,222.5 C 363.585,228.314 361.585,233.647 358.5,238.5C 356.573,235.673 355.906,232.673 356.5,229.5C 354.639,230.528 353.305,232.028 352.5,234C 348.848,234.499 345.182,234.665 341.5,234.5C 341.733,232.938 342.4,231.605 343.5,230.5C 344.416,230.982 345.416,231.315 346.5,231.5C 351.803,229.53 355.47,225.863 357.5,220.5C 356.833,220.167 356.167,219.833 355.5,219.5C 353.547,220.156 351.547,220.489 349.5,220.5C 354.49,219.781 358.657,217.448 362,213.5C 363.383,216.368 364.216,219.368 364.5,222.5 Z"/></g>
<g><path style="opacity:1" fill="#c97f57" d="M 247.5,224.5 C 248.6,225.605 249.267,226.938 249.5,228.5C 249.662,230.527 249.495,232.527 249,234.5C 247.789,238.462 245.789,239.129 243,236.5C 242.503,233.854 242.336,231.187 242.5,228.5C 242.472,226.418 243.139,224.584 244.5,223C 245.998,222.415 246.998,222.915 247.5,224.5 Z"/></g>
<g><path style="opacity:1" fill="#b2704d" d="M 333.5,237.5 C 331.171,238.749 329.338,238.082 328,235.5C 326.668,230.405 327.835,226.072 331.5,222.5C 334.407,227.186 335.074,232.186 333.5,237.5 Z"/></g>
<g><path style="opacity:1" fill="#feb37a" d="M 363.5,178.5 C 366.675,185.891 368.008,193.724 367.5,202C 367.905,209.177 366.905,216.01 364.5,222.5C 364.216,219.368 363.383,216.368 362,213.5C 358.657,217.448 354.49,219.781 349.5,220.5C 343.872,221.766 341.872,225.099 343.5,230.5C 342.4,231.605 341.733,232.938 341.5,234.5C 339.784,234.629 338.117,234.962 336.5,235.5C 335.378,233.712 335.211,231.712 336,229.5C 337.652,228.601 339.152,227.601 340.5,226.5C 343.202,222.642 342.869,218.976 339.5,215.5C 341.249,214.015 343.249,213.015 345.5,212.5C 346.167,213.5 346.833,214.5 347.5,215.5C 349.493,217.958 351.826,218.125 354.5,216C 357.333,212.672 359.666,209.005 361.5,205C 355.692,204.737 351.026,206.904 347.5,211.5C 346.402,210.399 346.235,209.066 347,207.5C 349.138,205.188 351.638,203.522 354.5,202.5C 357.643,199.996 359.309,196.663 359.5,192.5C 361.409,188.707 361.909,184.707 361,180.5C 364.599,185.724 365.432,185.057 363.5,178.5 Z"/></g>
<g><path style="opacity:1" fill="#c57d55" d="M 237.5,234.5 C 241.387,235.877 243.554,238.543 244,242.5C 242.955,243.373 242.122,244.373 241.5,245.5C 234.411,244.776 228.745,241.443 224.5,235.5C 228.783,234.508 233.116,234.174 237.5,234.5 Z"/></g>
<g><path style="opacity:1" fill="#bf7953" d="M 358.5,238.5 C 355.944,244.049 352.61,249.049 348.5,253.5C 348.032,248.566 346.532,248.233 344,252.5C 342.086,251.324 342.252,250.324 344.5,249.5C 339.153,246.89 333.486,245.89 327.5,246.5C 329.631,245.686 331.964,245.186 334.5,245C 332.344,242.712 332.01,240.212 333.5,237.5C 335.027,237.573 336.027,236.906 336.5,235.5C 338.117,234.962 339.784,234.629 341.5,234.5C 345.182,234.665 348.848,234.499 352.5,234C 353.305,232.028 354.639,230.528 356.5,229.5C 355.906,232.673 356.573,235.673 358.5,238.5 Z"/></g>
<g><path style="opacity:1" fill="#ba7650" d="M 334.5,173.5 C 335.167,173.5 335.5,173.833 335.5,174.5C 334.055,176.133 332.721,177.966 331.5,180C 310.64,199.528 289.807,219.028 269,238.5C 268.581,239.672 267.915,240.672 267,241.5C 266.797,245.421 266.297,249.255 265.5,253C 263.191,253.756 261.191,253.256 259.5,251.5C 258.3,252.531 256.966,253.365 255.5,254C 258.352,254.269 261.018,255.103 263.5,256.5C 264.429,257.689 264.762,259.022 264.5,260.5C 264.141,262.371 263.141,263.871 261.5,265C 256.594,265.34 251.927,265.507 247.5,265.5C 242.099,262.45 237.433,258.45 233.5,253.5C 233.542,251.854 233.542,250.188 233.5,248.5C 236.384,247.791 239.051,246.791 241.5,245.5C 244.685,245.98 247.519,245.314 250,243.5C 250.499,239.179 250.666,234.846 250.5,230.5C 251.5,230.5 252.5,230.5 253.5,230.5C 254.5,231.833 255.5,233.167 256.5,234.5C 257.046,236.303 257.88,237.97 259,239.5C 259.249,238.376 259.749,237.376 260.5,236.5C 261.107,236.624 261.44,236.957 261.5,237.5C 262.172,238.267 263.005,238.934 264,239.5C 287.383,217.416 310.883,195.416 334.5,173.5 Z"/></g>
<g><path style="opacity:1" fill="#b2714d" d="M 323.5,230.5 C 326.821,234.624 327.321,239.291 325,244.5C 324.261,245.574 323.261,246.241 322,246.5C 319.929,244.86 318.762,242.693 318.5,240C 319.259,236.313 320.926,233.146 323.5,230.5 Z"/></g>
<g><path style="opacity:1" fill="#ae6e4b" d="M 314.5,237.5 C 315.496,237.414 316.329,237.748 317,238.5C 317.791,242.926 317.457,247.259 316,251.5C 314.604,253.527 312.938,253.86 311,252.5C 308.576,246.676 309.743,241.676 314.5,237.5 Z"/></g>
<g><path style="opacity:1" fill="#ae6e4b" d="M 306.5,246.5 C 306.438,251.566 304.771,255.9 301.5,259.5C 300.022,259.762 298.689,259.429 297.5,258.5C 296.607,255.916 296.274,253.249 296.5,250.5C 298.834,247.171 301.834,244.504 305.5,242.5C 306.429,243.689 306.762,245.022 306.5,246.5 Z"/></g>
<g><path style="opacity:0.997" fill="#af6f4c" d="M 327.5,246.5 C 333.486,245.89 339.153,246.89 344.5,249.5C 342.252,250.324 342.086,251.324 344,252.5C 346.532,248.233 348.032,248.566 348.5,253.5C 334.93,269.621 317.597,278.955 296.5,281.5C 297.23,279.955 298.563,279.122 300.5,279C 299.473,278.487 298.473,277.987 297.5,277.5C 301.207,275.81 305.207,274.644 309.5,274C 303.689,274.344 299.189,272.177 296,267.5C 295.175,265.299 295.675,263.466 297.5,262C 300.146,261.503 302.813,261.336 305.5,261.5C 309.078,263.075 312.411,265.075 315.5,267.5C 316.521,266.998 316.688,266.332 316,265.5C 312.618,263.209 311.785,260.209 313.5,256.5C 317.828,255.485 322.161,255.318 326.5,256C 322.238,252.18 322.571,249.013 327.5,246.5 Z"/></g>
<g><path style="opacity:1" fill="#fcad75" d="M 296.5,250.5 C 296.274,253.249 296.607,255.916 297.5,258.5C 298.689,259.429 300.022,259.762 301.5,259.5C 302.833,260.167 304.167,260.833 305.5,261.5C 302.813,261.336 300.146,261.503 297.5,262C 295.675,263.466 295.175,265.299 296,267.5C 299.189,272.177 303.689,274.344 309.5,274C 305.207,274.644 301.207,275.81 297.5,277.5C 286.983,278.071 276.65,277.071 266.5,274.5C 270.569,273.974 274.569,272.807 278.5,271C 279.823,270.184 280.489,269.017 280.5,267.5C 281.161,266.282 281.828,264.949 282.5,263.5C 287.491,259.342 291.991,254.675 296,249.5C 296.399,249.728 296.565,250.062 296.5,250.5 Z"/></g>
<g><path style="opacity:1" fill="#ae6e4b" d="M 280.5,267.5 C 280.489,269.017 279.823,270.184 278.5,271C 274.569,272.807 270.569,273.974 266.5,274.5C 263.18,273.607 260.18,272.273 257.5,270.5C 261.325,267.523 265.325,264.689 269.5,262C 272.833,261.333 276.167,261.333 279.5,262C 280.406,263.699 280.739,265.533 280.5,267.5 Z"/></g>
<g><path style="opacity:0.954" fill="#7b4d34" d="M 222.5,240.5 C 225.791,245.127 229.458,249.46 233.5,253.5C 237.433,258.45 242.099,262.45 247.5,265.5C 250.55,267.692 253.883,269.358 257.5,270.5C 260.18,272.273 263.18,273.607 266.5,274.5C 276.65,277.071 286.983,278.071 297.5,277.5C 298.473,277.987 299.473,278.487 300.5,279C 298.563,279.122 297.23,279.955 296.5,281.5C 268.711,283.347 245.544,274.013 227,253.5C 222.475,248.447 218.975,242.781 216.5,236.5C 217.496,236.586 218.329,236.252 219,235.5C 219.333,237.167 219.667,238.833 220,240.5C 220.77,239.402 221.603,239.402 222.5,240.5 Z"/></g>
</svg>
