<?xml version="1.0" encoding="UTF-8"?>
<!DOCTYPE svg PUBLIC "-//W3C//DTD SVG 1.1//EN" "http://www.w3.org/Graphics/SVG/1.1/DTD/svg11.dtd">
<svg xmlns="http://www.w3.org/2000/svg" version="1.1" width="200" height="50"  style="shape-rendering:geometricPrecision; text-rendering:geometricPrecision; image-rendering:optimizeQuality; fill-rule:evenodd; clip-rule:evenodd" xmlns:xlink="http://www.w3.org/1999/xlink">
<g><path style="opacity:1" fill="#4d3200" d="M 282.5,90.5 C 282.5,91.1667 282.5,91.8333 282.5,92.5C 282.423,96.2148 282.756,99.8815 283.5,103.5C 280.487,103.893 277.82,103.226 275.5,101.5C 275.276,97.8212 274.942,94.1545 274.5,90.5C 277.167,90.5 279.833,90.5 282.5,90.5 Z"/></g>
<g><path style="opacity:1" fill="#d9dc8b" d="M 282.5,90.5 C 284.833,90.5 287.167,90.5 289.5,90.5C 289.735,95.241 290.402,99.9077 291.5,104.5C 289.167,104.5 286.833,104.5 284.5,104.5C 284.461,100.267 283.795,96.2671 282.5,92.5C 282.5,91.8333 282.5,91.1667 282.5,90.5 Z"/></g>
<g><path style="opacity:0.985" fill="#7c6318" d="M 289.5,90.5 C 293.846,90.3343 298.179,90.501 302.5,91C 301.623,93.9148 300.957,96.9148 300.5,100C 301.562,101.841 302.562,103.674 303.5,105.5C 300.479,102.516 299.479,102.849 300.5,106.5C 297.838,104.732 294.838,104.065 291.5,104.5C 290.402,99.9077 289.735,95.241 289.5,90.5 Z"/></g>
<g><path style="opacity:0.805" fill="#6f5613" d="M 282.5,92.5 C 283.795,96.2671 284.461,100.267 284.5,104.5C 277.341,102.991 274.674,105.658 276.5,112.5C 283.833,113.833 291.167,113.833 298.5,112.5C 300.28,111.01 300.946,109.01 300.5,106.5C 299.479,102.849 300.479,102.516 303.5,105.5C 305.421,109.745 304.421,113.078 300.5,115.5C 297.167,115.5 293.833,115.5 290.5,115.5C 288.585,115.216 286.919,115.549 285.5,116.5C 276.399,118.867 271.899,115.534 272,106.5C 272.997,104.677 274.164,103.01 275.5,101.5C 277.82,103.226 280.487,103.893 283.5,103.5C 282.756,99.8815 282.423,96.2148 282.5,92.5 Z M 284.5,104.5 C 286.833,104.5 289.167,104.5 291.5,104.5C 294.838,104.065 297.838,104.732 300.5,106.5C 300.946,109.01 300.28,111.01 298.5,112.5C 291.221,111.797 283.887,111.797 276.5,112.5C 274.674,105.658 277.341,102.991 284.5,104.5 Z"/></g>
<g><path style="opacity:0.034" fill="#a9a54e" d="M 298.5,112.5 C 291.167,113.833 283.833,113.833 276.5,112.5C 283.887,111.797 291.221,111.797 298.5,112.5 Z"/></g>
<g><path style="opacity:1" fill="#94802e" d="M 290.5,115.5 C 293.833,115.5 297.167,115.5 300.5,115.5C 297.713,116.477 294.713,116.81 291.5,116.5C 292.206,118.672 293.206,120.672 294.5,122.5C 294.631,123.239 294.464,123.906 294,124.5C 293.722,123.584 293.222,122.918 292.5,122.5C 291.833,122.167 291.167,121.833 290.5,121.5C 288.654,121.778 287.32,121.111 286.5,119.5C 287.689,118.571 289.022,118.238 290.5,118.5C 290.5,117.5 290.5,116.5 290.5,115.5 Z"/></g>
<g><path style="opacity:0.934" fill="#bdb45e" d="M 290.5,115.5 C 290.5,116.5 290.5,117.5 290.5,118.5C 289.022,118.238 287.689,118.571 286.5,119.5C 287.32,121.111 288.654,121.778 290.5,121.5C 289.036,123.984 287.369,123.984 285.5,121.5C 281.611,124.027 282.278,125.027 287.5,124.5C 289.64,124.444 291.306,123.777 292.5,122.5C 293.222,122.918 293.722,123.584 294,124.5C 294.464,123.906 294.631,123.239 294.5,122.5C 295.338,122.842 295.672,123.508 295.5,124.5C 294.158,125.793 292.491,126.626 290.5,127C 294.347,127.633 298.014,128.467 301.5,129.5C 299.167,129.5 296.833,129.5 294.5,129.5C 286.564,128.102 278.564,128.435 270.5,130.5C 264.288,132.181 258.288,134.347 252.5,137C 250.402,137.678 248.402,137.511 246.5,136.5C 249.773,133.856 253.44,131.689 257.5,130C 265.082,127.517 272.749,125.351 280.5,123.5C 282.605,121.408 284.272,119.075 285.5,116.5C 286.919,115.549 288.585,115.216 290.5,115.5 Z"/></g>
<g><path style="opacity:1" fill="#897222" d="M 294.5,129.5 C 296.833,129.5 299.167,129.5 301.5,129.5C 302.833,129.833 304.167,130.167 305.5,130.5C 303.26,131.264 300.927,132.098 298.5,133C 279.655,150.7 260.821,168.533 242,186.5C 239.895,189.107 239.062,192.107 239.5,195.5C 239.167,195.5 238.833,195.5 238.5,195.5C 239.01,192.612 238.344,190.279 236.5,188.5C 233.48,190.523 231.146,193.19 229.5,196.5C 228.833,196.833 228.167,197.167 227.5,197.5C 225.5,194.833 223.167,192.5 220.5,190.5C 220.833,189.5 221.5,188.833 222.5,188.5C 227.711,191.994 229.878,190.661 229,184.5C 228.003,182.677 226.836,181.01 225.5,179.5C 227.272,177.71 229.272,176.377 231.5,175.5C 237.369,178.009 241.369,176.342 243.5,170.5C 246.075,168.923 249.075,167.09 252.5,165C 261.16,156.34 269.826,147.674 278.5,139C 279.5,138.667 280.5,138.333 281.5,138C 284.047,135.731 286.047,133.065 287.5,130C 289.81,129.503 292.143,129.337 294.5,129.5 Z"/></g>
<g><path style="opacity:1" fill="#8f7927" d="M 305.5,130.5 C 306.708,131.234 308.041,131.567 309.5,131.5C 285.867,152.465 262.534,173.798 239.5,195.5C 239.062,192.107 239.895,189.107 242,186.5C 260.821,168.533 279.655,150.7 298.5,133C 300.927,132.098 303.26,131.264 305.5,130.5 Z"/></g>
<g><path style="opacity:0.997" fill="#ad9e48" d="M 270.5,130.5 C 270.804,131.15 271.137,131.817 271.5,132.5C 269.457,133.579 268.124,135.246 267.5,137.5C 265.369,138.169 263.369,138.835 261.5,139.5C 258.055,140.73 255.055,142.73 252.5,145.5C 251.833,145.833 251.167,146.167 250.5,146.5C 248.451,141.315 246.118,141.315 243.5,146.5C 241.828,149.83 242.495,152.497 245.5,154.5C 246.429,155.689 246.762,157.022 246.5,158.5C 248.167,158.5 249.833,158.5 251.5,158.5C 250.5,159.167 249.5,159.833 248.5,160.5C 246.167,160.5 243.833,160.5 241.5,160.5C 241.493,156.153 239.66,152.82 236,150.5C 233.396,154.566 232.896,158.899 234.5,163.5C 234.267,165.062 233.6,166.395 232.5,167.5C 230.519,165.856 228.519,164.19 226.5,162.5C 225.548,164.045 225.215,165.712 225.5,167.5C 223.595,170.27 221.428,172.936 219,175.5C 219.48,171.357 220.98,167.524 223.5,164C 223.106,161.72 222.106,161.22 220.5,162.5C 226.167,150.833 234.833,142.167 246.5,136.5C 248.402,137.511 250.402,137.678 252.5,137C 258.288,134.347 264.288,132.181 270.5,130.5 Z"/></g>
<g><path style="opacity:0.95" fill="#cac773" d="M 295.5,124.5 C 309.53,125.839 322.197,130.506 333.5,138.5C 332.222,138.782 331.222,139.449 330.5,140.5C 326.042,138.771 321.709,136.771 317.5,134.5C 314.833,133.5 312.167,132.5 309.5,131.5C 308.041,131.567 306.708,131.234 305.5,130.5C 304.167,130.167 302.833,129.833 301.5,129.5C 298.014,128.467 294.347,127.633 290.5,127C 292.491,126.626 294.158,125.793 295.5,124.5 Z"/></g>
<g><path style="opacity:1" fill="#907a28" d="M 294.5,129.5 C 292.143,129.337 289.81,129.503 287.5,130C 286.047,133.065 284.047,135.731 281.5,138C 280.5,138.333 279.5,138.667 278.5,139C 269.826,147.674 261.16,156.34 252.5,165C 249.075,167.09 246.075,168.923 243.5,170.5C 240.53,168.391 237.697,169.058 235,172.5C 234.153,170.807 233.32,169.14 232.5,167.5C 233.6,166.395 234.267,165.062 234.5,163.5C 236.01,164.728 237.51,164.728 239,163.5C 239.775,165.223 241.108,166.223 243,166.5C 245.581,165.583 247.914,164.249 250,162.5C 250.528,161.184 250.028,160.517 248.5,160.5C 249.5,159.833 250.5,159.167 251.5,158.5C 254.121,157.879 255.788,156.212 256.5,153.5C 254.305,152.231 252.139,152.231 250,153.5C 250.207,151.249 250.373,148.915 250.5,146.5C 251.167,146.167 251.833,145.833 252.5,145.5C 251.753,151.067 254.087,152.9 259.5,151C 264.164,148.18 267.497,144.346 269.5,139.5C 266.833,139.5 264.167,139.5 261.5,139.5C 263.369,138.835 265.369,138.169 267.5,137.5C 268.124,135.246 269.457,133.579 271.5,132.5C 271.137,131.817 270.804,131.15 270.5,130.5C 278.564,128.435 286.564,128.102 294.5,129.5 Z"/></g>
<g><path style="opacity:1" fill="#c7c26d" d="M 261.5,139.5 C 264.167,139.5 266.833,139.5 269.5,139.5C 267.497,144.346 264.164,148.18 259.5,151C 254.087,152.9 251.753,151.067 252.5,145.5C 255.055,142.73 258.055,140.73 261.5,139.5 Z"/></g>
<g><path style="opacity:1" fill="#beb660" d="M 314.5,139.5 C 318.747,140.221 321.914,142.555 324,146.5C 324.832,150.143 323.332,151.81 319.5,151.5C 316.705,150.937 314.372,149.604 312.5,147.5C 310.833,145.167 308.833,143.167 306.5,141.5C 308.635,139.631 311.302,138.964 314.5,139.5 Z"/></g>
<g><path style="opacity:1" fill="#9a8632" d="M 306.5,141.5 C 308.833,143.167 310.833,145.167 312.5,147.5C 310.307,148.389 307.974,149.889 305.5,152C 284.931,172.739 263.597,192.572 241.5,211.5C 236.932,214.636 234.432,218.969 234,224.5C 230.865,221.697 227.365,219.697 223.5,218.5C 224.167,218.5 224.5,218.167 224.5,217.5C 226.144,217.714 227.644,217.38 229,216.5C 229.703,214.071 229.537,211.738 228.5,209.5C 229.167,209.167 229.833,208.833 230.5,208.5C 230.242,213.472 232.242,214.639 236.5,212C 239.1,209.016 240.1,205.516 239.5,201.5C 261.744,181.761 283.578,161.428 305,140.5C 305.383,141.056 305.883,141.389 306.5,141.5 Z"/></g>
<g><path style="opacity:1" fill="#c6c06b" d="M 250.5,146.5 C 250.373,148.915 250.207,151.249 250,153.5C 252.139,152.231 254.305,152.231 256.5,153.5C 255.788,156.212 254.121,157.879 251.5,158.5C 249.833,158.5 248.167,158.5 246.5,158.5C 246.762,157.022 246.429,155.689 245.5,154.5C 242.495,152.497 241.828,149.83 243.5,146.5C 246.118,141.315 248.451,141.315 250.5,146.5 Z"/></g>
<g><path style="opacity:1" fill="#917c29" d="M 309.5,131.5 C 312.167,132.5 314.833,133.5 317.5,134.5C 316.075,135.922 315.075,137.589 314.5,139.5C 311.302,138.964 308.635,139.631 306.5,141.5C 305.883,141.389 305.383,141.056 305,140.5C 283.578,161.428 261.744,181.761 239.5,201.5C 239.483,199.972 238.816,199.472 237.5,200C 234.577,202.416 232.243,205.25 230.5,208.5C 229.833,208.833 229.167,209.167 228.5,209.5C 224.68,206.84 220.513,204.84 216,203.5C 216.54,209.583 219.373,214.25 224.5,217.5C 224.5,218.167 224.167,218.5 223.5,218.5C 221.219,218.077 219.552,218.744 218.5,220.5C 216.757,222.126 216.257,224.126 217,226.5C 218.616,231.733 220.783,236.733 223.5,241.5C 222.315,241.876 220.982,241.876 219.5,241.5C 216.117,236.724 213.784,231.39 212.5,225.5C 211.605,222.262 211.605,219.095 212.5,216C 209.827,210.581 209.827,205.915 212.5,202C 211.046,196.037 210.879,190.203 212,184.5C 212.497,187.146 212.664,189.813 212.5,192.5C 213.959,192.567 215.292,192.234 216.5,191.5C 216.944,195.332 218.278,198.832 220.5,202C 226.114,204.849 228.447,203.349 227.5,197.5C 228.167,197.167 228.833,196.833 229.5,196.5C 229.5,198.167 229.5,199.833 229.5,201.5C 234.078,201.72 237.078,199.72 238.5,195.5C 238.833,195.5 239.167,195.5 239.5,195.5C 262.534,173.798 285.867,152.465 309.5,131.5 Z"/></g>
<g><path style="opacity:1" fill="#c4be69" d="M 248.5,160.5 C 250.028,160.517 250.528,161.184 250,162.5C 247.914,164.249 245.581,165.583 243,166.5C 241.108,166.223 239.775,165.223 239,163.5C 237.51,164.728 236.01,164.728 234.5,163.5C 232.896,158.899 233.396,154.566 236,150.5C 239.66,152.82 241.493,156.153 241.5,160.5C 243.833,160.5 246.167,160.5 248.5,160.5 Z"/></g>
<g><path style="opacity:1" fill="#a3923d" d="M 317.5,134.5 C 321.709,136.771 326.042,138.771 330.5,140.5C 333.167,143.167 335.833,145.833 338.5,148.5C 336.5,150.5 334.5,152.5 332.5,154.5C 335.541,149.199 334.375,144.866 329,141.5C 326.538,144.932 326.038,148.599 327.5,152.5C 325.259,152.498 322.926,152.832 320.5,153.5C 321.127,154.417 321.461,155.417 321.5,156.5C 318.949,157.516 316.782,159.183 315,161.5C 314.667,161.167 314.333,160.833 314,160.5C 313,161.833 312,163.167 311,164.5C 310.667,164.167 310.333,163.833 310,163.5C 302.906,171.583 295.906,179.583 289,187.5C 288.667,187.167 288.333,186.833 288,186.5C 285.667,188.5 283.333,190.5 281,192.5C 280.086,191.346 279.253,191.513 278.5,193C 278.833,193.333 279.167,193.667 279.5,194C 277.147,197.102 274.481,199.102 271.5,200C 271.833,200.333 272.167,200.667 272.5,201C 268.348,204.849 264.514,208.349 261,211.5C 260.667,211.167 260.333,210.833 260,210.5C 258.833,211.667 257.667,212.833 256.5,214C 257.28,215.073 257.113,216.24 256,217.5C 252.392,218.945 249.559,221.279 247.5,224.5C 246.833,223.5 246.167,222.5 245.5,221.5C 246.412,219.405 247.579,217.405 249,215.5C 252.234,214.267 254.901,212.267 257,209.5C 257.483,208.552 257.649,207.552 257.5,206.5C 262.515,204.329 266.515,200.829 269.5,196C 270.5,195.667 271.5,195.333 272.5,195C 277.508,190.507 281.841,185.674 285.5,180.5C 286.5,180.5 287.5,180.5 288.5,180.5C 288.5,179.5 288.5,178.5 288.5,177.5C 289.552,177.649 290.552,177.483 291.5,177C 294.567,173.594 297.901,170.594 301.5,168C 304.207,165.493 306.207,162.66 307.5,159.5C 311.131,158.392 314.131,156.226 316.5,153C 317.449,152.383 318.282,152.549 319,153.5C 319.464,152.906 319.631,152.239 319.5,151.5C 323.332,151.81 324.832,150.143 324,146.5C 321.914,142.555 318.747,140.221 314.5,139.5C 315.075,137.589 316.075,135.922 317.5,134.5 Z"/></g>
<g><path style="opacity:1" fill="#bcb25c" d="M 332.5,154.5 C 330.974,155.105 329.974,156.271 329.5,158C 326.502,158.891 323.836,158.391 321.5,156.5C 321.461,155.417 321.127,154.417 320.5,153.5C 322.926,152.832 325.259,152.498 327.5,152.5C 326.038,148.599 326.538,144.932 329,141.5C 334.375,144.866 335.541,149.199 332.5,154.5 Z"/></g>
<g><path style="opacity:1" fill="#a79741" d="M 338.5,148.5 C 339.289,148.783 339.956,149.283 340.5,150C 337.194,153.112 335.361,156.945 335,161.5C 332.281,160.556 329.448,160.223 326.5,160.5C 324.97,161.067 323.47,161.733 322,162.5C 321.667,162.167 321.333,161.833 321,161.5C 318.342,165.857 315.009,168.857 311,170.5C 308.817,174.188 306.15,177.521 303,180.5C 302.667,180.167 302.333,179.833 302,179.5C 301.047,181.455 299.713,183.122 298,184.5C 297.667,184.167 297.333,183.833 297,183.5C 292.022,188.164 287.522,193.164 283.5,198.5C 282.271,199.281 280.938,199.781 279.5,200C 280.641,200.741 280.641,201.575 279.5,202.5C 278.066,203.23 276.9,204.23 276,205.5C 275.086,204.346 274.253,204.513 273.5,206C 274.654,206.914 274.487,207.747 273,208.5C 272.667,208.167 272.333,207.833 272,207.5C 270.165,211.045 267.665,213.211 264.5,214C 264.833,214.333 265.167,214.667 265.5,215C 264.107,217.178 262.44,218.178 260.5,218C 260.957,218.414 261.291,218.914 261.5,219.5C 258.571,221.341 256.071,223.674 254,226.5C 253.667,226.167 253.333,225.833 253,225.5C 251.961,226.71 250.794,227.71 249.5,228.5C 249.267,226.938 248.6,225.605 247.5,224.5C 249.559,221.279 252.392,218.945 256,217.5C 257.113,216.24 257.28,215.073 256.5,214C 257.667,212.833 258.833,211.667 260,210.5C 260.333,210.833 260.667,211.167 261,211.5C 264.514,208.349 268.348,204.849 272.5,201C 272.167,200.667 271.833,200.333 271.5,200C 274.481,199.102 277.147,197.102 279.5,194C 279.167,193.667 278.833,193.333 278.5,193C 279.253,191.513 280.086,191.346 281,192.5C 283.333,190.5 285.667,188.5 288,186.5C 288.333,186.833 288.667,187.167 289,187.5C 295.906,179.583 302.906,171.583 310,163.5C 310.333,163.833 310.667,164.167 311,164.5C 312,163.167 313,161.833 314,160.5C 314.333,160.833 314.667,161.167 315,161.5C 316.782,159.183 318.949,157.516 321.5,156.5C 323.836,158.391 326.502,158.891 329.5,158C 329.974,156.271 330.974,155.105 332.5,154.5C 334.5,152.5 336.5,150.5 338.5,148.5 Z"/></g>
<g><path style="opacity:1" fill="#aea049" d="M 350.5,161.5 C 347.511,164.819 344.178,167.819 340.5,170.5C 337.825,169.149 335.159,168.815 332.5,169.5C 332.863,170.183 333.196,170.85 333.5,171.5C 309.801,193.534 286.135,215.534 262.5,237.5C 261.833,237.167 261.167,236.833 260.5,236.5C 259.719,237.729 259.219,239.062 259,240.5C 258.632,237.435 257.465,234.768 255.5,232.5C 279.799,209.979 303.799,186.979 327.5,163.5C 331.073,166.022 334.573,166.022 338,163.5C 338.718,164.451 339.551,164.617 340.5,164C 342.152,162.53 343.152,160.697 343.5,158.5C 342.447,155.869 341.947,153.202 342,150.5C 345.049,154.043 347.882,157.709 350.5,161.5 Z"/></g>
<g><path style="opacity:1" fill="#c1ba64" d="M 232.5,167.5 C 233.32,169.14 234.153,170.807 235,172.5C 237.697,169.058 240.53,168.391 243.5,170.5C 241.369,176.342 237.369,178.009 231.5,175.5C 227.211,174.751 225.211,172.084 225.5,167.5C 225.215,165.712 225.548,164.045 226.5,162.5C 228.519,164.19 230.519,165.856 232.5,167.5 Z"/></g>
<g><path style="opacity:1" fill="#b1a44e" d="M 333.5,171.5 C 334.488,172.795 335.488,174.128 336.5,175.5C 336.171,178.032 335.005,179.032 333,178.5C 330.59,181.695 327.59,185.028 324,188.5C 323.086,187.346 322.253,187.513 321.5,189C 321.833,189.333 322.167,189.667 322.5,190C 321.5,190.333 320.5,190.667 319.5,191C 319.833,191.333 320.167,191.667 320.5,192C 319.069,192.465 317.903,193.299 317,194.5C 316.667,194.167 316.333,193.833 316,193.5C 315.647,195.074 314.98,196.741 314,198.5C 309.727,200.439 306.394,203.439 304,207.5C 303.667,207.167 303.333,206.833 303,206.5C 299.67,211.166 295.336,215.499 290,219.5C 289.667,219.167 289.333,218.833 289,218.5C 288.803,220.516 287.803,222.516 286,224.5C 284.638,225.925 283.138,226.758 281.5,227C 281.833,227.333 282.167,227.667 282.5,228C 279.208,229.909 276.375,232.409 274,235.5C 273.086,234.346 272.253,234.513 271.5,236C 271.833,236.333 272.167,236.667 272.5,237C 271.5,237.333 270.5,237.667 269.5,238C 269.981,240.978 271.647,242.811 274.5,243.5C 276.945,245.93 278.945,248.596 280.5,251.5C 280.425,254.206 280.092,256.873 279.5,259.5C 275.818,260.275 273.318,258.941 272,255.5C 271.241,251.033 270.241,246.699 269,242.5C 268.02,245.898 266.854,249.231 265.5,252.5C 263.276,253.78 261.276,253.447 259.5,251.5C 258.354,252.145 257.354,252.978 256.5,254C 258.382,254.198 260.048,254.698 261.5,255.5C 258.501,255.167 255.668,255.167 253,255.5C 252.5,255.167 252,254.833 251.5,254.5C 252.59,253.391 252.59,252.391 251.5,251.5C 247.97,252.515 244.803,254.181 242,256.5C 241.626,255.584 241.126,254.75 240.5,254C 237.833,252.667 235.167,251.333 232.5,250C 235.437,248.199 238.437,246.699 241.5,245.5C 244.5,245.5 247.5,245.5 250.5,245.5C 250.334,240.489 250.501,235.489 251,230.5C 251.333,230.167 251.667,229.833 252,229.5C 253.039,230.71 254.206,231.71 255.5,232.5C 257.465,234.768 258.632,237.435 259,240.5C 259.219,239.062 259.719,237.729 260.5,236.5C 261.167,236.833 261.833,237.167 262.5,237.5C 286.135,215.534 309.801,193.534 333.5,171.5 Z"/></g>
<g><path style="opacity:1" fill="#b6ab55" d="M 274.5,243.5 C 271.647,242.811 269.981,240.978 269.5,238C 270.5,237.667 271.5,237.333 272.5,237C 272.167,236.667 271.833,236.333 271.5,236C 272.253,234.513 273.086,234.346 274,235.5C 276.375,232.409 279.208,229.909 282.5,228C 282.167,227.667 281.833,227.333 281.5,227C 283.138,226.758 284.638,225.925 286,224.5C 287.803,222.516 288.803,220.516 289,218.5C 289.333,218.833 289.667,219.167 290,219.5C 295.336,215.499 299.67,211.166 303,206.5C 303.333,206.833 303.667,207.167 304,207.5C 306.394,203.439 309.727,200.439 314,198.5C 314.98,196.741 315.647,195.074 316,193.5C 316.333,193.833 316.667,194.167 317,194.5C 317.903,193.299 319.069,192.465 320.5,192C 320.167,191.667 319.833,191.333 319.5,191C 320.5,190.667 321.5,190.333 322.5,190C 322.167,189.667 321.833,189.333 321.5,189C 322.253,187.513 323.086,187.346 324,188.5C 327.59,185.028 330.59,181.695 333,178.5C 335.005,179.032 336.171,178.032 336.5,175.5C 337.687,174.568 339.02,174.568 340.5,175.5C 341.647,175.182 342.481,174.516 343,173.5C 343.833,175 345,176.167 346.5,177C 344.668,177.748 343.001,178.748 341.5,180C 343.301,180.317 343.634,180.984 342.5,182C 344.919,183.509 345.919,185.675 345.5,188.5C 342.245,188.986 339.578,187.986 337.5,185.5C 336.201,186.09 335.368,187.09 335,188.5C 334.043,186.291 332.876,186.457 331.5,189C 332.167,189.333 332.833,189.667 333.5,190C 330.204,191.763 327.204,193.929 324.5,196.5C 323.614,197.325 323.281,198.325 323.5,199.5C 319.71,199.008 319.044,199.841 321.5,202C 320.551,202.617 319.718,202.451 319,201.5C 318.065,204.102 316.232,205.602 313.5,206C 310.878,208.992 308.211,211.992 305.5,215C 306.167,215.333 306.833,215.667 307.5,216C 302.643,217.059 298.976,219.725 296.5,224C 291.438,226.64 287.605,230.473 285,235.5C 284.667,234.833 284.333,234.167 284,233.5C 282.499,235.369 280.999,237.203 279.5,239C 281.878,239.974 281.544,240.641 278.5,241C 279.833,241.667 279.833,242.333 278.5,243C 276.981,242.669 275.648,242.836 274.5,243.5 Z"/></g>
<g><path style="opacity:1" fill="#bcb35d" d="M 236.5,188.5 C 234.5,188.5 232.5,188.5 230.5,188.5C 230.343,187.127 230.51,185.793 231,184.5C 233.656,182.004 236.656,180.004 240,178.5C 240.522,182.436 239.355,185.769 236.5,188.5 Z"/></g>
<g><path style="opacity:1" fill="#beb660" d="M 225.5,179.5 C 226.836,181.01 228.003,182.677 229,184.5C 229.878,190.661 227.711,191.994 222.5,188.5C 219.9,184.767 218.9,180.767 219.5,176.5C 221.534,177.559 223.534,178.559 225.5,179.5 Z"/></g>
<g><path style="opacity:1" fill="#a08e39" d="M 312.5,147.5 C 314.372,149.604 316.705,150.937 319.5,151.5C 319.631,152.239 319.464,152.906 319,153.5C 318.282,152.549 317.449,152.383 316.5,153C 314.131,156.226 311.131,158.392 307.5,159.5C 306.207,162.66 304.207,165.493 301.5,168C 297.901,170.594 294.567,173.594 291.5,177C 290.552,177.483 289.552,177.649 288.5,177.5C 288.5,178.5 288.5,179.5 288.5,180.5C 287.5,180.5 286.5,180.5 285.5,180.5C 281.841,185.674 277.508,190.507 272.5,195C 271.5,195.333 270.5,195.667 269.5,196C 266.515,200.829 262.515,204.329 257.5,206.5C 257.649,207.552 257.483,208.552 257,209.5C 254.901,212.267 252.234,214.267 249,215.5C 247.579,217.405 246.412,219.405 245.5,221.5C 244.207,222.842 243.374,224.509 243,226.5C 242.824,229.882 242.324,233.215 241.5,236.5C 235.956,234.382 230.29,234.048 224.5,235.5C 226.167,237.5 227.833,239.5 229.5,241.5C 226.721,242.673 226.054,244.507 227.5,247C 225.866,247.494 224.199,247.66 222.5,247.5C 220.975,245.784 219.975,243.784 219.5,241.5C 220.982,241.876 222.315,241.876 223.5,241.5C 220.783,236.733 218.616,231.733 217,226.5C 216.257,224.126 216.757,222.126 218.5,220.5C 220.945,224.447 223.945,227.947 227.5,231C 232.227,232.279 234.727,230.445 235,225.5C 238.182,226.748 240.515,225.748 242,222.5C 242.755,218.745 242.589,215.078 241.5,211.5C 263.597,192.572 284.931,172.739 305.5,152C 307.974,149.889 310.307,148.389 312.5,147.5 Z"/></g>
<g><path style="opacity:1" fill="#bab059" d="M 350.5,161.5 C 354.101,166.261 356.768,171.595 358.5,177.5C 357.433,182.134 355.433,186.301 352.5,190C 350.899,190.273 349.399,190.773 348,191.5C 347.577,190.044 346.744,189.544 345.5,190C 346.013,193.318 346.513,196.818 347,200.5C 345.224,201.536 343.391,201.536 341.5,200.5C 339.732,197.458 338.566,194.125 338,190.5C 335.558,194.145 332.725,197.478 329.5,200.5C 320.385,208.444 311.385,216.61 302.5,225C 303.749,226.824 304.915,226.657 306,224.5C 306.951,224.884 307.784,225.217 308.5,225.5C 308.918,226.222 309.584,226.722 310.5,227C 308.431,227.324 308.098,228.158 309.5,229.5C 309.192,230.308 308.692,230.975 308,231.5C 306.667,231.5 305.333,231.5 304,231.5C 302.786,233.049 301.286,234.215 299.5,235C 300.167,235.667 300.833,236.333 301.5,237C 299.308,239.954 296.808,241.12 294,240.5C 291.892,242.807 290.559,245.14 290,247.5C 289.333,246.833 288.667,246.167 288,245.5C 286.68,247.817 285.014,249.817 283,251.5C 282.023,250.226 281.189,250.226 280.5,251.5C 278.945,248.596 276.945,245.93 274.5,243.5C 275.648,242.836 276.981,242.669 278.5,243C 279.833,242.333 279.833,241.667 278.5,241C 281.544,240.641 281.878,239.974 279.5,239C 280.999,237.203 282.499,235.369 284,233.5C 284.333,234.167 284.667,234.833 285,235.5C 287.605,230.473 291.438,226.64 296.5,224C 298.976,219.725 302.643,217.059 307.5,216C 306.833,215.667 306.167,215.333 305.5,215C 308.211,211.992 310.878,208.992 313.5,206C 316.232,205.602 318.065,204.102 319,201.5C 319.718,202.451 320.551,202.617 321.5,202C 319.044,199.841 319.71,199.008 323.5,199.5C 323.281,198.325 323.614,197.325 324.5,196.5C 327.204,193.929 330.204,191.763 333.5,190C 332.833,189.667 332.167,189.333 331.5,189C 332.876,186.457 334.043,186.291 335,188.5C 335.368,187.09 336.201,186.09 337.5,185.5C 339.578,187.986 342.245,188.986 345.5,188.5C 345.919,185.675 344.919,183.509 342.5,182C 343.634,180.984 343.301,180.317 341.5,180C 343.001,178.748 344.668,177.748 346.5,177C 345,176.167 343.833,175 343,173.5C 342.481,174.516 341.647,175.182 340.5,175.5C 339.02,174.568 337.687,174.568 336.5,175.5C 335.488,174.128 334.488,172.795 333.5,171.5C 333.196,170.85 332.863,170.183 332.5,169.5C 335.159,168.815 337.825,169.149 340.5,170.5C 344.178,167.819 347.511,164.819 350.5,161.5 Z"/></g>
<g><path style="opacity:1" fill="#bdb55f" d="M 333.5,138.5 C 347.261,147.598 356.928,159.931 362.5,175.5C 362.349,178.718 361.516,179.051 360,176.5C 362.539,185.189 361.539,193.523 357,201.5C 354.551,203.613 351.885,203.946 349,202.5C 347.598,203.645 346.431,204.978 345.5,206.5C 343.674,204.853 342.34,202.853 341.5,200.5C 343.391,201.536 345.224,201.536 347,200.5C 346.513,196.818 346.013,193.318 345.5,190C 346.744,189.544 347.577,190.044 348,191.5C 349.399,190.773 350.899,190.273 352.5,190C 355.433,186.301 357.433,182.134 358.5,177.5C 356.768,171.595 354.101,166.261 350.5,161.5C 347.882,157.709 345.049,154.043 342,150.5C 341.947,153.202 342.447,155.869 343.5,158.5C 343.152,160.697 342.152,162.53 340.5,164C 339.551,164.617 338.718,164.451 338,163.5C 334.573,166.022 331.073,166.022 327.5,163.5C 326.89,162.609 326.557,161.609 326.5,160.5C 329.448,160.223 332.281,160.556 335,161.5C 335.361,156.945 337.194,153.112 340.5,150C 339.956,149.283 339.289,148.783 338.5,148.5C 335.833,145.833 333.167,143.167 330.5,140.5C 331.222,139.449 332.222,138.782 333.5,138.5 Z"/></g>
<g><path style="opacity:1" fill="#bab05a" d="M 236.5,188.5 C 238.344,190.279 239.01,192.612 238.5,195.5C 237.078,199.72 234.078,201.72 229.5,201.5C 229.5,199.833 229.5,198.167 229.5,196.5C 231.146,193.19 233.48,190.523 236.5,188.5 Z"/></g>
<g><path style="opacity:0.998" fill="#9f8c38" d="M 225.5,167.5 C 225.211,172.084 227.211,174.751 231.5,175.5C 229.272,176.377 227.272,177.71 225.5,179.5C 223.534,178.559 221.534,177.559 219.5,176.5C 218.9,180.767 219.9,184.767 222.5,188.5C 221.5,188.833 220.833,189.5 220.5,190.5C 219.518,189.859 218.518,189.193 217.5,188.5C 216.614,189.325 216.281,190.325 216.5,191.5C 215.292,192.234 213.959,192.567 212.5,192.5C 212.664,189.813 212.497,187.146 212,184.5C 210.879,190.203 211.046,196.037 212.5,202C 209.827,205.915 209.827,210.581 212.5,216C 211.605,219.095 211.605,222.262 212.5,225.5C 207.111,209.262 207.278,192.928 213,176.5C 214.751,171.326 217.251,166.659 220.5,162.5C 222.106,161.22 223.106,161.72 223.5,164C 220.98,167.524 219.48,171.357 219,175.5C 221.428,172.936 223.595,170.27 225.5,167.5 Z"/></g>
<g><path style="opacity:1" fill="#bbb25c" d="M 220.5,190.5 C 223.167,192.5 225.5,194.833 227.5,197.5C 228.447,203.349 226.114,204.849 220.5,202C 218.278,198.832 216.944,195.332 216.5,191.5C 216.281,190.325 216.614,189.325 217.5,188.5C 218.518,189.193 219.518,189.859 220.5,190.5 Z"/></g>
<g><path style="opacity:0.938" fill="#d2d27f" d="M 362.5,175.5 C 364.753,180.157 366.253,185.157 367,190.5C 367.822,198.345 367.656,206.011 366.5,213.5C 366.591,205.919 364.425,204.919 360,210.5C 359.996,208.632 360.496,206.798 361.5,205C 361.167,204.5 360.833,204 360.5,203.5C 357.659,204.975 354.659,206.141 351.5,207C 349.43,207.948 347.93,209.448 347,211.5C 346.648,209.753 346.148,208.086 345.5,206.5C 346.431,204.978 347.598,203.645 349,202.5C 351.885,203.946 354.551,203.613 357,201.5C 361.539,193.523 362.539,185.189 360,176.5C 361.516,179.051 362.349,178.718 362.5,175.5 Z"/></g>
<g><path style="opacity:1" fill="#bab05a" d="M 228.5,209.5 C 229.537,211.738 229.703,214.071 229,216.5C 227.644,217.38 226.144,217.714 224.5,217.5C 219.373,214.25 216.54,209.583 216,203.5C 220.513,204.84 224.68,206.84 228.5,209.5 Z"/></g>
<g><path style="opacity:1" fill="#b9af58" d="M 239.5,201.5 C 240.1,205.516 239.1,209.016 236.5,212C 232.242,214.639 230.242,213.472 230.5,208.5C 232.243,205.25 234.577,202.416 237.5,200C 238.816,199.472 239.483,199.972 239.5,201.5 Z"/></g>
<g><path style="opacity:1" fill="#aa9a44" d="M 326.5,160.5 C 326.557,161.609 326.89,162.609 327.5,163.5C 303.799,186.979 279.799,209.979 255.5,232.5C 254.206,231.71 253.039,230.71 252,229.5C 251.667,229.833 251.333,230.167 251,230.5C 250.501,235.489 250.334,240.489 250.5,245.5C 247.5,245.5 244.5,245.5 241.5,245.5C 242.685,244.143 243.685,242.643 244.5,241C 243.813,239.838 243.647,238.672 244,237.5C 246.488,238.412 248.155,237.412 249,234.5C 249.495,232.527 249.662,230.527 249.5,228.5C 250.794,227.71 251.961,226.71 253,225.5C 253.333,225.833 253.667,226.167 254,226.5C 256.071,223.674 258.571,221.341 261.5,219.5C 261.291,218.914 260.957,218.414 260.5,218C 262.44,218.178 264.107,217.178 265.5,215C 265.167,214.667 264.833,214.333 264.5,214C 267.665,213.211 270.165,211.045 272,207.5C 272.333,207.833 272.667,208.167 273,208.5C 274.487,207.747 274.654,206.914 273.5,206C 274.253,204.513 275.086,204.346 276,205.5C 276.9,204.23 278.066,203.23 279.5,202.5C 280.641,201.575 280.641,200.741 279.5,200C 280.938,199.781 282.271,199.281 283.5,198.5C 287.522,193.164 292.022,188.164 297,183.5C 297.333,183.833 297.667,184.167 298,184.5C 299.713,183.122 301.047,181.455 302,179.5C 302.333,179.833 302.667,180.167 303,180.5C 306.15,177.521 308.817,174.188 311,170.5C 315.009,168.857 318.342,165.857 321,161.5C 321.333,161.833 321.667,162.167 322,162.5C 323.47,161.733 324.97,161.067 326.5,160.5 Z"/></g>
<g><path style="opacity:1" fill="#b7ac56" d="M 241.5,211.5 C 242.589,215.078 242.755,218.745 242,222.5C 240.515,225.748 238.182,226.748 235,225.5C 234.727,230.445 232.227,232.279 227.5,231C 223.945,227.947 220.945,224.447 218.5,220.5C 219.552,218.744 221.219,218.077 223.5,218.5C 227.365,219.697 230.865,221.697 234,224.5C 234.432,218.969 236.932,214.636 241.5,211.5 Z"/></g>
<g><path style="opacity:1" fill="#bbb25b" d="M 341.5,200.5 C 342.34,202.853 343.674,204.853 345.5,206.5C 346.148,208.086 346.648,209.753 347,211.5C 347.93,209.448 349.43,207.948 351.5,207C 354.659,206.141 357.659,204.975 360.5,203.5C 360.833,204 361.167,204.5 361.5,205C 360.496,206.798 359.996,208.632 360,210.5C 364.425,204.919 366.591,205.919 366.5,213.5C 364.715,229.397 358.382,243.063 347.5,254.5C 346.782,252.863 346.616,251.197 347,249.5C 350,245.167 353,240.833 356,236.5C 357.721,233.685 358.388,230.685 358,227.5C 356.829,228.893 355.329,229.727 353.5,230C 354.061,231.566 353.394,232.899 351.5,234C 347.848,234.499 344.182,234.665 340.5,234.5C 341.167,232.833 341.833,231.167 342.5,229.5C 347.031,231.325 350.864,230.325 354,226.5C 355.544,224.532 356.711,222.365 357.5,220C 354.843,219.825 352.176,219.992 349.5,220.5C 351.019,219.59 352.685,218.757 354.5,218C 349.929,218.634 347.096,216.801 346,212.5C 344.989,213.337 343.822,213.67 342.5,213.5C 340.897,212.404 339.397,211.07 338,209.5C 337.667,206.167 337.333,202.833 337,199.5C 336.363,201.303 335.197,202.636 333.5,203.5C 333.709,204.086 334.043,204.586 334.5,205C 333.299,205.903 332.465,207.069 332,208.5C 331.667,207.833 331.333,207.167 331,206.5C 330.333,207.833 329.667,207.833 329,206.5C 327.992,208.259 326.492,209.426 324.5,210C 325.167,210.667 325.833,211.333 326.5,212C 325.167,212.667 323.833,213.333 322.5,214C 323.727,215.587 323.394,216.921 321.5,218C 319.295,219.077 317.295,219.743 315.5,220C 315.833,220.333 316.167,220.667 316.5,221C 315.36,222.973 314.027,224.807 312.5,226.5C 311.272,224.824 309.939,224.491 308.5,225.5C 307.784,225.217 306.951,224.884 306,224.5C 304.915,226.657 303.749,226.824 302.5,225C 311.385,216.61 320.385,208.444 329.5,200.5C 332.725,197.478 335.558,194.145 338,190.5C 338.566,194.125 339.732,197.458 341.5,200.5 Z"/></g>
<g><path style="opacity:1" fill="#d5d785" d="M 349.5,220.5 C 346.805,220.933 344.638,222.266 343,224.5C 342.586,220.346 341.086,216.679 338.5,213.5C 339.833,213.5 341.167,213.5 342.5,213.5C 343.822,213.67 344.989,213.337 346,212.5C 347.096,216.801 349.929,218.634 354.5,218C 352.685,218.757 351.019,219.59 349.5,220.5 Z"/></g>
<g><path style="opacity:1" fill="#afa14b" d="M 338.5,213.5 C 341.086,216.679 342.586,220.346 343,224.5C 344.638,222.266 346.805,220.933 349.5,220.5C 352.176,219.992 354.843,219.825 357.5,220C 356.711,222.365 355.544,224.532 354,226.5C 350.864,230.325 347.031,231.325 342.5,229.5C 341.596,228.791 341.263,227.791 341.5,226.5C 337.763,226.759 335.43,225.093 334.5,221.5C 334.18,218.102 334.513,214.768 335.5,211.5C 336.518,212.193 337.518,212.859 338.5,213.5 Z"/></g>
<g><path style="opacity:0.997" fill="#b0a24c" d="M 340.5,234.5 C 344.182,234.665 347.848,234.499 351.5,234C 353.394,232.899 354.061,231.566 353.5,230C 355.329,229.727 356.829,228.893 358,227.5C 358.388,230.685 357.721,233.685 356,236.5C 353,240.833 350,245.167 347,249.5C 346.616,251.197 346.782,252.863 347.5,254.5C 344.833,257.833 341.833,260.833 338.5,263.5C 338.291,262.078 337.791,260.745 337,259.5C 336.261,260.574 335.261,261.241 334,261.5C 330.38,259.274 326.547,257.44 322.5,256C 319.445,255.366 316.445,255.532 313.5,256.5C 313.611,255.883 313.944,255.383 314.5,255C 317.146,254.503 319.813,254.336 322.5,254.5C 322.587,248.086 325.92,245.086 332.5,245.5C 332.5,243.167 332.5,240.833 332.5,238.5C 329.708,238.548 327.875,237.215 327,234.5C 326.667,237.5 326.333,240.5 326,243.5C 321.218,248.007 318.718,246.841 318.5,240C 319.366,234.789 322.199,230.956 327,228.5C 327.673,225.192 329.506,223.358 332.5,223C 334.369,226.967 335.702,231.134 336.5,235.5C 337.736,234.754 339.07,234.421 340.5,234.5 Z"/></g>
<g><path style="opacity:1" fill="#c1b964" d="M 342.5,213.5 C 341.167,213.5 339.833,213.5 338.5,213.5C 337.518,212.859 336.518,212.193 335.5,211.5C 334.513,214.768 334.18,218.102 334.5,221.5C 333.698,220.048 333.198,218.382 333,216.5C 332.667,217.5 332.333,218.5 332,219.5C 331.667,219.167 331.333,218.833 331,218.5C 329.786,220.049 328.286,221.215 326.5,222C 327.167,222.333 327.833,222.667 328.5,223C 326.376,224.122 324.543,225.622 323,227.5C 321.927,226.72 320.76,226.887 319.5,228C 320.167,228.333 320.833,228.667 321.5,229C 320.167,230.333 318.833,231.667 317.5,233C 316.551,233.617 315.718,233.451 315,232.5C 314.876,234.426 314.042,236.259 312.5,238C 310.939,238.318 309.772,239.151 309,240.5C 308.667,240.167 308.333,239.833 308,239.5C 307.821,243.025 307.321,246.359 306.5,249.5C 306.808,247.076 306.474,244.743 305.5,242.5C 297.662,245.838 294.996,251.505 297.5,259.5C 296.5,259.5 295.5,259.5 294.5,259.5C 294.649,260.552 294.483,261.552 294,262.5C 288.616,266.464 283.783,270.964 279.5,276C 284.202,276.828 288.869,276.662 293.5,275.5C 295.415,273.929 296.415,271.929 296.5,269.5C 300.199,272.676 304.532,274.176 309.5,274C 305.377,275.192 301.377,276.359 297.5,277.5C 286.962,278.07 276.628,277.07 266.5,274.5C 269.305,273.681 272.305,273.181 275.5,273C 280.555,270.28 281.555,266.614 278.5,262C 274.739,261.262 271.072,261.595 267.5,263C 264.271,265.741 260.938,268.241 257.5,270.5C 254.558,269.696 251.891,268.362 249.5,266.5C 253.761,265.874 258.094,265.041 262.5,264C 265.346,260.742 265.013,257.908 261.5,255.5C 260.048,254.698 258.382,254.198 256.5,254C 257.354,252.978 258.354,252.145 259.5,251.5C 261.276,253.447 263.276,253.78 265.5,252.5C 266.854,249.231 268.02,245.898 269,242.5C 270.241,246.699 271.241,251.033 272,255.5C 273.318,258.941 275.818,260.275 279.5,259.5C 280.092,256.873 280.425,254.206 280.5,251.5C 281.189,250.226 282.023,250.226 283,251.5C 285.014,249.817 286.68,247.817 288,245.5C 288.667,246.167 289.333,246.833 290,247.5C 290.559,245.14 291.892,242.807 294,240.5C 296.808,241.12 299.308,239.954 301.5,237C 300.833,236.333 300.167,235.667 299.5,235C 301.286,234.215 302.786,233.049 304,231.5C 305.333,231.5 306.667,231.5 308,231.5C 308.692,230.975 309.192,230.308 309.5,229.5C 308.098,228.158 308.431,227.324 310.5,227C 309.584,226.722 308.918,226.222 308.5,225.5C 309.939,224.491 311.272,224.824 312.5,226.5C 314.027,224.807 315.36,222.973 316.5,221C 316.167,220.667 315.833,220.333 315.5,220C 317.295,219.743 319.295,219.077 321.5,218C 323.394,216.921 323.727,215.587 322.5,214C 323.833,213.333 325.167,212.667 326.5,212C 325.833,211.333 325.167,210.667 324.5,210C 326.492,209.426 327.992,208.259 329,206.5C 329.667,207.833 330.333,207.833 331,206.5C 331.333,207.167 331.667,207.833 332,208.5C 332.465,207.069 333.299,205.903 334.5,205C 334.043,204.586 333.709,204.086 333.5,203.5C 335.197,202.636 336.363,201.303 337,199.5C 337.333,202.833 337.667,206.167 338,209.5C 339.397,211.07 340.897,212.404 342.5,213.5 Z"/></g>
<g><path style="opacity:1" fill="#cfcd79" d="M 334.5,221.5 C 335.43,225.093 337.763,226.759 341.5,226.5C 341.263,227.791 341.596,228.791 342.5,229.5C 341.833,231.167 341.167,232.833 340.5,234.5C 339.07,234.421 337.736,234.754 336.5,235.5C 335.702,231.134 334.369,226.967 332.5,223C 329.506,223.358 327.673,225.192 327,228.5C 322.199,230.956 319.366,234.789 318.5,240C 318.718,246.841 321.218,248.007 326,243.5C 326.333,240.5 326.667,237.5 327,234.5C 327.875,237.215 329.708,238.548 332.5,238.5C 332.5,240.833 332.5,243.167 332.5,245.5C 325.92,245.086 322.587,248.086 322.5,254.5C 319.813,254.336 317.146,254.503 314.5,255C 313.944,255.383 313.611,255.883 313.5,256.5C 311.793,258.7 309.627,260.366 307,261.5C 305.189,260.922 303.355,260.422 301.5,260C 304.229,256.969 305.895,253.469 306.5,249.5C 307.321,246.359 307.821,243.025 308,239.5C 308.333,239.833 308.667,240.167 309,240.5C 309.772,239.151 310.939,238.318 312.5,238C 314.042,236.259 314.876,234.426 315,232.5C 315.718,233.451 316.551,233.617 317.5,233C 318.833,231.667 320.167,230.333 321.5,229C 320.833,228.667 320.167,228.333 319.5,228C 320.76,226.887 321.927,226.72 323,227.5C 324.543,225.622 326.376,224.122 328.5,223C 327.833,222.667 327.167,222.333 326.5,222C 328.286,221.215 329.786,220.049 331,218.5C 331.333,218.833 331.667,219.167 332,219.5C 332.333,218.5 332.667,217.5 333,216.5C 333.198,218.382 333.698,220.048 334.5,221.5 Z"/></g>
<g><path style="opacity:1" fill="#afa04a" d="M 315.5,236.5 C 316.805,238.397 317.471,240.731 317.5,243.5C 317.333,245.833 317.167,248.167 317,250.5C 315.174,254.037 312.84,254.371 310,251.5C 309.183,248.036 309.517,244.702 311,241.5C 312.707,239.963 314.207,238.296 315.5,236.5 Z"/></g>
<g><path style="opacity:1" fill="#afa24c" d="M 245.5,221.5 C 246.167,222.5 246.833,223.5 247.5,224.5C 248.6,225.605 249.267,226.938 249.5,228.5C 249.662,230.527 249.495,232.527 249,234.5C 248.155,237.412 246.488,238.412 244,237.5C 243.647,238.672 243.813,239.838 244.5,241C 243.685,242.643 242.685,244.143 241.5,245.5C 238.437,246.699 235.437,248.199 232.5,250C 235.167,251.333 237.833,252.667 240.5,254C 241.126,254.75 241.626,255.584 242,256.5C 244.803,254.181 247.97,252.515 251.5,251.5C 252.59,252.391 252.59,253.391 251.5,254.5C 252,254.833 252.5,255.167 253,255.5C 255.668,255.167 258.501,255.167 261.5,255.5C 265.013,257.908 265.346,260.742 262.5,264C 258.094,265.041 253.761,265.874 249.5,266.5C 241.698,262.38 235.032,256.714 229.5,249.5C 228.833,249.167 228.167,248.833 227.5,248.5C 226.287,248.747 225.62,249.414 225.5,250.5C 224.167,249.833 223.167,248.833 222.5,247.5C 224.199,247.66 225.866,247.494 227.5,247C 226.054,244.507 226.721,242.673 229.5,241.5C 227.833,239.5 226.167,237.5 224.5,235.5C 230.29,234.048 235.956,234.382 241.5,236.5C 242.324,233.215 242.824,229.882 243,226.5C 243.374,224.509 244.207,222.842 245.5,221.5 Z"/></g>
<g><path style="opacity:1" fill="#927d2c" d="M 249.5,266.5 C 251.891,268.362 254.558,269.696 257.5,270.5C 260.18,272.273 263.18,273.607 266.5,274.5C 276.628,277.07 286.962,278.07 297.5,277.5C 301.361,278.541 301.361,279.541 297.5,280.5C 267.975,283.737 243.975,273.737 225.5,250.5C 225.62,249.414 226.287,248.747 227.5,248.5C 228.167,248.833 228.833,249.167 229.5,249.5C 235.032,256.714 241.698,262.38 249.5,266.5 Z"/></g>
<g><path style="opacity:1" fill="#ac9e48" d="M 266.5,274.5 C 263.18,273.607 260.18,272.273 257.5,270.5C 260.938,268.241 264.271,265.741 267.5,263C 271.072,261.595 274.739,261.262 278.5,262C 281.555,266.614 280.555,270.28 275.5,273C 272.305,273.181 269.305,273.681 266.5,274.5 Z"/></g>
<g><path style="opacity:1" fill="#ab9b45" d="M 306.5,249.5 C 305.895,253.469 304.229,256.969 301.5,260C 303.355,260.422 305.189,260.922 307,261.5C 309.627,260.366 311.793,258.7 313.5,256.5C 316.445,255.532 319.445,255.366 322.5,256C 326.547,257.44 330.38,259.274 334,261.5C 335.261,261.241 336.261,260.574 337,259.5C 337.791,260.745 338.291,262.078 338.5,263.5C 326.619,273.268 312.952,278.935 297.5,280.5C 301.361,279.541 301.361,278.541 297.5,277.5C 301.377,276.359 305.377,275.192 309.5,274C 304.532,274.176 300.199,272.676 296.5,269.5C 294.669,265.947 295.335,263.114 298.5,261C 297.944,260.617 297.611,260.117 297.5,259.5C 294.996,251.505 297.662,245.838 305.5,242.5C 306.474,244.743 306.808,247.076 306.5,249.5 Z"/></g>
<g><path style="opacity:1" fill="#d5d684" d="M 297.5,259.5 C 297.611,260.117 297.944,260.617 298.5,261C 295.335,263.114 294.669,265.947 296.5,269.5C 296.415,271.929 295.415,273.929 293.5,275.5C 288.869,276.662 284.202,276.828 279.5,276C 283.783,270.964 288.616,266.464 294,262.5C 294.483,261.552 294.649,260.552 294.5,259.5C 295.5,259.5 296.5,259.5 297.5,259.5 Z"/></g>
</svg>
