<?xml version="1.0" encoding="UTF-8"?>
<!DOCTYPE svg PUBLIC "-//W3C//DTD SVG 1.1//EN" "http://www.w3.org/Graphics/SVG/1.1/DTD/svg11.dtd">
<svg xmlns="http://www.w3.org/2000/svg" version="1.1" width="512px" height="512px" style="shape-rendering:geometricPrecision; text-rendering:geometricPrecision; image-rendering:optimizeQuality; fill-rule:evenodd; clip-rule:evenodd" xmlns:xlink="http://www.w3.org/1999/xlink">
<g><path style="opacity:0.992" fill="#f14335" d="M 233.5,-0.5 C 248.5,-0.5 263.5,-0.5 278.5,-0.5C 331.078,5.07736 377.912,24.4107 419,57.5C 419.667,58.1667 419.667,58.8333 419,59.5C 391.322,81.8471 363.656,104.18 336,126.5C 277.233,93.9493 220.066,96.4493 164.5,134C 140.053,153.27 122.387,177.437 111.5,206.5C 83.5396,183.511 55.5396,160.511 27.5,137.5C 72.5893,56.6014 141.256,10.6014 233.5,-0.5 Z"/></g>
<g><path style="opacity:0.994" fill="#faba00" d="M 27.5,137.5 C 55.5396,160.511 83.5396,183.511 111.5,206.5C 100.377,240.763 101.044,274.763 113.5,308.5C 85.7896,331.546 57.7896,354.212 29.5,376.5C 12.8395,345.853 2.83946,313.186 -0.5,278.5C -0.5,263.167 -0.5,247.833 -0.5,232.5C 3.07186,199.227 12.4052,167.561 27.5,137.5 Z"/></g>
<g><path style="opacity:0.993" fill="#518ef7" d="M 511.5,232.5 C 511.5,247.833 511.5,263.167 511.5,278.5C 503.525,350.74 471.525,409.74 415.5,455.5C 388.018,432.262 360.351,409.262 332.5,386.5C 362.549,368.114 383.882,342.448 396.5,309.5C 351.167,309.5 305.833,309.5 260.5,309.5C 260.5,275.5 260.5,241.5 260.5,207.5C 342.833,207.5 425.167,207.5 507.5,207.5C 508.85,215.963 510.183,224.296 511.5,232.5 Z"/></g>
<g><path style="opacity:0.994" fill="#28b346" d="M 113.5,308.5 C 130.343,351.51 160.343,381.343 203.5,398C 248.233,413.078 291.233,409.245 332.5,386.5C 360.351,409.262 388.018,432.262 415.5,455.5C 375.497,487.657 329.831,506.323 278.5,511.5C 263.5,511.5 248.5,511.5 233.5,511.5C 155.948,502.981 93.7811,467.647 47,405.5C 40.5162,396.193 34.6829,386.526 29.5,376.5C 57.7896,354.212 85.7896,331.546 113.5,308.5 Z"/></g>
</svg>
