<?xml version="1.0" encoding="UTF-8"?>
<!DOCTYPE svg PUBLIC "-//W3C//DTD SVG 1.1//EN" "http://www.w3.org/Graphics/SVG/1.1/DTD/svg11.dtd">
<svg xmlns="http://www.w3.org/2000/svg" version="1.1" width="512px" height="512px" style="shape-rendering:geometricPrecision; text-rendering:geometricPrecision; image-rendering:optimizeQuality; fill-rule:evenodd; clip-rule:evenodd" xmlns:xlink="http://www.w3.org/1999/xlink">
<g><path style="opacity:0.996" fill="#feea3a" d="M 232.5,-0.5 C 247.833,-0.5 263.167,-0.5 278.5,-0.5C 368.144,10.3879 435.644,54.7213 481,132.5C 497.695,163.971 507.861,197.304 511.5,232.5C 511.5,247.833 511.5,263.167 511.5,278.5C 500.612,368.144 456.279,435.644 378.5,481C 347.029,497.695 313.696,507.861 278.5,511.5C 263.167,511.5 247.833,511.5 232.5,511.5C 142.856,500.612 75.3562,456.279 30,378.5C 13.3053,347.029 3.1386,313.696 -0.5,278.5C -0.5,263.167 -0.5,247.833 -0.5,232.5C 10.3875,142.857 54.7208,75.3573 132.5,30C 163.971,13.3053 197.304,3.1386 232.5,-0.5 Z"/></g>
<g><path style="opacity:1" fill="#3e2723" d="M 243.5,123.5 C 291.456,121.064 334.456,134.23 372.5,163C 415.585,200.429 425.751,245.262 403,297.5C 385.09,327.719 359.59,348.886 326.5,361C 293.73,372.382 260.064,376.382 225.5,373C 205.316,388.177 184.316,402.177 162.5,415C 160.246,416.15 157.913,416.484 155.5,416C 154.378,412.591 154.211,409.091 155,405.5C 159.855,388.751 165.021,372.084 170.5,355.5C 144.947,342.458 124.447,323.792 109,299.5C 85.0493,246.793 94.8826,201.293 138.5,163C 169.477,139.064 204.477,125.898 243.5,123.5 Z"/></g>
<g><path style="opacity:1" fill="#fce83a" d="M 139.5,211.5 C 158.568,211.038 177.568,211.538 196.5,213C 200.47,217.798 200.47,222.632 196.5,227.5C 195.205,228.098 193.872,228.598 192.5,229C 186.843,229.499 181.176,229.666 175.5,229.5C 175.976,247.835 176.143,266.169 176,284.5C 174.122,291.526 169.622,294.026 162.5,292C 160.106,290.048 158.606,287.548 158,284.5C 158.148,266.175 158.314,247.842 158.5,229.5C 151.716,229.92 145.05,229.42 138.5,228C 132.945,222.078 133.278,216.578 139.5,211.5 Z"/></g>
<g><path style="opacity:1" fill="#fce83a" d="M 217.5,211.5 C 224.851,210.352 230.351,213.019 234,219.5C 241.274,239.989 248.94,260.322 257,280.5C 258.865,288.425 255.698,292.425 247.5,292.5C 245.701,292.423 244.034,291.923 242.5,291C 239.598,286.631 237.264,281.965 235.5,277C 226.167,276.333 216.833,276.333 207.5,277C 205.866,282.604 203.199,287.604 199.5,292C 188.438,293.937 184.272,289.437 187,278.5C 195,257.833 203,237.167 211,216.5C 212.965,214.45 215.132,212.783 217.5,211.5 Z"/></g>
<g><path style="opacity:1" fill="#f8e43a" d="M 267.5,211.5 C 273.59,210.137 278.09,212.137 281,217.5C 281.5,236.497 281.667,255.497 281.5,274.5C 289.917,274.094 298.251,274.594 306.5,276C 311.34,282.621 310.006,287.621 302.5,291C 290.833,291.667 279.167,291.667 267.5,291C 264.215,289.199 262.381,286.365 262,282.5C 261.811,260.498 262.144,238.498 263,216.5C 264.025,214.313 265.525,212.646 267.5,211.5 Z"/></g>
<g><path style="opacity:1" fill="#fce83a" d="M 318.5,211.5 C 324.392,210.073 328.559,212.073 331,217.5C 331.333,224.833 331.667,232.167 332,239.5C 340.5,231 349,222.5 357.5,214C 366.968,211.135 371.468,214.635 371,224.5C 363.319,232.014 355.819,239.681 348.5,247.5C 356.333,257.833 364.167,268.167 372,278.5C 373.501,289.336 369.001,293.503 358.5,291C 350.61,280.704 342.61,270.537 334.5,260.5C 333.522,260.977 332.689,261.643 332,262.5C 331.911,271.242 331.244,279.909 330,288.5C 321.074,295.302 315.407,293.302 313,282.5C 313,260.503 313.333,238.503 314,216.5C 315.025,214.313 316.525,212.646 318.5,211.5 Z"/></g>
<g><path style="opacity:1" fill="#432c24" d="M 229.5,257.5 C 227.257,258.812 224.59,259.478 221.5,259.5C 218.645,259.497 215.978,259.164 213.5,258.5C 215.84,250.313 218.673,242.313 222,234.5C 224.611,242.165 227.111,249.832 229.5,257.5 Z"/></g>
<g><path style="opacity:1" fill="#7c652a" d="M 229.5,257.5 C 230.404,258.209 230.737,259.209 230.5,260.5C 224.463,260.829 218.463,260.496 212.5,259.5C 212.624,258.893 212.957,258.56 213.5,258.5C 215.978,259.164 218.645,259.497 221.5,259.5C 224.59,259.478 227.257,258.812 229.5,257.5 Z"/></g>
</svg>
