<!DOCTYPE svg PUBLIC "-//W3C//DTD SVG 1.1//EN" "http://www.w3.org/Graphics/SVG/1.1/DTD/svg11.dtd"[]><svg xmlns="http://www.w3.org/2000/svg" version="1.1" width="200" height="50" style="shape-rendering:geometricPrecision; text-rendering:geometricPrecision; image-rendering:optimizeQuality; fill-rule:evenodd; clip-rule:evenodd" xmlns:xlink="http://www.w3.org/1999/xlink" ><g><path style="opacity:1" fill="#11499b" d="M 275.5,90.5 C 277.833,90.5 280.167,90.5 282.5,90.5C 282.963,93.4824 283.296,96.4824 283.5,99.5C 283.5,100.833 283.5,102.167 283.5,103.5C 280.941,103.802 278.607,103.468 276.5,102.5C 276.495,98.4659 276.162,94.4659 275.5,90.5 Z" /></g><g><path style="opacity:1" fill="#f8f5f5" d="M 282.5,90.5 C 284.833,90.5 287.167,90.5 289.5,90.5C 290.681,94.7426 291.348,99.076 291.5,103.5C 291.5,103.833 291.5,104.167 291.5,104.5C 289.167,104.5 286.833,104.5 284.5,104.5C 284.784,102.585 284.451,100.919 283.5,99.5C 283.296,96.4824 282.963,93.4824 282.5,90.5 Z" /></g><g><path style="opacity:1" fill="#be0201" d="M 289.5,90.5 C 292.167,90.5 294.833,90.5 297.5,90.5C 298.2,94.7978 298.533,99.1311 298.5,103.5C 296.167,103.5 293.833,103.5 291.5,103.5C 291.348,99.076 290.681,94.7426 289.5,90.5 Z" /></g><g><path style="opacity:1" fill="#a91e16" d="M 297.5,90.5 C 298.5,90.5 299.5,90.5 300.5,90.5C 300.5,92.8333 300.5,95.1667 300.5,97.5C 300.5,98.5 300.5,99.5 300.5,100.5C 299.596,101.209 299.263,102.209 299.5,103.5C 299.5,104.167 299.167,104.5 298.5,104.5C 296.167,104.5 293.833,104.5 291.5,104.5C 291.5,104.167 291.5,103.833 291.5,103.5C 293.833,103.5 296.167,103.5 298.5,103.5C 298.533,99.1311 298.2,94.7978 297.5,90.5 Z" /></g><g><path style="opacity:0.294" fill="#d67b77" d="M 300.5,90.5 C 301.239,90.369 301.906,90.5357 302.5,91C 301.883,93.277 301.216,95.4437 300.5,97.5C 300.5,95.1667 300.5,92.8333 300.5,90.5 Z" /></g><g><path style="opacity:0.714" fill="#7094ce" d="M 275.5,90.5 C 276.162,94.4659 276.495,98.4659 276.5,102.5C 276.167,102.5 275.833,102.5 275.5,102.5C 274.968,98.3065 274.968,94.3065 275.5,90.5 Z" /></g><g><path style="opacity:0.357" fill="#a4a0a0" d="M 300.5,100.5 C 301.759,101.979 302.759,103.646 303.5,105.5C 302.395,104.4 301.062,103.733 299.5,103.5C 299.263,102.209 299.596,101.209 300.5,100.5 Z" /></g><g><path style="opacity:0.986" fill="#6b6c6e" d="M 283.5,99.5 C 284.451,100.919 284.784,102.585 284.5,104.5C 277.858,102.819 275.192,105.152 276.5,111.5C 278.333,111.833 280.167,112.167 282,112.5C 287.785,112.026 293.618,111.859 299.5,112C 300.917,109.257 300.584,106.757 298.5,104.5C 299.167,104.5 299.5,104.167 299.5,103.5C 301.062,103.733 302.395,104.4 303.5,105.5C 305.421,109.745 304.421,113.078 300.5,115.5C 297.167,115.5 293.833,115.5 290.5,115.5C 289.5,115.5 288.5,115.5 287.5,115.5C 283.5,115.5 279.5,115.5 275.5,115.5C 270.167,111.167 270.167,106.833 275.5,102.5C 275.833,102.5 276.167,102.5 276.5,102.5C 278.607,103.468 280.941,103.802 283.5,103.5C 283.5,102.167 283.5,100.833 283.5,99.5 Z M 284.5,104.5 C 286.833,104.5 289.167,104.5 291.5,104.5C 293.833,104.5 296.167,104.5 298.5,104.5C 300.584,106.757 300.917,109.257 299.5,112C 293.618,111.859 287.785,112.026 282,112.5C 280.167,112.167 278.333,111.833 276.5,111.5C 275.192,105.152 277.858,102.819 284.5,104.5 Z" /></g><g><path style="opacity:0.973" fill="#8a8c8d" d="M 275.5,115.5 C 279.5,115.5 283.5,115.5 287.5,115.5C 287.5,116.5 287.5,117.5 287.5,118.5C 288.5,118.5 289.5,118.5 290.5,118.5C 290.5,117.5 290.5,116.5 290.5,115.5C 293.833,115.5 297.167,115.5 300.5,115.5C 297.713,116.477 294.713,116.81 291.5,116.5C 293.178,118.887 294.511,121.554 295.5,124.5C 294.391,124.443 293.391,124.11 292.5,123.5C 292.167,122.5 291.5,121.833 290.5,121.5C 288.692,121.509 287.025,121.009 285.5,120C 286.774,119.023 286.774,118.189 285.5,117.5C 282.167,116.833 278.833,116.167 275.5,115.5 Z" /></g><g><path style="opacity:1" fill="#ececec" d="M 287.5,115.5 C 288.5,115.5 289.5,115.5 290.5,115.5C 290.5,116.5 290.5,117.5 290.5,118.5C 289.5,118.5 288.5,118.5 287.5,118.5C 287.5,117.5 287.5,116.5 287.5,115.5 Z" /></g><g><path style="opacity:1" fill="#76787a" d="M 296.5,129.5 C 297.5,129.5 298.5,129.5 299.5,129.5C 295.175,131.624 291.175,134.457 287.5,138C 272.917,151.982 258.251,165.982 243.5,180C 242.258,180.311 241.258,179.811 240.5,178.5C 239.893,178.624 239.56,178.957 239.5,179.5C 238.833,179.5 238.167,179.5 237.5,179.5C 236.884,178.798 236.884,177.798 237.5,176.5C 240.478,175.522 242.478,173.522 243.5,170.5C 244.404,169.791 244.737,168.791 244.5,167.5C 249.969,166.636 253.636,163.636 255.5,158.5C 259.69,155.659 262.69,151.993 264.5,147.5C 267.588,147.361 270.255,146.361 272.5,144.5C 276.159,139.326 280.492,134.493 285.5,130C 289.152,129.501 292.818,129.335 296.5,129.5 Z" /></g><g><path style="opacity:1" fill="#7a7c7e" d="M 299.5,129.5 C 301.565,129.517 303.565,129.85 305.5,130.5C 303.958,131.163 302.291,131.83 300.5,132.5C 280.209,151.289 260.042,170.289 240,189.5C 239.802,191.382 239.302,193.048 238.5,194.5C 238.975,191.918 238.308,189.918 236.5,188.5C 239.367,185.903 240.367,182.903 239.5,179.5C 239.56,178.957 239.893,178.624 240.5,178.5C 241.258,179.811 242.258,180.311 243.5,180C 258.251,165.982 272.917,151.982 287.5,138C 291.175,134.457 295.175,131.624 299.5,129.5 Z" /></g><g><path style="opacity:1" fill="#7f8183" d="M 305.5,130.5 C 306.833,130.833 308.167,131.167 309.5,131.5C 286.198,153.967 262.698,176.3 239,198.5C 238.51,197.207 238.343,195.873 238.5,194.5C 239.302,193.048 239.802,191.382 240,189.5C 260.042,170.289 280.209,151.289 300.5,132.5C 302.291,131.83 303.958,131.163 305.5,130.5 Z" /></g><g><path style="opacity:1" fill="#838587" d="M 309.5,131.5 C 311.703,131.604 313.703,132.27 315.5,133.5C 315.863,135.911 314.863,137.411 312.5,138C 313.416,138.278 314.082,138.778 314.5,139.5C 311.302,138.964 308.635,139.631 306.5,141.5C 290.442,155.714 274.442,170.214 258.5,185C 253.081,190.419 247.581,195.919 242,201.5C 241.925,203.935 241.092,204.602 239.5,203.5C 239.762,202.022 239.429,200.689 238.5,199.5C 235.097,201.9 232.43,204.9 230.5,208.5C 229.833,208.833 229.167,209.167 228.5,209.5C 226.463,208.154 224.463,206.82 222.5,205.5C 228.958,204.46 228.958,203.46 222.5,202.5C 227.42,203.585 229.087,201.918 227.5,197.5C 228.167,197.167 228.833,196.833 229.5,196.5C 229.217,201.526 231.217,202.693 235.5,200C 237.622,196.553 237.955,193.053 236.5,189.5C 236.5,189.167 236.5,188.833 236.5,188.5C 238.308,189.918 238.975,191.918 238.5,194.5C 238.343,195.873 238.51,197.207 239,198.5C 262.698,176.3 286.198,153.967 309.5,131.5 Z" /></g><g><path style="opacity:1" fill="#b0b2b4" d="M 266.5,127.5 C 268.199,127.34 269.866,127.506 271.5,128C 268.903,128.779 268.903,129.279 271.5,129.5C 267.496,130.68 263.496,132.18 259.5,134C 257.963,135.11 257.297,136.61 257.5,138.5C 254.978,138.128 252.978,138.961 251.5,141C 254.044,142.099 254.044,143.265 251.5,144.5C 250.832,146.969 250.165,149.302 249.5,151.5C 249.664,148.813 249.497,146.146 249,143.5C 246.135,142.959 244.135,144.293 243,147.5C 242.36,149.265 242.527,150.932 243.5,152.5C 241.5,152.5 240.5,153.5 240.5,155.5C 239.221,153.877 237.887,152.21 236.5,150.5C 235.817,150.863 235.15,151.196 234.5,151.5C 233.363,150.211 232.03,149.211 230.5,148.5C 240.486,138.208 252.486,131.208 266.5,127.5 Z" /></g><g><path style="opacity:0.945" fill="#e4e4e5" d="M 285.5,117.5 C 286.774,118.189 286.774,119.023 285.5,120C 287.025,121.009 288.692,121.509 290.5,121.5C 289.036,123.984 287.369,123.984 285.5,121.5C 284.354,122.145 283.354,122.978 282.5,124C 286.027,124.808 289.36,124.641 292.5,123.5C 293.391,124.11 294.391,124.443 295.5,124.5C 313.109,126.313 328.442,132.98 341.5,144.5C 340.504,144.586 339.671,144.252 339,143.5C 338.667,144.167 338.333,144.833 338,145.5C 337,143.833 336,142.167 335,140.5C 334.005,141.066 333.172,141.733 332.5,142.5C 331.5,141.833 330.5,141.167 329.5,140.5C 325.112,137.639 320.446,135.306 315.5,133.5C 313.703,132.27 311.703,131.604 309.5,131.5C 308.167,131.167 306.833,130.833 305.5,130.5C 303.565,129.85 301.565,129.517 299.5,129.5C 298.5,129.5 297.5,129.5 296.5,129.5C 288.315,128.28 279.982,128.28 271.5,129.5C 268.903,129.279 268.903,128.779 271.5,128C 269.866,127.506 268.199,127.34 266.5,127.5C 271.05,126.192 275.717,124.858 280.5,123.5C 282.19,121.481 283.856,119.481 285.5,117.5 Z" /></g><g><path style="opacity:1" fill="#e7e7e8" d="M 249.5,151.5 C 249.369,152.239 249.536,152.906 250,153.5C 257.285,151.793 258.118,153.293 252.5,158C 250.833,158.667 249.167,158.667 247.5,158C 246.964,155.492 245.631,153.659 243.5,152.5C 242.527,150.932 242.36,149.265 243,147.5C 244.135,144.293 246.135,142.959 249,143.5C 249.497,146.146 249.664,148.813 249.5,151.5 Z" /></g><g><path style="opacity:1" fill="#d9dadb" d="M 314.5,139.5 C 317.643,140.507 320.477,142.173 323,144.5C 324.755,150.914 322.589,152.914 316.5,150.5C 314.167,148.5 311.833,146.5 309.5,144.5C 309.144,142.81 308.144,141.81 306.5,141.5C 308.635,139.631 311.302,138.964 314.5,139.5 Z" /></g><g><path style="opacity:1" fill="#87898c" d="M 306.5,141.5 C 308.144,141.81 309.144,142.81 309.5,144.5C 286.151,166.018 262.984,187.684 240,209.5C 239.536,208.906 239.369,208.239 239.5,207.5C 239.5,206.167 239.5,204.833 239.5,203.5C 241.092,204.602 241.925,203.935 242,201.5C 247.581,195.919 253.081,190.419 258.5,185C 274.442,170.214 290.442,155.714 306.5,141.5 Z" /></g><g><path style="opacity:1" fill="#8c8e91" d="M 309.5,144.5 C 311.833,146.5 314.167,148.5 316.5,150.5C 312.755,153.059 309.089,155.892 305.5,159C 285.689,178.476 265.522,197.643 245,216.5C 244.667,217.833 244.333,219.167 244,220.5C 243.802,218.618 243.302,216.952 242.5,215.5C 242.104,210.616 240.604,210.282 238,214.5C 235.416,217.336 234.249,220.669 234.5,224.5C 234.167,224.5 233.833,224.5 233.5,224.5C 229.961,221.545 225.961,219.545 221.5,218.5C 222.791,218.737 223.791,218.404 224.5,217.5C 229.34,216.722 230.673,214.055 228.5,209.5C 229.167,209.167 229.833,208.833 230.5,208.5C 230.291,210.714 231.124,212.381 233,213.5C 236.006,212.325 238.172,210.325 239.5,207.5C 239.369,208.239 239.536,208.906 240,209.5C 262.984,187.684 286.151,166.018 309.5,144.5 Z" /></g><g><path style="opacity:1" fill="#d3d4d5" d="M 328.5,142.5 C 331.892,143.564 333.892,145.897 334.5,149.5C 333.929,151.741 332.596,153.408 330.5,154.5C 329.571,155.689 329.238,157.022 329.5,158.5C 327.833,158.5 326.167,158.5 324.5,158.5C 323.167,157.167 321.833,155.833 320.5,154.5C 322.698,153.835 325.031,153.168 327.5,152.5C 326.087,148.981 326.421,145.647 328.5,142.5 Z" /></g><g><path style="opacity:1" fill="#8f9194" d="M 315.5,133.5 C 320.446,135.306 325.112,137.639 329.5,140.5C 329.167,141.167 328.833,141.833 328.5,142.5C 326.421,145.647 326.087,148.981 327.5,152.5C 325.031,153.168 322.698,153.835 320.5,154.5C 319.331,154.272 317.997,154.772 316.5,156C 293.245,178.426 269.911,200.593 246.5,222.5C 245.504,222.414 244.671,222.748 244,223.5C 242.422,226.657 241.422,229.991 241,233.5C 239.913,231.068 239.413,231.402 239.5,234.5C 234.456,234.173 229.456,234.506 224.5,235.5C 227.353,239.187 230.686,242.353 234.5,245C 228.264,247.309 227.931,250.143 233.5,253.5C 237.433,258.45 242.099,262.45 247.5,265.5C 250.55,267.692 253.883,269.358 257.5,270.5C 260.18,272.273 263.18,273.607 266.5,274.5C 277.338,277.556 288.338,278.222 299.5,276.5C 301.989,276.298 304.323,276.798 306.5,278C 302.626,278.233 299.626,279.066 297.5,280.5C 263.783,283.704 237.783,271.037 219.5,242.5C 221.494,243.35 223.494,243.85 225.5,244C 220.996,237.825 217.996,230.992 216.5,223.5C 218.179,223.715 219.179,223.048 219.5,221.5C 221.814,225.814 225.147,229.147 229.5,231.5C 234.199,230.993 235.532,228.659 233.5,224.5C 233.833,224.5 234.167,224.5 234.5,224.5C 236.479,226.936 238.646,226.936 241,224.5C 242.289,221.649 242.789,218.649 242.5,215.5C 243.302,216.952 243.802,218.618 244,220.5C 244.333,219.167 244.667,217.833 245,216.5C 265.522,197.643 285.689,178.476 305.5,159C 309.089,155.892 312.755,153.059 316.5,150.5C 322.589,152.914 324.755,150.914 323,144.5C 320.477,142.173 317.643,140.507 314.5,139.5C 314.082,138.778 313.416,138.278 312.5,138C 314.863,137.411 315.863,135.911 315.5,133.5 Z" /></g><g><path style="opacity:1" fill="#e4e4e5" d="M 240.5,155.5 C 241.301,157.042 241.634,158.708 241.5,160.5C 252.742,160.062 253.242,161.729 243,165.5C 241.289,165.561 239.956,164.894 239,163.5C 238.329,164.252 237.496,164.586 236.5,164.5C 233.24,160.692 232.574,156.359 234.5,151.5C 235.15,151.196 235.817,150.863 236.5,150.5C 237.887,152.21 239.221,153.877 240.5,155.5 Z" /></g><g><path style="opacity:1" fill="#989a9d" d="M 320.5,154.5 C 321.833,155.833 323.167,157.167 324.5,158.5C 323.769,158.942 322.769,159.109 321.5,159C 297.631,182.037 273.631,204.871 249.5,227.5C 248.248,225.999 247.248,224.332 246.5,222.5C 269.911,200.593 293.245,178.426 316.5,156C 317.997,154.772 319.331,154.272 320.5,154.5 Z" /></g><g><path style="opacity:1" fill="#9c9ea1" d="M 329.5,140.5 C 330.5,141.167 331.5,141.833 332.5,142.5C 335.172,144.84 337.839,147.173 340.5,149.5C 337.317,152.866 335.484,156.866 335,161.5C 332.281,160.556 329.448,160.223 326.5,160.5C 325.448,160.351 324.448,160.517 323.5,161C 322.5,162.667 321.5,164.333 320.5,166C 297.319,186.85 274.486,208.017 252,229.5C 250.699,229.361 249.866,228.695 249.5,227.5C 273.631,204.871 297.631,182.037 321.5,159C 322.769,159.109 323.769,158.942 324.5,158.5C 326.167,158.5 327.833,158.5 329.5,158.5C 329.238,157.022 329.571,155.689 330.5,154.5C 332.596,153.408 333.929,151.741 334.5,149.5C 333.892,145.897 331.892,143.564 328.5,142.5C 328.833,141.833 329.167,141.167 329.5,140.5 Z" /></g><g><path style="opacity:1" fill="#a5a7aa" d="M 326.5,160.5 C 326.427,162.027 327.094,163.027 328.5,163.5C 326.432,164.375 324.432,165.541 322.5,167C 300.346,188.986 277.679,210.486 254.5,231.5C 253.292,230.766 251.959,230.433 250.5,230.5C 250.5,235.5 250.5,240.5 250.5,245.5C 244.207,245.574 238.207,246.907 232.5,249.5C 234.58,250.528 234.914,251.862 233.5,253.5C 227.931,250.143 228.264,247.309 234.5,245C 230.686,242.353 227.353,239.187 224.5,235.5C 229.456,234.506 234.456,234.173 239.5,234.5C 239.413,231.402 239.913,231.068 241,233.5C 241.422,229.991 242.422,226.657 244,223.5C 244.671,222.748 245.504,222.414 246.5,222.5C 247.248,224.332 248.248,225.999 249.5,227.5C 249.866,228.695 250.699,229.361 252,229.5C 274.486,208.017 297.319,186.85 320.5,166C 321.5,164.333 322.5,162.667 323.5,161C 324.448,160.517 325.448,160.351 326.5,160.5 Z" /></g><g><path style="opacity:1" fill="#888a8c" d="M 296.5,129.5 C 292.818,129.335 289.152,129.501 285.5,130C 280.492,134.493 276.159,139.326 272.5,144.5C 270.255,146.361 267.588,147.361 264.5,147.5C 262.69,151.993 259.69,155.659 255.5,158.5C 253.636,163.636 249.969,166.636 244.5,167.5C 244.737,168.791 244.404,169.791 243.5,170.5C 243.53,169.503 243.03,168.836 242,168.5C 239.357,169.321 237.024,170.654 235,172.5C 234.074,170.308 232.907,168.308 231.5,166.5C 232.934,164.622 234.601,163.955 236.5,164.5C 237.496,164.586 238.329,164.252 239,163.5C 239.956,164.894 241.289,165.561 243,165.5C 253.242,161.729 252.742,160.062 241.5,160.5C 241.634,158.708 241.301,157.042 240.5,155.5C 240.5,153.5 241.5,152.5 243.5,152.5C 245.631,153.659 246.964,155.492 247.5,158C 249.167,158.667 250.833,158.667 252.5,158C 258.118,153.293 257.285,151.793 250,153.5C 249.536,152.906 249.369,152.239 249.5,151.5C 250.165,149.302 250.832,146.969 251.5,144.5C 254.044,143.265 254.044,142.099 251.5,141C 252.978,138.961 254.978,138.128 257.5,138.5C 257.297,136.61 257.963,135.11 259.5,134C 263.496,132.18 267.496,130.68 271.5,129.5C 279.982,128.28 288.315,128.28 296.5,129.5 Z" /></g><g><path style="opacity:1" fill="#e8e9e9" d="M 264.5,147.5 C 261.331,150.598 257.664,151.598 253.5,150.5C 251.814,146.805 252.814,143.971 256.5,142C 260.711,140.466 265.044,140.133 269.5,141C 267.946,143.287 266.279,145.454 264.5,147.5 Z" /></g><g><path style="opacity:1" fill="#a4a6a9" d="M 328.5,163.5 C 330.82,165.226 333.487,165.893 336.5,165.5C 338.068,164.527 339.735,164.36 341.5,165C 337.571,167.701 333.571,169.368 329.5,170C 305.969,192.033 282.635,214.2 259.5,236.5C 259.657,237.873 259.49,239.207 259,240.5C 258.158,237.161 256.658,234.161 254.5,231.5C 277.679,210.486 300.346,188.986 322.5,167C 324.432,165.541 326.432,164.375 328.5,163.5 Z" /></g><g><path style="opacity:1" fill="#dfdfe0" d="M 231.5,166.5 C 232.907,168.308 234.074,170.308 235,172.5C 237.024,170.654 239.357,169.321 242,168.5C 243.03,168.836 243.53,169.503 243.5,170.5C 242.478,173.522 240.478,175.522 237.5,176.5C 235.857,176.52 234.524,175.853 233.5,174.5C 232.817,174.863 232.15,175.196 231.5,175.5C 230.178,175.67 229.011,175.337 228,174.5C 225.53,170.738 225.03,166.738 226.5,162.5C 228.186,163.857 229.852,165.19 231.5,166.5 Z" /></g><g><path style="opacity:1" fill="#9c9d9f" d="M 230.5,148.5 C 232.03,149.211 233.363,150.211 234.5,151.5C 232.574,156.359 233.24,160.692 236.5,164.5C 234.601,163.955 232.934,164.622 231.5,166.5C 229.852,165.19 228.186,163.857 226.5,162.5C 225.03,166.738 225.53,170.738 228,174.5C 229.011,175.337 230.178,175.67 231.5,175.5C 228.759,176.213 226.759,177.88 225.5,180.5C 220.371,175.761 218.704,176.761 220.5,183.5C 219.883,183.389 219.383,183.056 219,182.5C 218.333,183.833 217.333,184.833 216,185.5C 214.732,185.384 213.398,185.051 212,184.5C 211.768,185.737 211.268,186.737 210.5,187.5C 213.231,172.369 219.898,159.369 230.5,148.5 Z" /></g><g><path style="opacity:1" fill="#a9abae" d="M 350.5,161.5 C 347.089,164.742 344.255,168.408 342,172.5C 339.092,169.523 336.259,169.19 333.5,171.5C 321.141,182.683 308.808,194.183 296.5,206C 295.552,206.483 294.552,206.649 293.5,206.5C 293.649,207.552 293.483,208.552 293,209.5C 282.931,219.074 272.765,228.407 262.5,237.5C 261.583,236.873 260.583,236.539 259.5,236.5C 282.635,214.2 305.969,192.033 329.5,170C 333.571,169.368 337.571,167.701 341.5,165C 339.735,164.36 338.068,164.527 336.5,165.5C 337.841,163.88 339.674,162.88 342,162.5C 342.518,158.425 342.518,154.425 342,150.5C 345.049,154.043 347.882,157.709 350.5,161.5 Z" /></g><g><path style="opacity:1" fill="#aaacaf" d="M 333.5,171.5 C 334.338,171.842 334.672,172.508 334.5,173.5C 311.773,195.73 288.606,217.397 265,238.5C 266.138,242.267 266.638,246.267 266.5,250.5C 265.031,254.068 262.864,254.402 260,251.5C 259.097,252.701 257.931,253.535 256.5,254C 264.604,255.008 266.271,258.675 261.5,265C 256.594,265.34 251.927,265.507 247.5,265.5C 242.099,262.45 237.433,258.45 233.5,253.5C 234.914,251.862 234.58,250.528 232.5,249.5C 238.207,246.907 244.207,245.574 250.5,245.5C 250.5,240.5 250.5,235.5 250.5,230.5C 251.959,230.433 253.292,230.766 254.5,231.5C 256.658,234.161 258.158,237.161 259,240.5C 259.49,239.207 259.657,237.873 259.5,236.5C 260.583,236.539 261.583,236.873 262.5,237.5C 272.765,228.407 282.931,219.074 293,209.5C 293.483,208.552 293.649,207.552 293.5,206.5C 294.552,206.649 295.552,206.483 296.5,206C 308.808,194.183 321.141,182.683 333.5,171.5 Z" /></g><g><path style="opacity:1" fill="#d9dadb" d="M 225.5,180.5 C 229.197,182.821 230.197,185.987 228.5,190C 223.982,190.33 221.315,188.163 220.5,183.5C 218.704,176.761 220.371,175.761 225.5,180.5 Z" /></g><g><path style="opacity:1" fill="#d4d5d6" d="M 237.5,179.5 C 238.167,179.5 238.833,179.5 239.5,179.5C 240.367,182.903 239.367,185.903 236.5,188.5C 234.5,188.5 232.5,188.5 230.5,188.5C 230.343,187.127 230.51,185.793 231,184.5C 232.965,182.45 235.132,180.783 237.5,179.5 Z" /></g><g><path style="opacity:1" fill="#d9dadb" d="M 341.5,144.5 C 350.145,151.478 356.479,160.145 360.5,170.5C 359.043,175.724 359.376,181.057 361.5,186.5C 361.122,188.717 360.455,190.717 359.5,192.5C 359.719,191.325 359.386,190.325 358.5,189.5C 354.894,191.603 351.727,194.269 349,197.5C 348.167,201.836 350,203.836 354.5,203.5C 353.494,204.396 353.494,205.062 354.5,205.5C 352.132,206.783 349.965,208.45 348,210.5C 347.51,211.793 347.343,213.127 347.5,214.5C 346.833,213.833 346.167,213.167 345.5,212.5C 346.075,207.762 344.408,204.095 340.5,201.5C 340.5,200.833 340.833,200.5 341.5,200.5C 346.011,202.623 347.845,201.289 347,196.5C 345.692,194.359 344.192,192.359 342.5,190.5C 343.602,189.824 344.602,189.158 345.5,188.5C 345.56,187.957 345.893,187.624 346.5,187.5C 349.239,191.452 352.073,191.452 355,187.5C 356.449,184.268 357.616,180.935 358.5,177.5C 356.844,171.521 354.177,166.188 350.5,161.5C 347.882,157.709 345.049,154.043 342,150.5C 342.518,154.425 342.518,158.425 342,162.5C 339.674,162.88 337.841,163.88 336.5,165.5C 333.487,165.893 330.82,165.226 328.5,163.5C 327.094,163.027 326.427,162.027 326.5,160.5C 329.448,160.223 332.281,160.556 335,161.5C 335.484,156.866 337.317,152.866 340.5,149.5C 337.839,147.173 335.172,144.84 332.5,142.5C 333.172,141.733 334.005,141.066 335,140.5C 336,142.167 337,143.833 338,145.5C 338.333,144.833 338.667,144.167 339,143.5C 339.671,144.252 340.504,144.586 341.5,144.5 Z" /></g><g><path style="opacity:1" fill="#d1d2d4" d="M 227.5,197.5 C 229.087,201.918 227.42,203.585 222.5,202.5C 219.498,200.708 217.665,198.041 217,194.5C 216.192,192.421 216.359,190.421 217.5,188.5C 221.476,190.81 224.809,193.81 227.5,197.5 Z" /></g><g><path style="opacity:1" fill="#ced0d1" d="M 341.5,200.5 C 340.833,200.5 340.5,200.833 340.5,201.5C 338.804,199.871 337.804,200.204 337.5,202.5C 336.022,202.238 334.689,202.571 333.5,203.5C 315.395,219.721 297.728,236.387 280.5,253.5C 280.312,250.794 279.312,248.461 277.5,246.5C 281.666,243.679 284.666,240.012 286.5,235.5C 294.521,231.651 300.855,225.818 305.5,218C 307.246,217.529 308.913,216.862 310.5,216C 319.64,207.194 328.807,198.361 338,189.5C 338.114,193.574 339.28,197.24 341.5,200.5 Z" /></g><g><path style="opacity:1" fill="#b1b3b6" d="M 359.5,192.5 C 359.182,196.801 357.515,200.468 354.5,203.5C 350,203.836 348.167,201.836 349,197.5C 351.727,194.269 354.894,191.603 358.5,189.5C 359.386,190.325 359.719,191.325 359.5,192.5 Z" /></g><g><path style="opacity:1" fill="#cfd0d2" d="M 236.5,189.5 C 237.955,193.053 237.622,196.553 235.5,200C 231.217,202.693 229.217,201.526 229.5,196.5C 231.5,193.833 233.833,191.5 236.5,189.5 Z" /></g><g><path style="opacity:1" fill="#c0c2c4" d="M 345.5,188.5 C 344.602,189.158 343.602,189.824 342.5,190.5C 344.192,192.359 345.692,194.359 347,196.5C 347.845,201.289 346.011,202.623 341.5,200.5C 339.28,197.24 338.114,193.574 338,189.5C 328.807,198.361 319.64,207.194 310.5,216C 308.913,216.862 307.246,217.529 305.5,218C 300.855,225.818 294.521,231.651 286.5,235.5C 284.666,240.012 281.666,243.679 277.5,246.5C 276.167,245.833 275.167,244.833 274.5,243.5C 285.574,232.118 296.908,220.951 308.5,210C 315.029,206.498 320.863,201.998 326,196.5C 326.49,195.207 326.657,193.873 326.5,192.5C 329.883,189.96 333.55,187.627 337.5,185.5C 339.578,187.986 342.245,188.986 345.5,188.5 Z" /></g><g><path style="opacity:1" fill="#c5c6c8" d="M 239.5,203.5 C 239.5,204.833 239.5,206.167 239.5,207.5C 238.172,210.325 236.006,212.325 233,213.5C 231.124,212.381 230.291,210.714 230.5,208.5C 232.43,204.9 235.097,201.9 238.5,199.5C 239.429,200.689 239.762,202.022 239.5,203.5 Z" /></g><g><path style="opacity:1" fill="#dcddde" d="M 337.5,202.5 C 336.658,207.821 338.658,211.488 343.5,213.5C 343.611,214.117 343.944,214.617 344.5,215C 342.937,215.759 341.937,216.926 341.5,218.5C 335.822,208.782 333.489,209.782 334.5,221.5C 333.691,219.708 333.191,217.708 333,215.5C 329.563,219.941 325.73,224.107 321.5,228C 316.45,232.72 311.117,237.053 305.5,241C 307.632,242.62 307.965,244.454 306.5,246.5C 306.5,245.167 306.5,243.833 306.5,242.5C 300.172,244.498 296.839,248.831 296.5,255.5C 295.732,254.737 295.232,253.737 295,252.5C 289.382,256.992 284.548,261.992 280.5,267.5C 280.66,265.801 280.494,264.134 280,262.5C 279.329,261.748 278.496,261.414 277.5,261.5C 277.833,260.833 278.167,260.167 278.5,259.5C 279.738,257.786 280.405,255.786 280.5,253.5C 297.728,236.387 315.395,219.721 333.5,203.5C 334.689,202.571 336.022,202.238 337.5,202.5 Z" /></g><g><path style="opacity:1" fill="#aeb0b3" d="M 340.5,201.5 C 344.408,204.095 346.075,207.762 345.5,212.5C 345.158,213.338 344.492,213.672 343.5,213.5C 338.658,211.488 336.658,207.821 337.5,202.5C 337.804,200.204 338.804,199.871 340.5,201.5 Z" /></g><g><path style="opacity:1" fill="#7f8183" d="M 237.5,176.5 C 236.884,177.798 236.884,178.798 237.5,179.5C 235.132,180.783 232.965,182.45 231,184.5C 230.51,185.793 230.343,187.127 230.5,188.5C 232.5,188.5 234.5,188.5 236.5,188.5C 236.5,188.833 236.5,189.167 236.5,189.5C 233.833,191.5 231.5,193.833 229.5,196.5C 228.833,196.833 228.167,197.167 227.5,197.5C 224.809,193.81 221.476,190.81 217.5,188.5C 216.359,190.421 216.192,192.421 217,194.5C 217.665,198.041 219.498,200.708 222.5,202.5C 228.958,203.46 228.958,204.46 222.5,205.5C 220.131,205.149 217.797,204.982 215.5,205C 216.918,210.348 219.918,214.515 224.5,217.5C 223.791,218.404 222.791,218.737 221.5,218.5C 218.752,218.402 218.086,219.402 219.5,221.5C 219.179,223.048 218.179,223.715 216.5,223.5C 217.996,230.992 220.996,237.825 225.5,244C 223.494,243.85 221.494,243.35 219.5,242.5C 209.509,225.214 206.509,206.881 210.5,187.5C 211.268,186.737 211.768,185.737 212,184.5C 213.398,185.051 214.732,185.384 216,185.5C 217.333,184.833 218.333,183.833 219,182.5C 219.383,183.056 219.883,183.389 220.5,183.5C 221.315,188.163 223.982,190.33 228.5,190C 230.197,185.987 229.197,182.821 225.5,180.5C 226.759,177.88 228.759,176.213 231.5,175.5C 232.15,175.196 232.817,174.863 233.5,174.5C 234.524,175.853 235.857,176.52 237.5,176.5 Z" /></g><g><path style="opacity:1" fill="#aaacaf" d="M 347.5,214.5 C 347.343,213.127 347.51,211.793 348,210.5C 349.965,208.45 352.132,206.783 354.5,205.5C 356.782,204.61 359.115,204.444 361.5,205C 359.873,207.754 358.373,210.588 357,213.5C 355.093,217.01 352.26,218.176 348.5,217C 347.748,216.329 347.414,215.496 347.5,214.5 Z" /></g><g><path style="opacity:1" fill="#c8c9cb" d="M 222.5,205.5 C 224.463,206.82 226.463,208.154 228.5,209.5C 230.673,214.055 229.34,216.722 224.5,217.5C 219.918,214.515 216.918,210.348 215.5,205C 217.797,204.982 220.131,205.149 222.5,205.5 Z" /></g><g><path style="opacity:1" fill="#b0b2b5" d="M 334.5,173.5 C 335.962,174.458 337.295,175.624 338.5,177C 333.833,181.667 329.167,186.333 324.5,191C 322.649,191.837 320.816,192.671 319,193.5C 315.106,198.712 311.273,203.879 307.5,209C 306.167,209.333 304.833,209.667 303.5,210C 292.93,220.825 281.93,231.158 270.5,241C 271.471,242.481 272.804,243.315 274.5,243.5C 275.167,244.833 276.167,245.833 277.5,246.5C 279.312,248.461 280.312,250.794 280.5,253.5C 280.405,255.786 279.738,257.786 278.5,259.5C 276.278,259.822 274.444,259.155 273,257.5C 271.348,252.594 270.015,247.594 269,242.5C 267.939,245.166 267.106,247.833 266.5,250.5C 266.638,246.267 266.138,242.267 265,238.5C 288.606,217.397 311.773,195.73 334.5,173.5 Z" /></g><g><path style="opacity:1" fill="#bdbec1" d="M 350.5,161.5 C 354.177,166.188 356.844,171.521 358.5,177.5C 357.616,180.935 356.449,184.268 355,187.5C 352.073,191.452 349.239,191.452 346.5,187.5C 345.893,187.624 345.56,187.957 345.5,188.5C 342.245,188.986 339.578,187.986 337.5,185.5C 333.55,187.627 329.883,189.96 326.5,192.5C 326.657,193.873 326.49,195.207 326,196.5C 320.863,201.998 315.029,206.498 308.5,210C 296.908,220.951 285.574,232.118 274.5,243.5C 272.804,243.315 271.471,242.481 270.5,241C 281.93,231.158 292.93,220.825 303.5,210C 304.833,209.667 306.167,209.333 307.5,209C 311.273,203.879 315.106,198.712 319,193.5C 320.816,192.671 322.649,191.837 324.5,191C 329.167,186.333 333.833,181.667 338.5,177C 337.295,175.624 335.962,174.458 334.5,173.5C 334.672,172.508 334.338,171.842 333.5,171.5C 336.259,169.19 339.092,169.523 342,172.5C 344.255,168.408 347.089,164.742 350.5,161.5 Z" /></g><g><path style="opacity:1" fill="#bdbfc1" d="M 242.5,215.5 C 242.789,218.649 242.289,221.649 241,224.5C 238.646,226.936 236.479,226.936 234.5,224.5C 234.249,220.669 235.416,217.336 238,214.5C 240.604,210.282 242.104,210.616 242.5,215.5 Z" /></g><g><path style="opacity:1" fill="#aaacaf" d="M 341.5,218.5 C 343.114,221.596 342.614,224.263 340,226.5C 337.031,226.029 335.198,224.363 334.5,221.5C 333.489,209.782 335.822,208.782 341.5,218.5 Z" /></g><g><path style="opacity:1" fill="#a6a8ab" d="M 352.5,219.5 C 354.288,219.215 355.955,219.548 357.5,220.5C 355.536,225.462 352.202,229.129 347.5,231.5C 341.608,229.753 340.941,226.586 345.5,222C 347.65,220.589 349.984,219.755 352.5,219.5 Z" /></g><g><path style="opacity:1" fill="#eeefef" d="M 360.5,170.5 C 367.319,185.066 369.319,200.399 366.5,216.5C 365.539,214.735 365.205,212.735 365.5,210.5C 361.687,211.63 358.687,213.963 356.5,217.5C 355.051,218.172 353.718,218.839 352.5,219.5C 349.984,219.755 347.65,220.589 345.5,222C 340.941,226.586 341.608,229.753 347.5,231.5C 346.41,232.857 345.076,233.857 343.5,234.5C 339.92,233.923 336.92,234.923 334.5,237.5C 334.472,234.003 334.306,230.336 334,226.5C 332.199,221.377 330.199,221.377 328,226.5C 327.333,229.5 327.333,232.5 328,235.5C 328.908,237.439 330.408,238.439 332.5,238.5C 332.317,240.936 332.984,243.103 334.5,245C 327.05,244.188 323.05,247.355 322.5,254.5C 319.941,254.198 317.607,254.532 315.5,255.5C 312.364,256.434 310.698,258.601 310.5,262C 305.815,261.388 301.148,261.555 296.5,262.5C 295.009,266.372 296.009,269.539 299.5,272C 302.753,273.036 306.086,273.703 309.5,274C 306.009,274.738 302.675,275.571 299.5,276.5C 288.338,278.222 277.338,277.556 266.5,274.5C 270.569,273.974 274.569,272.807 278.5,271C 279.823,270.184 280.489,269.017 280.5,267.5C 284.548,261.992 289.382,256.992 295,252.5C 295.232,253.737 295.732,254.737 296.5,255.5C 297.121,258.857 299.121,260.024 302.5,259C 305.399,255.36 306.733,251.193 306.5,246.5C 307.965,244.454 307.632,242.62 305.5,241C 311.117,237.053 316.45,232.72 321.5,228C 325.73,224.107 329.563,219.941 333,215.5C 333.191,217.708 333.691,219.708 334.5,221.5C 335.198,224.363 337.031,226.029 340,226.5C 342.614,224.263 343.114,221.596 341.5,218.5C 341.937,216.926 342.937,215.759 344.5,215C 343.944,214.617 343.611,214.117 343.5,213.5C 344.492,213.672 345.158,213.338 345.5,212.5C 346.167,213.167 346.833,213.833 347.5,214.5C 347.414,215.496 347.748,216.329 348.5,217C 352.26,218.176 355.093,217.01 357,213.5C 358.373,210.588 359.873,207.754 361.5,205C 359.115,204.444 356.782,204.61 354.5,205.5C 353.494,205.062 353.494,204.396 354.5,203.5C 357.515,200.468 359.182,196.801 359.5,192.5C 360.455,190.717 361.122,188.717 361.5,186.5C 359.376,181.057 359.043,175.724 360.5,170.5 Z" /></g><g><path style="opacity:1" fill="#bebfc2" d="M 221.5,218.5 C 225.961,219.545 229.961,221.545 233.5,224.5C 235.532,228.659 234.199,230.993 229.5,231.5C 225.147,229.147 221.814,225.814 219.5,221.5C 218.086,219.402 218.752,218.402 221.5,218.5 Z" /></g><g><path style="opacity:0.962" fill="#d4d5d7" d="M 366.5,216.5 C 363.933,230.631 357.933,242.964 348.5,253.5C 347.782,251.863 347.616,250.197 348,248.5C 352.741,242.023 356.075,235.023 358,227.5C 355.205,229.293 352.705,231.46 350.5,234C 348.19,234.497 345.857,234.663 343.5,234.5C 345.076,233.857 346.41,232.857 347.5,231.5C 352.202,229.129 355.536,225.462 357.5,220.5C 355.955,219.548 354.288,219.215 352.5,219.5C 353.718,218.839 355.051,218.172 356.5,217.5C 358.687,213.963 361.687,211.63 365.5,210.5C 365.205,212.735 365.539,214.735 366.5,216.5 Z" /></g><g><path style="opacity:0.999" fill="#aaacaf" d="M 343.5,234.5 C 345.857,234.663 348.19,234.497 350.5,234C 352.705,231.46 355.205,229.293 358,227.5C 356.075,235.023 352.741,242.023 348,248.5C 347.616,250.197 347.782,251.863 348.5,253.5C 345.5,257.167 342.167,260.5 338.5,263.5C 338.275,259.016 336.608,258.349 333.5,261.5C 328.242,257.201 322.242,255.201 315.5,255.5C 317.607,254.532 319.941,254.198 322.5,254.5C 323.05,247.355 327.05,244.188 334.5,245C 332.984,243.103 332.317,240.936 332.5,238.5C 330.408,238.439 328.908,237.439 328,235.5C 327.333,232.5 327.333,229.5 328,226.5C 330.199,221.377 332.199,221.377 334,226.5C 334.306,230.336 334.472,234.003 334.5,237.5C 336.92,234.923 339.92,233.923 343.5,234.5 Z" /></g><g><path style="opacity:1" fill="#a7a9ac" d="M 323.5,230.5 C 324.497,230.47 325.164,230.97 325.5,232C 326.869,236.22 326.702,240.387 325,244.5C 323.604,246.527 321.938,246.86 320,245.5C 317.343,239.586 318.51,234.586 323.5,230.5 Z" /></g><g><path style="opacity:1" fill="#a4a6a9" d="M 314.5,237.5 C 315.496,237.414 316.329,237.748 317,238.5C 317.667,242.5 317.667,246.5 317,250.5C 312.555,254.96 310.055,253.96 309.5,247.5C 310.115,243.603 311.782,240.27 314.5,237.5 Z" /></g><g><path style="opacity:1" fill="#a5a7a9" d="M 306.5,246.5 C 306.733,251.193 305.399,255.36 302.5,259C 299.121,260.024 297.121,258.857 296.5,255.5C 296.839,248.831 300.172,244.498 306.5,242.5C 306.5,243.833 306.5,245.167 306.5,246.5 Z" /></g><g><path style="opacity:1" fill="#c7c8ca" d="M 278.5,259.5 C 278.167,260.167 277.833,260.833 277.5,261.5C 274.813,261.336 272.146,261.503 269.5,262C 265.325,264.689 261.325,267.523 257.5,270.5C 253.883,269.358 250.55,267.692 247.5,265.5C 251.927,265.507 256.594,265.34 261.5,265C 266.271,258.675 264.604,255.008 256.5,254C 257.931,253.535 259.097,252.701 260,251.5C 262.864,254.402 265.031,254.068 266.5,250.5C 267.106,247.833 267.939,245.166 269,242.5C 270.015,247.594 271.348,252.594 273,257.5C 274.444,259.155 276.278,259.822 278.5,259.5 Z" /></g><g><path style="opacity:1" fill="#a3a5a8" d="M 277.5,261.5 C 278.496,261.414 279.329,261.748 280,262.5C 280.494,264.134 280.66,265.801 280.5,267.5C 280.489,269.017 279.823,270.184 278.5,271C 274.569,272.807 270.569,273.974 266.5,274.5C 263.18,273.607 260.18,272.273 257.5,270.5C 261.325,267.523 265.325,264.689 269.5,262C 272.146,261.503 274.813,261.336 277.5,261.5 Z" /></g><g><path style="opacity:1" fill="#a2a4a7" d="M 315.5,255.5 C 322.242,255.201 328.242,257.201 333.5,261.5C 336.608,258.349 338.275,259.016 338.5,263.5C 326.619,273.268 312.952,278.935 297.5,280.5C 299.626,279.066 302.626,278.233 306.5,278C 304.323,276.798 301.989,276.298 299.5,276.5C 302.675,275.571 306.009,274.738 309.5,274C 306.086,273.703 302.753,273.036 299.5,272C 296.009,269.539 295.009,266.372 296.5,262.5C 301.148,261.555 305.815,261.388 310.5,262C 310.698,258.601 312.364,256.434 315.5,255.5 Z" /></g></svg>