<?xml version="1.0" encoding="UTF-8"?>
<!DOCTYPE svg PUBLIC "-//W3C//DTD SVG 1.1//EN" "http://www.w3.org/Graphics/SVG/1.1/DTD/svg11.dtd">
<svg xmlns="http://www.w3.org/2000/svg" version="1.1" width="512px" height="512px" style="shape-rendering:geometricPrecision; text-rendering:geometricPrecision; image-rendering:optimizeQuality; fill-rule:evenodd; clip-rule:evenodd" xmlns:xlink="http://www.w3.org/1999/xlink">
<g><path style="opacity:1" fill="#9b968b" d="M 257.5,200.5 C 256.737,201.268 255.737,201.768 254.5,202C 256.101,202.273 257.601,202.773 259,203.5C 260.107,202.288 260.607,202.621 260.5,204.5C 258.997,204.835 257.664,204.835 256.5,204.5C 256.167,203.167 255.833,203.167 255.5,204.5C 255.5,205.167 255.167,205.5 254.5,205.5C 253.794,204.443 253.461,204.776 253.5,206.5C 252.596,207.209 252.263,208.209 252.5,209.5C 251.596,210.209 251.263,211.209 251.5,212.5C 248.639,208.637 248.972,204.97 252.5,201.5C 254.071,200.691 255.738,200.357 257.5,200.5 Z"/></g>
<g><path style="opacity:0.741" fill="#a5a166" d="M 257.5,200.5 C 260.313,200.025 262.313,201.025 263.5,203.5C 263.167,204.5 262.5,205.167 261.5,205.5C 260.833,205.5 260.5,205.167 260.5,204.5C 260.607,202.621 260.107,202.288 259,203.5C 257.601,202.773 256.101,202.273 254.5,202C 255.737,201.768 256.737,201.268 257.5,200.5 Z"/></g>
<g><path style="opacity:1" fill="#829883" d="M 255.5,204.5 C 255.833,204.5 256.167,204.5 256.5,204.5C 257.664,204.835 258.997,204.835 260.5,204.5C 260.5,205.167 260.833,205.5 261.5,205.5C 262.233,207.25 262.566,208.917 262.5,210.5C 260.666,211.494 258.999,211.494 257.5,210.5C 258.776,209.614 258.776,208.614 257.5,207.5C 256.702,207.957 256.369,208.624 256.5,209.5C 255.778,209.082 255.278,208.416 255,207.5C 254.617,208.056 254.117,208.389 253.5,208.5C 253.5,207.833 253.5,207.167 253.5,206.5C 254.167,206.5 254.5,206.167 254.5,205.5C 255.167,205.5 255.5,205.167 255.5,204.5 Z"/></g>
<g><path style="opacity:1" fill="#88b9b0" d="M 263.5,203.5 C 266.072,206.735 265.739,209.735 262.5,212.5C 262.5,211.833 262.5,211.167 262.5,210.5C 262.566,208.917 262.233,207.25 261.5,205.5C 262.5,205.167 263.167,204.5 263.5,203.5 Z"/></g>
<g><path style="opacity:1" fill="#68b68e" d="M 256.5,209.5 C 257.167,209.5 257.5,209.833 257.5,210.5C 258.999,211.494 260.666,211.494 262.5,210.5C 262.5,211.167 262.5,211.833 262.5,212.5C 260.621,213.341 258.621,213.675 256.5,213.5C 256.5,213.167 256.5,212.833 256.5,212.5C 256.167,211.5 255.5,210.833 254.5,210.5C 254.167,210.5 253.833,210.5 253.5,210.5C 253.5,210.167 253.5,209.833 253.5,209.5C 253.5,209.167 253.5,208.833 253.5,208.5C 254.117,208.389 254.617,208.056 255,207.5C 255.278,208.416 255.778,209.082 256.5,209.5 Z"/></g>
<g><path style="opacity:1" fill="#8b989c" d="M 281.5,214.5 C 280.041,214.433 278.708,214.766 277.5,215.5C 277.167,214.167 276.833,214.167 276.5,215.5C 274.95,216.441 273.284,217.107 271.5,217.5C 271.5,217.167 271.5,216.833 271.5,216.5C 272.167,216.5 272.5,216.167 272.5,215.5C 275.167,215.167 275.167,214.833 272.5,214.5C 271.883,214.389 271.383,214.056 271,213.5C 269.961,214.71 268.794,215.71 267.5,216.5C 268.688,212.657 271.355,210.657 275.5,210.5C 278.181,210.932 280.181,212.266 281.5,214.5 Z"/></g>
<g><path style="opacity:1" fill="#7caf9b" d="M 240.5,211.5 C 241.6,212.558 242.934,213.392 244.5,214C 243.944,214.383 243.611,214.883 243.5,215.5C 243.167,215.5 242.833,215.5 242.5,215.5C 241.167,214.167 239.833,214.167 238.5,215.5C 237.833,215.5 237.167,215.5 236.5,215.5C 235.5,216.833 234.5,218.167 233.5,219.5C 233.712,214.956 236.045,212.289 240.5,211.5 Z"/></g>
<g><path style="opacity:0.012" fill="#88818f" d="M 252.5,209.5 C 252.833,209.5 253.167,209.5 253.5,209.5C 253.5,209.833 253.5,210.167 253.5,210.5C 253.833,211.833 254.167,211.833 254.5,210.5C 255.5,210.833 256.167,211.5 256.5,212.5C 256.167,212.5 255.833,212.5 255.5,212.5C 254.711,212.783 254.044,213.283 253.5,214C 254.823,214.816 255.489,215.983 255.5,217.5C 253.413,216.415 252.08,214.749 251.5,212.5C 251.263,211.209 251.596,210.209 252.5,209.5 Z"/></g>
<g><path style="opacity:1" fill="#908d97" d="M 240.5,211.5 C 244.141,211.652 246.807,213.318 248.5,216.5C 247.167,216.5 246.5,217.167 246.5,218.5C 246.167,218.5 245.833,218.5 245.5,218.5C 245.5,218.167 245.5,217.833 245.5,217.5C 245.158,216.662 244.492,216.328 243.5,216.5C 243.5,216.167 243.5,215.833 243.5,215.5C 243.611,214.883 243.944,214.383 244.5,214C 242.934,213.392 241.6,212.558 240.5,211.5 Z"/></g>
<g><path style="opacity:1" fill="#7ca88e" d="M 272.5,214.5 C 272.5,214.833 272.5,215.167 272.5,215.5C 271.833,215.5 271.5,215.833 271.5,216.5C 270.167,217.167 270.167,217.833 271.5,218.5C 271.833,219.833 272.167,221.167 272.5,222.5C 272.167,222.5 271.833,222.5 271.5,222.5C 270.905,224.042 270.905,226.375 271.5,229.5C 270.609,228.89 269.609,228.557 268.5,228.5C 268.286,226.856 268.62,225.356 269.5,224C 266.564,222.09 265.898,219.59 267.5,216.5C 268.794,215.71 269.961,214.71 271,213.5C 271.383,214.056 271.883,214.389 272.5,214.5 Z"/></g>
<g><path style="opacity:1" fill="#7d96a1" d="M 282.5,215.5 C 282.663,217.857 282.497,220.19 282,222.5C 281.292,223.381 280.458,224.047 279.5,224.5C 278.657,223.017 277.657,221.35 276.5,219.5C 276.5,218.833 276.167,218.5 275.5,218.5C 277.663,217.256 279.997,216.256 282.5,215.5 Z"/></g>
<g><path style="opacity:1" fill="#a4afa3" d="M 242.5,215.5 C 242.5,216.167 242.833,216.5 243.5,216.5C 244.492,216.328 245.158,216.662 245.5,217.5C 245.167,217.5 244.833,217.5 244.5,217.5C 243.833,218.5 243.167,219.5 242.5,220.5C 241.167,220.833 241.167,221.167 242.5,221.5C 242.217,222.289 241.717,222.956 241,223.5C 239.684,222.026 238.684,220.359 238,218.5C 237.667,219.167 237.333,219.833 237,220.5C 237.068,218.658 236.901,216.991 236.5,215.5C 237.167,215.5 237.833,215.5 238.5,215.5C 239.833,214.167 241.167,214.167 242.5,215.5 Z"/></g>
<g><path style="opacity:1" fill="#879f89" d="M 248.5,216.5 C 249.043,217.742 249.377,219.075 249.5,220.5C 248.077,223.275 247.411,226.275 247.5,229.5C 246.167,229.833 246.167,230.167 247.5,230.5C 247.5,230.833 247.5,231.167 247.5,231.5C 246.778,231.918 246.278,232.584 246,233.5C 245.617,232.944 245.117,232.611 244.5,232.5C 244.195,230.081 244.195,227.414 244.5,224.5C 247.167,224.167 247.167,223.833 244.5,223.5C 244.263,222.209 244.596,221.209 245.5,220.5C 246.42,221.067 246.754,220.401 246.5,218.5C 246.5,217.167 247.167,216.5 248.5,216.5 Z"/></g>
<g><path style="opacity:1" fill="#58b36f" d="M 281.5,214.5 C 282.167,214.5 282.5,214.833 282.5,215.5C 279.997,216.256 277.663,217.256 275.5,218.5C 274.833,218.5 274.5,218.833 274.5,219.5C 273.596,220.209 273.263,221.209 273.5,222.5C 273.167,222.5 272.833,222.5 272.5,222.5C 272.167,221.167 271.833,219.833 271.5,218.5C 271.5,218.167 271.5,217.833 271.5,217.5C 273.284,217.107 274.95,216.441 276.5,215.5C 276.833,215.5 277.167,215.5 277.5,215.5C 278.708,214.766 280.041,214.433 281.5,214.5 Z"/></g>
<g><path style="opacity:0.996" fill="#8fb86d" d="M 276.5,219.5 C 277.657,221.35 278.657,223.017 279.5,224.5C 276.272,226.026 273.606,225.36 271.5,222.5C 271.833,222.5 272.167,222.5 272.5,222.5C 272.833,222.5 273.167,222.5 273.5,222.5C 276.358,224.124 277.025,223.457 275.5,220.5C 275.5,219.833 275.833,219.5 276.5,219.5 Z"/></g>
<g><path style="opacity:1" fill="#7bb086" d="M 236.5,215.5 C 236.901,216.991 237.068,218.658 237,220.5C 237.333,219.833 237.667,219.167 238,218.5C 238.684,220.359 239.684,222.026 241,223.5C 241.717,222.956 242.217,222.289 242.5,221.5C 242.5,221.167 242.5,220.833 242.5,220.5C 243.167,219.5 243.833,218.5 244.5,217.5C 244.5,218.167 244.833,218.5 245.5,218.5C 245.5,219.167 245.5,219.833 245.5,220.5C 244.596,221.209 244.263,222.209 244.5,223.5C 244.5,223.833 244.5,224.167 244.5,224.5C 238.569,227.639 234.903,225.972 233.5,219.5C 234.5,218.167 235.5,216.833 236.5,215.5 Z"/></g>
<g><path style="opacity:0.333" fill="#74a890" d="M 255.5,212.5 C 255.5,213.167 255.833,213.5 256.5,213.5C 257.312,215.945 258.312,218.278 259.5,220.5C 258.842,221.398 258.176,222.398 257.5,223.5C 256.893,223.376 256.56,223.043 256.5,222.5C 256.128,220.438 255.795,218.771 255.5,217.5C 255.489,215.983 254.823,214.816 253.5,214C 254.044,213.283 254.711,212.783 255.5,212.5 Z"/></g>
<g><path style="opacity:0.361" fill="#77469b" d="M 274.5,219.5 C 274.5,220.167 274.833,220.5 275.5,220.5C 277.025,223.457 276.358,224.124 273.5,222.5C 273.263,221.209 273.596,220.209 274.5,219.5 Z"/></g>
<g><path style="opacity:1" fill="#65b07c" d="M 259.5,220.5 C 260.1,221.9 261.1,222.9 262.5,223.5C 260.374,224.048 258.374,224.715 256.5,225.5C 255.833,225.833 255.167,226.167 254.5,226.5C 254.167,225.5 253.5,224.833 252.5,224.5C 253.514,223.326 254.847,222.66 256.5,222.5C 256.56,223.043 256.893,223.376 257.5,223.5C 258.176,222.398 258.842,221.398 259.5,220.5 Z"/></g>
<g><path style="opacity:0.886" fill="#ac948d" d="M 262.5,223.5 C 265.167,224.167 266.833,225.833 267.5,228.5C 266.5,227.167 265.5,227.167 264.5,228.5C 264.167,228.5 263.833,228.5 263.5,228.5C 261.824,226.166 259.491,225.166 256.5,225.5C 258.374,224.715 260.374,224.048 262.5,223.5 Z"/></g>
<g><path style="opacity:1" fill="#91a0a3" d="M 252.5,224.5 C 253.5,224.833 254.167,225.5 254.5,226.5C 252.684,228.118 251.351,230.118 250.5,232.5C 249.778,232.082 249.278,231.416 249,230.5C 248.617,231.056 248.117,231.389 247.5,231.5C 247.5,231.167 247.5,230.833 247.5,230.5C 247.5,230.167 247.5,229.833 247.5,229.5C 248.855,227.479 250.521,225.812 252.5,224.5 Z"/></g>
<g><path style="opacity:0.439" fill="#98a98e" d="M 294.5,233.5 C 293.5,232.167 292.5,232.167 291.5,233.5C 290.512,232.205 289.512,230.872 288.5,229.5C 287.866,228.053 286.699,227.387 285,227.5C 283.93,227.528 283.097,227.861 282.5,228.5C 280.413,230.599 278.08,232.265 275.5,233.5C 275.982,227.862 279.149,225.196 285,225.5C 290.157,225.825 293.323,228.491 294.5,233.5 Z"/></g>
<g><path style="opacity:1" fill="#928e88" d="M 235.5,227.5 C 234.375,228.348 234.375,229.348 235.5,230.5C 232.833,229.167 230.167,229.167 227.5,230.5C 226.5,230.167 225.833,229.5 225.5,228.5C 227.117,227.028 229.117,226.361 231.5,226.5C 233.045,226.511 234.378,226.844 235.5,227.5 Z"/></g>
<g><path style="opacity:0.992" fill="#b83eae" d="M 282.5,228.5 C 283.097,227.861 283.93,227.528 285,227.5C 286.699,227.387 287.866,228.053 288.5,229.5C 286.565,228.85 284.565,228.517 282.5,228.5 Z"/></g>
<g><path style="opacity:1" fill="#87a58e" d="M 235.5,227.5 C 239.342,228.624 241.009,230.957 240.5,234.5C 238.251,233.92 236.585,232.587 235.5,230.5C 234.375,229.348 234.375,228.348 235.5,227.5 Z"/></g>
<g><path style="opacity:1" fill="#8e9da2" d="M 263.5,228.5 C 263.833,231.167 264.167,231.167 264.5,228.5C 265.5,227.167 266.5,227.167 267.5,228.5C 267.833,228.5 268.167,228.5 268.5,228.5C 269.609,228.557 270.609,228.89 271.5,229.5C 272.244,232.95 270.91,234.616 267.5,234.5C 267.286,232.856 267.62,231.356 268.5,230C 268.167,229.833 267.833,229.667 267.5,229.5C 266.571,230.689 266.238,232.022 266.5,233.5C 265.5,233.5 264.5,233.5 263.5,233.5C 262.5,234.833 261.5,234.833 260.5,233.5C 259.561,229.692 258.228,229.692 256.5,233.5C 256.863,234.183 257.196,234.85 257.5,235.5C 255.777,234.395 254.777,232.728 254.5,230.5C 256.803,227.303 259.803,226.637 263.5,228.5 Z"/></g>
<g><path style="opacity:1" fill="#88b08b" d="M 225.5,228.5 C 225.833,229.5 226.5,230.167 227.5,230.5C 225.732,233.162 225.065,236.162 225.5,239.5C 225.607,241.379 225.107,241.712 224,240.5C 223.187,238.564 222.687,236.564 222.5,234.5C 222.461,231.911 223.461,229.911 225.5,228.5 Z"/></g>
<g><path style="opacity:1" fill="#939388" d="M 250.5,232.5 C 250.21,235.785 250.877,238.785 252.5,241.5C 251.12,240.294 249.953,240.627 249,242.5C 248.283,241.956 247.783,241.289 247.5,240.5C 248.833,240.167 248.833,239.833 247.5,239.5C 247.5,237.833 247.5,236.167 247.5,234.5C 245.821,234.715 244.821,234.048 244.5,232.5C 245.117,232.611 245.617,232.944 246,233.5C 246.278,232.584 246.778,231.918 247.5,231.5C 248.117,231.389 248.617,231.056 249,230.5C 249.278,231.416 249.778,232.082 250.5,232.5 Z"/></g>
<g><path style="opacity:1" fill="#8bac8b" d="M 289.5,235.5 C 288.778,235.082 288.278,234.416 288,233.5C 287.768,234.737 287.268,235.737 286.5,236.5C 285.817,234.824 284.483,234.157 282.5,234.5C 281.652,233.375 280.652,233.375 279.5,234.5C 281.403,230.37 284.403,229.537 288.5,232C 289.337,233.011 289.67,234.178 289.5,235.5 Z"/></g>
<g><path style="opacity:1" fill="#969b9d" d="M 237.5,240.5 C 236.698,239.048 236.198,237.382 236,235.5C 235.722,236.416 235.222,237.082 234.5,237.5C 232.833,233.5 231.167,233.5 229.5,237.5C 228.778,236.449 227.778,235.782 226.5,235.5C 229.467,230.557 232.967,230.224 237,234.5C 237.495,236.473 237.662,238.473 237.5,240.5 Z"/></g>
<g><path style="opacity:1" fill="#7bab8a" d="M 294.5,233.5 C 295.039,237.416 293.706,240.416 290.5,242.5C 289.833,241.833 289.167,241.167 288.5,240.5C 288.5,240.167 288.5,239.833 288.5,239.5C 288.5,238.833 288.833,238.5 289.5,238.5C 290.931,237.22 291.598,235.553 291.5,233.5C 292.5,232.167 293.5,232.167 294.5,233.5 Z"/></g>
<g><path style="opacity:1" fill="#77c48b" d="M 267.5,234.5 C 267.032,237.966 265.032,239.632 261.5,239.5C 263.953,237.958 264.62,235.958 263.5,233.5C 264.5,233.5 265.5,233.5 266.5,233.5C 266.238,232.022 266.571,230.689 267.5,229.5C 267.833,229.667 268.167,229.833 268.5,230C 267.62,231.356 267.286,232.856 267.5,234.5 Z"/></g>
<g><path style="opacity:1" fill="#78be93" d="M 289.5,235.5 C 289.5,236.5 289.5,237.5 289.5,238.5C 288.833,238.5 288.5,238.833 288.5,239.5C 287.167,239.833 287.167,240.167 288.5,240.5C 289.167,241.167 289.833,241.833 290.5,242.5C 288.345,244.534 286.012,244.867 283.5,243.5C 284.5,242.833 285.5,242.167 286.5,241.5C 286.5,240.833 286.167,240.5 285.5,240.5C 284.5,239.5 283.5,238.5 282.5,237.5C 282.5,237.167 282.5,236.833 282.5,236.5C 284.035,237.354 285.368,237.354 286.5,236.5C 287.268,235.737 287.768,234.737 288,233.5C 288.278,234.416 288.778,235.082 289.5,235.5 Z"/></g>
<g><path style="opacity:0.275" fill="#a18b82" d="M 240.5,234.5 C 243.47,234.746 244.803,236.412 244.5,239.5C 241.09,239.616 239.756,237.95 240.5,234.5 Z"/></g>
<g><path style="opacity:0.961" fill="#4e39c6" d="M 275.5,233.5 C 275.5,233.833 275.5,234.167 275.5,234.5C 274.5,235.167 273.5,235.833 272.5,236.5C 272.5,234.5 273.5,233.5 275.5,233.5 Z"/></g>
<g><path style="opacity:0.012" fill="#6fab96" d="M 254.5,230.5 C 254.777,232.728 255.777,234.395 257.5,235.5C 258.167,235.5 258.5,235.833 258.5,236.5C 258.167,237.5 257.5,238.167 256.5,238.5C 253.483,236.385 252.816,233.718 254.5,230.5 Z"/></g>
<g><path style="opacity:1" fill="#73a699" d="M 282.5,234.5 C 282.5,235.167 282.5,235.833 282.5,236.5C 281.356,237.849 281.356,238.183 282.5,237.5C 283.5,238.5 284.5,239.5 285.5,240.5C 286.167,240.5 286.5,240.833 286.5,241.5C 285.5,242.167 284.5,242.833 283.5,243.5C 278.751,241.933 277.417,238.933 279.5,234.5C 280.652,233.375 281.652,233.375 282.5,234.5 Z"/></g>
<g><path style="opacity:0.925" fill="#b0c19c" d="M 275.5,234.5 C 276.332,236.725 275.332,238.058 272.5,238.5C 272.5,237.833 272.5,237.167 272.5,236.5C 273.5,235.833 274.5,235.167 275.5,234.5 Z"/></g>
<g><path style="opacity:1" fill="#9fa897" d="M 260.5,233.5 C 261.5,234.833 262.5,234.833 263.5,233.5C 264.62,235.958 263.953,237.958 261.5,239.5C 261.44,240.043 261.107,240.376 260.5,240.5C 258.974,240.006 257.641,239.339 256.5,238.5C 257.5,238.167 258.167,237.5 258.5,236.5C 259.873,236.657 261.207,236.49 262.5,236C 261.244,235.583 260.577,234.75 260.5,233.5 Z"/></g>
<g><path style="opacity:1" fill="#7fa48a" d="M 226.5,235.5 C 227.778,235.782 228.778,236.449 229.5,237.5C 230.874,237.792 232.207,238.125 233.5,238.5C 233.5,239.833 233.5,241.167 233.5,242.5C 232.5,242.5 231.5,242.5 230.5,242.5C 230.5,242.167 230.5,241.833 230.5,241.5C 230.158,240.662 229.492,240.328 228.5,240.5C 228.167,240.5 227.833,240.5 227.5,240.5C 227.5,239.833 227.167,239.5 226.5,239.5C 226.5,238.167 226.5,236.833 226.5,235.5 Z"/></g>
<g><path style="opacity:1" fill="#7ab7a4" d="M 237.5,240.5 C 236.5,242.167 235.167,243.5 233.5,244.5C 233.5,243.833 233.5,243.167 233.5,242.5C 233.5,241.167 233.5,239.833 233.5,238.5C 234.167,238.5 234.5,238.167 234.5,237.5C 235.222,237.082 235.722,236.416 236,235.5C 236.198,237.382 236.698,239.048 237.5,240.5 Z"/></g>
<g><path style="opacity:1" fill="#86bb8c" d="M 244.5,239.5 C 245.5,239.5 246.5,239.5 247.5,239.5C 247.5,239.833 247.5,240.167 247.5,240.5C 247.783,241.289 248.283,241.956 249,242.5C 249.953,240.627 251.12,240.294 252.5,241.5C 251.167,242.5 251.167,243.5 252.5,244.5C 250.199,243.94 247.866,243.44 245.5,243C 244.663,241.989 244.33,240.822 244.5,239.5 Z"/></g>
<g><path style="opacity:0.941" fill="#a37f7c" d="M 222.5,234.5 C 222.687,236.564 223.187,238.564 224,240.5C 225.107,241.712 225.607,241.379 225.5,239.5C 225.833,239.5 226.167,239.5 226.5,239.5C 227.167,239.5 227.5,239.833 227.5,240.5C 227.5,241.167 227.833,241.5 228.5,241.5C 227.71,242.401 226.71,243.068 225.5,243.5C 225.167,243.5 224.833,243.5 224.5,243.5C 222.109,240.71 221.442,237.71 222.5,234.5 Z"/></g>
<g><path style="opacity:0.957" fill="#88a27c" d="M 272.5,238.5 C 272.631,241.367 271.297,243.033 268.5,243.5C 267.756,240.05 269.09,238.384 272.5,238.5 Z"/></g>
<g><path style="opacity:1" fill="#7eafac" d="M 228.5,240.5 C 229.492,240.328 230.158,240.662 230.5,241.5C 229.167,241.833 229.167,242.167 230.5,242.5C 231.5,242.5 232.5,242.5 233.5,242.5C 233.5,243.167 233.5,243.833 233.5,244.5C 230.603,245.773 227.937,245.439 225.5,243.5C 226.71,243.068 227.71,242.401 228.5,241.5C 228.5,241.167 228.5,240.833 228.5,240.5 Z"/></g>
<g><path style="opacity:1" fill="#8c9782" d="M 224.5,243.5 C 224.751,249.892 224.418,256.225 223.5,262.5C 222.778,262.082 222.278,261.416 222,260.5C 221.617,261.056 221.117,261.389 220.5,261.5C 221.413,255.559 221.746,249.559 221.5,243.5C 222.5,243.5 223.5,243.5 224.5,243.5 Z"/></g>
<g><path style="opacity:1" fill="#799789" d="M 252.5,241.5 C 256.929,244.984 261.596,245.318 266.5,242.5C 267.183,242.863 267.85,243.196 268.5,243.5C 268.586,244.496 268.252,245.329 267.5,246C 262.833,248 258.167,248 253.5,246C 252.944,245.617 252.611,245.117 252.5,244.5C 251.167,243.5 251.167,242.5 252.5,241.5 Z"/></g>
<g><path style="opacity:1" fill="#90aa92" d="M 296.5,257.5 C 294.972,256.198 293.972,254.531 293.5,252.5C 292.841,249.545 292.508,246.545 292.5,243.5C 293.5,243.5 294.5,243.5 295.5,243.5C 296.229,248.13 296.563,252.797 296.5,257.5 Z"/></g>
<g><path style="opacity:1" fill="#8ea97b" d="M 226.5,255.5 C 227.833,255.5 229.167,255.5 230.5,255.5C 230.5,256.833 230.5,258.167 230.5,259.5C 229.167,259.5 227.833,259.5 226.5,259.5C 226.5,258.167 226.5,256.833 226.5,255.5 Z"/></g>
<g><path style="opacity:1" fill="#8c8283" d="M 293.5,252.5 C 293.972,254.531 294.972,256.198 296.5,257.5C 295.709,260.115 295.043,262.782 294.5,265.5C 293.732,264.737 293.232,263.737 293,262.5C 292.617,263.056 292.117,263.389 291.5,263.5C 292.422,259.888 293.089,256.221 293.5,252.5 Z"/></g>
<g><path style="opacity:1" fill="#75b68e" d="M 223.5,262.5 C 222.488,263.872 221.488,265.205 220.5,266.5C 219.671,265.668 218.838,266.001 218,267.5C 217.536,266.906 217.369,266.239 217.5,265.5C 218.026,263.77 219.026,262.436 220.5,261.5C 221.117,261.389 221.617,261.056 222,260.5C 222.278,261.416 222.778,262.082 223.5,262.5 Z"/></g>
<g><path style="opacity:1" fill="#82cd98" d="M 294.5,265.5 C 293.737,267.368 292.737,269.035 291.5,270.5C 290.833,269.833 290.167,269.167 289.5,268.5C 289.893,266.716 290.559,265.05 291.5,263.5C 292.117,263.389 292.617,263.056 293,262.5C 293.232,263.737 293.732,264.737 294.5,265.5 Z"/></g>
<g><path style="opacity:1" fill="#93a887" d="M 217.5,265.5 C 217.369,266.239 217.536,266.906 218,267.5C 218.838,266.001 219.671,265.668 220.5,266.5C 219.71,267.794 218.71,268.961 217.5,270C 220.817,271.481 222.817,273.981 223.5,277.5C 223.565,277.938 223.399,278.272 223,278.5C 222.583,277.244 221.75,276.577 220.5,276.5C 214.013,274.023 213.013,270.357 217.5,265.5 Z"/></g>
<g><path style="opacity:0.973" fill="#85b0ab" d="M 289.5,268.5 C 290.167,269.167 290.833,269.833 291.5,270.5C 290.617,273.704 288.95,276.371 286.5,278.5C 285.5,278.167 284.833,277.5 284.5,276.5C 286.181,273.797 287.847,271.131 289.5,268.5 Z"/></g>
<g><path style="opacity:1" fill="#7b9e8d" d="M 220.5,276.5 C 221.75,276.577 222.583,277.244 223,278.5C 223.399,278.272 223.565,277.938 223.5,277.5C 225.833,277.5 228.167,277.5 230.5,277.5C 230.5,278.833 230.5,280.167 230.5,281.5C 228.473,281.338 226.473,281.505 224.5,282C 225.274,284.405 225.774,286.905 226,289.5C 226.698,290.691 227.531,291.691 228.5,292.5C 227.5,293.167 226.5,293.833 225.5,294.5C 224.442,293.4 223.608,292.066 223,290.5C 222.271,285.794 221.438,281.127 220.5,276.5 Z"/></g>
<g><path style="opacity:1" fill="#85ac8e" d="M 284.5,276.5 C 284.833,277.5 285.5,278.167 286.5,278.5C 284.287,281.971 282.954,285.804 282.5,290C 283.696,296.146 284.696,302.312 285.5,308.5C 284.833,308.5 284.167,308.5 283.5,308.5C 283.672,307.508 283.338,306.842 282.5,306.5C 279.495,298.289 278.995,289.956 281,281.5C 282.03,279.654 283.196,277.987 284.5,276.5 Z"/></g>
<g><path style="opacity:1" fill="#82a78b" d="M 228.5,292.5 C 234.176,292.334 239.843,292.501 245.5,293C 248.302,295.105 249.635,297.939 249.5,301.5C 248.833,302.833 248.167,304.167 247.5,305.5C 247.145,301.901 245.811,298.735 243.5,296C 237.419,295.791 231.419,295.291 225.5,294.5C 226.5,293.833 227.5,293.167 228.5,292.5 Z"/></g>
<g><path style="opacity:0.533" fill="#6c2325" d="M 282.5,306.5 C 283.338,306.842 283.672,307.508 283.5,308.5C 272.084,308.832 261.417,308.499 251.5,307.5C 262.014,307.828 272.347,307.494 282.5,306.5 Z"/></g>
<g><path style="opacity:1" fill="#8bbb80" d="M 249.5,301.5 C 250.285,303.374 250.952,305.374 251.5,307.5C 261.417,308.499 272.084,308.832 283.5,308.5C 284.167,308.5 284.833,308.5 285.5,308.5C 285.389,309.117 285.056,309.617 284.5,310C 272.833,310.667 261.167,310.667 249.5,310C 247.963,308.89 247.297,307.39 247.5,305.5C 248.167,304.167 248.833,302.833 249.5,301.5 Z"/></g>
</svg>
