<?xml version="1.0" encoding="UTF-8"?>
<!DOCTYPE svg PUBLIC "-//W3C//DTD SVG 1.1//EN" "http://www.w3.org/Graphics/SVG/1.1/DTD/svg11.dtd">
<svg xmlns="http://www.w3.org/2000/svg" version="1.1" width="3310px" height="160px" style="shape-rendering:geometricPrecision; text-rendering:geometricPrecision; image-rendering:optimizeQuality; fill-rule:evenodd; clip-rule:evenodd" xmlns:xlink="http://www.w3.org/1999/xlink">
<g><path style="opacity:0.998" fill="#50b196" d="M 1744.5,-0.5 C 1825.83,-0.5 1907.17,-0.5 1988.5,-0.5C 2014.49,5.98594 2030.65,22.3193 2037,48.5C 2037.67,63.1667 2037.67,77.8333 2037,92.5C 2030.83,118.667 2014.67,134.833 1988.5,141C 1907.17,141.667 1825.83,141.667 1744.5,141C 1718.33,134.833 1702.17,118.667 1696,92.5C 1695.33,77.8333 1695.33,63.1667 1696,48.5C 1702.35,22.3193 1718.51,5.98594 1744.5,-0.5 Z"/></g>
<g><path style="opacity:0.999" fill="#50b196" d="M 2168.5,-0.5 C 2249.83,-0.5 2331.17,-0.5 2412.5,-0.5C 2438.49,5.98594 2454.65,22.3193 2461,48.5C 2461.67,63.1667 2461.67,77.8333 2461,92.5C 2454.83,118.667 2438.67,134.833 2412.5,141C 2331.17,141.667 2249.83,141.667 2168.5,141C 2142.33,134.833 2126.17,118.667 2120,92.5C 2119.33,77.8333 2119.33,63.1667 2120,48.5C 2126.35,22.3193 2142.51,5.98594 2168.5,-0.5 Z"/></g>
<g><path style="opacity:0.998" fill="#50b196" d="M 2592.5,-0.5 C 2673.83,-0.5 2755.17,-0.5 2836.5,-0.5C 2862.49,5.98594 2878.65,22.3193 2885,48.5C 2885.67,63.1667 2885.67,77.8333 2885,92.5C 2878.83,118.667 2862.67,134.833 2836.5,141C 2755.17,141.667 2673.83,141.667 2592.5,141C 2565.11,134.279 2548.61,117.112 2543,89.5C 2542.33,77.1667 2542.33,64.8333 2543,52.5C 2548.34,24.3282 2564.84,6.66156 2592.5,-0.5 Z"/></g>
<g><path style="opacity:0.998" fill="#50b196" d="M 3016.5,-0.5 C 3097.83,-0.5 3179.17,-0.5 3260.5,-0.5C 3286.5,6.16667 3302.83,22.5 3309.5,48.5C 3309.5,63.1667 3309.5,77.8333 3309.5,92.5C 3303.01,118.485 3286.68,134.652 3260.5,141C 3179.17,141.667 3097.83,141.667 3016.5,141C 2990.33,134.833 2974.17,118.667 2968,92.5C 2967.33,77.8333 2967.33,63.1667 2968,48.5C 2974.35,22.3193 2990.51,5.98594 3016.5,-0.5 Z"/></g>
<g><path style="opacity:0.998" fill="#50b196" d="M 292.5,145.5 C 211.167,145.5 129.833,145.5 48.5,145.5C 22.5,138.833 6.16667,122.5 -0.5,96.5C -0.5,81.8333 -0.5,67.1667 -0.5,52.5C 5.98594,26.5146 22.3193,10.3479 48.5,4C 129.833,3.33333 211.167,3.33333 292.5,4C 318.667,10.1667 334.833,26.3333 341,52.5C 341.667,67.1667 341.667,81.8333 341,96.5C 334.652,122.681 318.485,139.014 292.5,145.5 Z"/></g>
<g><path style="opacity:0.998" fill="#50b196" d="M 716.5,145.5 C 635.167,145.5 553.833,145.5 472.5,145.5C 446.515,139.014 430.348,122.681 424,96.5C 423.333,81.8333 423.333,67.1667 424,52.5C 430.167,26.3333 446.333,10.1667 472.5,4C 553.833,3.33333 635.167,3.33333 716.5,4C 742.667,10.1667 758.833,26.3333 765,52.5C 765.667,67.1667 765.667,81.8333 765,96.5C 758.652,122.681 742.485,139.014 716.5,145.5 Z"/></g>
<g><path style="opacity:0.998" fill="#50b196" d="M 1140.5,145.5 C 1059.17,145.5 977.833,145.5 896.5,145.5C 870.515,139.014 854.348,122.681 848,96.5C 847.333,81.8333 847.333,67.1667 848,52.5C 854.167,26.3333 870.333,10.1667 896.5,4C 977.833,3.33333 1059.17,3.33333 1140.5,4C 1166.67,10.1667 1182.83,26.3333 1189,52.5C 1189.67,67.1667 1189.67,81.8333 1189,96.5C 1182.65,122.681 1166.49,139.014 1140.5,145.5 Z"/></g>
<g><path style="opacity:0.998" fill="#50b196" d="M 1564.5,145.5 C 1483.17,145.5 1401.83,145.5 1320.5,145.5C 1294.51,139.014 1278.35,122.681 1272,96.5C 1271.33,81.8333 1271.33,67.1667 1272,52.5C 1278.17,26.3333 1294.33,10.1667 1320.5,4C 1401.83,3.33333 1483.17,3.33333 1564.5,4C 1590.67,10.1667 1606.83,26.3333 1613,52.5C 1613.67,67.1667 1613.67,81.8333 1613,96.5C 1606.65,122.681 1590.49,139.014 1564.5,145.5 Z"/></g>
<g><path style="opacity:1" fill="#f8fcfb" d="M 1859.5,41.5 C 1861.83,41.5 1864.17,41.5 1866.5,41.5C 1866.5,50.1667 1866.5,58.8333 1866.5,67.5C 1864.17,67.5 1861.83,67.5 1859.5,67.5C 1859.5,64.1667 1859.5,60.8333 1859.5,57.5C 1854.65,56.2772 1851.48,57.9438 1850,62.5C 1845.06,66.7224 1839.56,67.5558 1833.5,65C 1827.71,59.5527 1827.04,53.5527 1831.5,47C 1838.62,43.128 1845.12,43.9613 1851,49.5C 1851.48,50.448 1851.65,51.448 1851.5,52.5C 1854.17,52.5 1856.83,52.5 1859.5,52.5C 1859.5,48.8333 1859.5,45.1667 1859.5,41.5 Z"/></g>
<g><path style="opacity:1" fill="#fefefe" d="M 1909.5,41.5 C 1909.5,47.5 1909.5,53.5 1909.5,59.5C 1911.83,59.5 1914.17,59.5 1916.5,59.5C 1916.5,61.1667 1916.5,62.8333 1916.5,64.5C 1914.17,64.5 1911.83,64.5 1909.5,64.5C 1909.5,72.1667 1909.5,79.8333 1909.5,87.5C 1907.5,87.5 1905.5,87.5 1903.5,87.5C 1903.5,72.1667 1903.5,56.8333 1903.5,41.5C 1905.5,41.5 1907.5,41.5 1909.5,41.5 Z"/></g>
<g><path style="opacity:1" fill="#81c6b3" d="M 1909.5,41.5 C 1910.49,46.9753 1910.82,52.642 1910.5,58.5C 1912.74,58.2053 1914.74,58.5386 1916.5,59.5C 1914.17,59.5 1911.83,59.5 1909.5,59.5C 1909.5,53.5 1909.5,47.5 1909.5,41.5 Z"/></g>
<g><path style="opacity:1" fill="#fefefe" d="M 2287.5,41.5 C 2287.5,47.5 2287.5,53.5 2287.5,59.5C 2289.83,59.5 2292.17,59.5 2294.5,59.5C 2294.5,61.1667 2294.5,62.8333 2294.5,64.5C 2292.17,64.5 2289.83,64.5 2287.5,64.5C 2287.5,72.1667 2287.5,79.8333 2287.5,87.5C 2285.5,87.5 2283.5,87.5 2281.5,87.5C 2281.5,72.1667 2281.5,56.8333 2281.5,41.5C 2283.5,41.5 2285.5,41.5 2287.5,41.5 Z"/></g>
<g><path style="opacity:1" fill="#81c6b3" d="M 2287.5,41.5 C 2288.49,46.9753 2288.82,52.642 2288.5,58.5C 2290.74,58.2053 2292.74,58.5386 2294.5,59.5C 2292.17,59.5 2289.83,59.5 2287.5,59.5C 2287.5,53.5 2287.5,47.5 2287.5,41.5 Z"/></g>
<g><path style="opacity:1" fill="#fcfdfd" d="M 2336.5,64.5 C 2335.51,71.9818 2335.17,79.6484 2335.5,87.5C 2333.5,87.5 2331.5,87.5 2329.5,87.5C 2329.5,72.1667 2329.5,56.8333 2329.5,41.5C 2331.5,41.5 2333.5,41.5 2335.5,41.5C 2335.5,47.1667 2335.5,52.8333 2335.5,58.5C 2337.17,58.5 2338.83,58.5 2340.5,58.5C 2340.5,60.5 2340.5,62.5 2340.5,64.5C 2339.17,64.5 2337.83,64.5 2336.5,64.5 Z"/></g>
<g><path style="opacity:1" fill="#fbfdfc" d="M 2707.5,63.5 C 2704.83,63.5 2702.17,63.5 2699.5,63.5C 2699.46,74.3742 2694.13,78.8742 2683.5,77C 2677.08,70.8466 2674.92,63.3466 2677,54.5C 2681.49,43.574 2688.15,41.9074 2697,49.5C 2698.91,52.2065 2699.74,55.2065 2699.5,58.5C 2702.17,58.5 2704.83,58.5 2707.5,58.5C 2708.49,53.3595 2708.82,48.0262 2708.5,42.5C 2710.17,42.5 2711.83,42.5 2713.5,42.5C 2713.5,57.5 2713.5,72.5 2713.5,87.5C 2711.83,87.5 2710.17,87.5 2708.5,87.5C 2708.83,79.3159 2708.49,71.3159 2707.5,63.5 Z"/></g>
<g><path style="opacity:1" fill="#def0eb" d="M 2707.5,63.5 C 2708.49,71.3159 2708.83,79.3159 2708.5,87.5C 2710.17,87.5 2711.83,87.5 2713.5,87.5C 2713.5,72.5 2713.5,57.5 2713.5,42.5C 2711.83,42.5 2710.17,42.5 2708.5,42.5C 2708.82,48.0262 2708.49,53.3595 2707.5,58.5C 2707.5,52.8333 2707.5,47.1667 2707.5,41.5C 2709.83,41.5 2712.17,41.5 2714.5,41.5C 2714.5,57.1667 2714.5,72.8333 2714.5,88.5C 2712.17,88.5 2709.83,88.5 2707.5,88.5C 2707.5,80.1667 2707.5,71.8333 2707.5,63.5 Z"/></g>
<g><path style="opacity:1" fill="#fafdfc" d="M 2733.5,58.5 C 2741.65,59.4927 2749.98,59.8261 2758.5,59.5C 2758.5,60.8333 2758.5,62.1667 2758.5,63.5C 2748.17,63.5 2737.83,63.5 2727.5,63.5C 2727.5,59.5 2727.5,55.5 2727.5,51.5C 2735.83,51.5 2744.17,51.5 2752.5,51.5C 2752.77,49.901 2752.43,48.5676 2751.5,47.5C 2743.17,47.5 2734.83,47.5 2726.5,47.5C 2726.5,45.8333 2726.5,44.1667 2726.5,42.5C 2737.17,42.5 2747.83,42.5 2758.5,42.5C 2758.5,46.8333 2758.5,51.1667 2758.5,55.5C 2750.17,55.5 2741.83,55.5 2733.5,55.5C 2733.5,56.5 2733.5,57.5 2733.5,58.5 Z"/></g>
<g><path style="opacity:1" fill="#f8fcfb" d="M 565.5,45.5 C 567.833,45.5 570.167,45.5 572.5,45.5C 572.5,46.8333 572.5,48.1667 572.5,49.5C 575.833,49.5 579.167,49.5 582.5,49.5C 582.5,51.1667 582.5,52.8333 582.5,54.5C 573.5,54.5 564.5,54.5 555.5,54.5C 555.5,52.8333 555.5,51.1667 555.5,49.5C 558.833,49.5 562.167,49.5 565.5,49.5C 565.5,48.1667 565.5,46.8333 565.5,45.5 Z"/></g>
<g><path style="opacity:1" fill="#fdfefe" d="M 983.5,53.5 C 974.5,53.5 965.5,53.5 956.5,53.5C 956.5,52.1667 956.5,50.8333 956.5,49.5C 959.833,49.5 963.167,49.5 966.5,49.5C 966.5,48.1667 966.5,46.8333 966.5,45.5C 968.833,45.5 971.167,45.5 973.5,45.5C 973.5,46.8333 973.5,48.1667 973.5,49.5C 976.833,49.5 980.167,49.5 983.5,49.5C 983.5,50.8333 983.5,52.1667 983.5,53.5 Z"/></g>
<g><path style="opacity:1" fill="#fdfefe" d="M 1384.5,53.5 C 1375.5,53.5 1366.5,53.5 1357.5,53.5C 1357.5,52.1667 1357.5,50.8333 1357.5,49.5C 1360.83,49.5 1364.17,49.5 1367.5,49.5C 1367.5,48.1667 1367.5,46.8333 1367.5,45.5C 1369.83,45.5 1372.17,45.5 1374.5,45.5C 1374.5,46.8333 1374.5,48.1667 1374.5,49.5C 1377.83,49.5 1381.17,49.5 1384.5,49.5C 1384.5,50.8333 1384.5,52.1667 1384.5,53.5 Z"/></g>
<g><path style="opacity:1" fill="#f7fbfa" d="M 2258.5,45.5 C 2266.38,43.5263 2271.88,46.193 2275,53.5C 2275.67,58.5 2275.67,63.5 2275,68.5C 2272.02,77.3705 2266.19,79.8705 2257.5,76C 2249.23,65.488 2249.56,55.3213 2258.5,45.5 Z"/></g>
<g><path style="opacity:1" fill="#fefefe" d="M 167.5,45.5 C 167.5,51.5 167.5,57.5 167.5,63.5C 169.833,63.5 172.167,63.5 174.5,63.5C 174.5,65.1667 174.5,66.8333 174.5,68.5C 172.167,68.5 169.833,68.5 167.5,68.5C 167.5,76.1667 167.5,83.8333 167.5,91.5C 165.5,91.5 163.5,91.5 161.5,91.5C 161.5,76.1667 161.5,60.8333 161.5,45.5C 163.5,45.5 165.5,45.5 167.5,45.5 Z"/></g>
<g><path style="opacity:1" fill="#81c6b3" d="M 167.5,45.5 C 168.489,50.9753 168.822,56.642 168.5,62.5C 170.735,62.2053 172.735,62.5386 174.5,63.5C 172.167,63.5 169.833,63.5 167.5,63.5C 167.5,57.5 167.5,51.5 167.5,45.5 Z"/></g>
<g><path style="opacity:1" fill="#fefefe" d="M 209.5,45.5 C 211.5,45.5 213.5,45.5 215.5,45.5C 215.5,60.8333 215.5,76.1667 215.5,91.5C 213.5,91.5 211.5,91.5 209.5,91.5C 209.5,76.1667 209.5,60.8333 209.5,45.5 Z"/></g>
<g><path style="opacity:1" fill="#fdfefe" d="M 597.5,57.5 C 597.5,59.1667 597.5,60.8333 597.5,62.5C 595.585,62.2155 593.919,62.5489 592.5,63.5C 591.518,66.9619 591.185,70.6286 591.5,74.5C 589.5,74.5 587.5,74.5 585.5,74.5C 585.5,64.8333 585.5,55.1667 585.5,45.5C 587.5,45.5 589.5,45.5 591.5,45.5C 591.5,49.5 591.5,53.5 591.5,57.5C 593.5,57.5 595.5,57.5 597.5,57.5 Z"/></g>
<g><path style="opacity:1" fill="#bee2d7" d="M 625.5,46.5 C 625.5,55.1667 625.5,63.8333 625.5,72.5C 624.833,70.8333 624.167,69.1667 623.5,67.5C 623.5,66.8333 623.5,66.1667 623.5,65.5C 624.167,59.1667 624.833,52.8333 625.5,46.5 Z"/></g>
<g><path style="opacity:1" fill="#fbfdfd" d="M 640.5,45.5 C 640.5,54.8333 640.5,64.1667 640.5,73.5C 638.5,73.5 636.5,73.5 634.5,73.5C 634.5,69.8333 634.5,66.1667 634.5,62.5C 633.167,62.5 631.833,62.5 630.5,62.5C 630.5,65.8333 630.5,69.1667 630.5,72.5C 628.833,72.5 627.167,72.5 625.5,72.5C 625.5,63.8333 625.5,55.1667 625.5,46.5C 627.167,46.5 628.833,46.5 630.5,46.5C 630.5,49.8333 630.5,53.1667 630.5,56.5C 631.833,56.5 633.167,56.5 634.5,56.5C 634.5,52.8333 634.5,49.1667 634.5,45.5C 636.5,45.5 638.5,45.5 640.5,45.5 Z"/></g>
<g><path style="opacity:1" fill="#a5d7c8" d="M 640.5,45.5 C 641.494,54.9856 641.827,64.6522 641.5,74.5C 638.941,74.8016 636.607,74.4682 634.5,73.5C 636.5,73.5 638.5,73.5 640.5,73.5C 640.5,64.1667 640.5,54.8333 640.5,45.5 Z"/></g>
<g><path style="opacity:1" fill="#fefefe" d="M 998.5,55.5 C 998.5,57.1667 998.5,58.8333 998.5,60.5C 996.5,60.5 994.5,60.5 992.5,60.5C 992.5,63.8333 992.5,67.1667 992.5,70.5C 990.5,70.5 988.5,70.5 986.5,70.5C 986.5,62.1667 986.5,53.8333 986.5,45.5C 988.5,45.5 990.5,45.5 992.5,45.5C 992.5,48.8333 992.5,52.1667 992.5,55.5C 994.5,55.5 996.5,55.5 998.5,55.5 Z"/></g>
<g><path style="opacity:1" fill="#fcfdfd" d="M 1034.5,67.5 C 1032.05,66.5269 1029.39,66.1936 1026.5,66.5C 1026.5,71.1667 1026.5,75.8333 1026.5,80.5C 1019.17,80.5 1011.83,80.5 1004.5,80.5C 1004.5,70.5 1004.5,60.5 1004.5,50.5C 1011.5,50.5 1018.5,50.5 1025.5,50.5C 1025.19,54.3714 1025.52,58.0381 1026.5,61.5C 1029.17,61.5 1031.83,61.5 1034.5,61.5C 1035.49,56.6946 1035.82,51.6946 1035.5,46.5C 1037.17,46.5 1038.83,46.5 1040.5,46.5C 1040.5,61.5 1040.5,76.5 1040.5,91.5C 1038.83,91.5 1037.17,91.5 1035.5,91.5C 1035.83,83.3159 1035.49,75.3159 1034.5,67.5 Z"/></g>
<g><path style="opacity:1" fill="#def0eb" d="M 1034.5,67.5 C 1035.49,75.3159 1035.83,83.3159 1035.5,91.5C 1037.17,91.5 1038.83,91.5 1040.5,91.5C 1040.5,76.5 1040.5,61.5 1040.5,46.5C 1038.83,46.5 1037.17,46.5 1035.5,46.5C 1035.82,51.6946 1035.49,56.6946 1034.5,61.5C 1034.5,56.1667 1034.5,50.8333 1034.5,45.5C 1036.83,45.5 1039.17,45.5 1041.5,45.5C 1041.5,61.1667 1041.5,76.8333 1041.5,92.5C 1039.17,92.5 1036.83,92.5 1034.5,92.5C 1034.5,84.1667 1034.5,75.8333 1034.5,67.5 Z"/></g>
<g><path style="opacity:1" fill="#fefefe" d="M 1086.5,45.5 C 1086.5,60.8333 1086.5,76.1667 1086.5,91.5C 1084.5,91.5 1082.5,91.5 1080.5,91.5C 1080.5,76.1667 1080.5,60.8333 1080.5,45.5C 1082.5,45.5 1084.5,45.5 1086.5,45.5 Z"/></g>
<g><path style="opacity:1" fill="#cde8e1" d="M 1086.5,45.5 C 1087.5,60.9911 1087.83,76.6578 1087.5,92.5C 1084.94,92.8016 1082.61,92.4682 1080.5,91.5C 1082.5,91.5 1084.5,91.5 1086.5,91.5C 1086.5,76.1667 1086.5,60.8333 1086.5,45.5 Z"/></g>
<g><path style="opacity:1" fill="#fefefe" d="M 1399.5,55.5 C 1399.5,57.1667 1399.5,58.8333 1399.5,60.5C 1397.5,60.5 1395.5,60.5 1393.5,60.5C 1393.5,63.8333 1393.5,67.1667 1393.5,70.5C 1391.5,70.5 1389.5,70.5 1387.5,70.5C 1387.5,62.1667 1387.5,53.8333 1387.5,45.5C 1389.5,45.5 1391.5,45.5 1393.5,45.5C 1393.5,48.8333 1393.5,52.1667 1393.5,55.5C 1395.5,55.5 1397.5,55.5 1399.5,55.5 Z"/></g>
<g><path style="opacity:1" fill="#fefefe" d="M 1439.5,45.5 C 1439.5,51.5 1439.5,57.5 1439.5,63.5C 1441.83,63.5 1444.17,63.5 1446.5,63.5C 1446.5,65.1667 1446.5,66.8333 1446.5,68.5C 1444.17,68.5 1441.83,68.5 1439.5,68.5C 1439.5,76.1667 1439.5,83.8333 1439.5,91.5C 1437.5,91.5 1435.5,91.5 1433.5,91.5C 1433.5,76.1667 1433.5,60.8333 1433.5,45.5C 1435.5,45.5 1437.5,45.5 1439.5,45.5 Z"/></g>
<g><path style="opacity:1" fill="#81c6b3" d="M 1439.5,45.5 C 1440.49,50.9753 1440.82,56.642 1440.5,62.5C 1442.74,62.2053 1444.74,62.5386 1446.5,63.5C 1444.17,63.5 1441.83,63.5 1439.5,63.5C 1439.5,57.5 1439.5,51.5 1439.5,45.5 Z"/></g>
<g><path style="opacity:1" fill="#f9fcfb" d="M 1481.5,67.5 C 1478.83,67.5 1476.17,67.5 1473.5,67.5C 1473.5,72.1667 1473.5,76.8333 1473.5,81.5C 1466.17,81.5 1458.83,81.5 1451.5,81.5C 1451.5,70.8333 1451.5,60.1667 1451.5,49.5C 1453.5,49.5 1455.5,49.5 1457.5,49.5C 1457.5,53.1667 1457.5,56.8333 1457.5,60.5C 1460.5,60.5 1463.5,60.5 1466.5,60.5C 1466.5,56.8333 1466.5,53.1667 1466.5,49.5C 1468.83,49.5 1471.17,49.5 1473.5,49.5C 1473.5,53.5 1473.5,57.5 1473.5,61.5C 1476.17,61.5 1478.83,61.5 1481.5,61.5C 1482.49,56.6946 1482.82,51.6946 1482.5,46.5C 1484.17,46.5 1485.83,46.5 1487.5,46.5C 1487.5,61.5 1487.5,76.5 1487.5,91.5C 1485.83,91.5 1484.17,91.5 1482.5,91.5C 1482.83,83.3159 1482.49,75.3159 1481.5,67.5 Z"/></g>
<g><path style="opacity:1" fill="#def0eb" d="M 1481.5,67.5 C 1482.49,75.3159 1482.83,83.3159 1482.5,91.5C 1484.17,91.5 1485.83,91.5 1487.5,91.5C 1487.5,76.5 1487.5,61.5 1487.5,46.5C 1485.83,46.5 1484.17,46.5 1482.5,46.5C 1482.82,51.6946 1482.49,56.6946 1481.5,61.5C 1481.5,56.1667 1481.5,50.8333 1481.5,45.5C 1483.83,45.5 1486.17,45.5 1488.5,45.5C 1488.5,61.1667 1488.5,76.8333 1488.5,92.5C 1486.17,92.5 1483.83,92.5 1481.5,92.5C 1481.5,84.1667 1481.5,75.8333 1481.5,67.5 Z"/></g>
<g><path style="opacity:1" fill="#fefefe" d="M 1527.5,45.5 C 1529.5,45.5 1531.5,45.5 1533.5,45.5C 1533.5,60.8333 1533.5,76.1667 1533.5,91.5C 1531.5,91.5 1529.5,91.5 1527.5,91.5C 1527.5,76.1667 1527.5,60.8333 1527.5,45.5 Z"/></g>
<g><path style="opacity:1" fill="#acdacd" d="M 1896.5,76.5 C 1896.5,66.5 1896.5,56.5 1896.5,46.5C 1889.5,46.5 1882.5,46.5 1875.5,46.5C 1875.5,56.5 1875.5,66.5 1875.5,76.5C 1874.51,66.3468 1874.17,56.0135 1874.5,45.5C 1882.17,45.5 1889.83,45.5 1897.5,45.5C 1897.83,56.0135 1897.49,66.3468 1896.5,76.5 Z"/></g>
<g><path style="opacity:1" fill="#fefefe" d="M 1896.5,76.5 C 1889.5,76.5 1882.5,76.5 1875.5,76.5C 1875.5,66.5 1875.5,56.5 1875.5,46.5C 1882.5,46.5 1889.5,46.5 1896.5,46.5C 1896.5,56.5 1896.5,66.5 1896.5,76.5 Z"/></g>
<g><path style="opacity:1" fill="#d1eae3" d="M 2303.5,56.5 C 2302.52,53.3752 2302.19,50.0419 2302.5,46.5C 2301.17,46.5 2299.83,46.5 2298.5,46.5C 2298.5,56.5 2298.5,66.5 2298.5,76.5C 2302.5,76.5 2306.5,76.5 2310.5,76.5C 2310.5,66.5 2310.5,56.5 2310.5,46.5C 2310.83,46.5 2311.17,46.5 2311.5,46.5C 2311.5,56.8333 2311.5,67.1667 2311.5,77.5C 2306.83,77.5 2302.17,77.5 2297.5,77.5C 2297.5,66.8333 2297.5,56.1667 2297.5,45.5C 2299.5,45.5 2301.5,45.5 2303.5,45.5C 2303.5,49.1667 2303.5,52.8333 2303.5,56.5 Z"/></g>
<g><path style="opacity:1" fill="#fcfefd" d="M 2303.5,56.5 C 2304.17,56.5 2304.83,56.5 2305.5,56.5C 2306.48,53.3752 2306.81,50.0419 2306.5,46.5C 2307.83,46.5 2309.17,46.5 2310.5,46.5C 2310.5,56.5 2310.5,66.5 2310.5,76.5C 2306.5,76.5 2302.5,76.5 2298.5,76.5C 2298.5,66.5 2298.5,56.5 2298.5,46.5C 2299.83,46.5 2301.17,46.5 2302.5,46.5C 2302.19,50.0419 2302.52,53.3752 2303.5,56.5 Z"/></g>
<g><path style="opacity:1" fill="#a8d8cb" d="M 2311.5,46.5 C 2311.17,46.5 2310.83,46.5 2310.5,46.5C 2309.17,46.5 2307.83,46.5 2306.5,46.5C 2306.81,50.0419 2306.48,53.3752 2305.5,56.5C 2305.5,52.8333 2305.5,49.1667 2305.5,45.5C 2307.74,45.2053 2309.74,45.5386 2311.5,46.5 Z"/></g>
<g><path style="opacity:1" fill="#95cfbf" d="M 2318.5,46.5 C 2316.83,46.5 2315.17,46.5 2313.5,46.5C 2313.5,56.8333 2313.5,67.1667 2313.5,77.5C 2312.51,67.0131 2312.17,56.3464 2312.5,45.5C 2314.74,45.2053 2316.74,45.5386 2318.5,46.5 Z"/></g>
<g><path style="opacity:1" fill="#fcfefd" d="M 2318.5,46.5 C 2317.93,50.3293 2318.6,53.6627 2320.5,56.5C 2321.48,53.3752 2321.81,50.0419 2321.5,46.5C 2323.17,46.5 2324.83,46.5 2326.5,46.5C 2326.5,56.8333 2326.5,67.1667 2326.5,77.5C 2322.17,77.5 2317.83,77.5 2313.5,77.5C 2313.5,67.1667 2313.5,56.8333 2313.5,46.5C 2315.17,46.5 2316.83,46.5 2318.5,46.5 Z"/></g>
<g><path style="opacity:1" fill="#8bcab8" d="M 2326.5,46.5 C 2324.83,46.5 2323.17,46.5 2321.5,46.5C 2321.81,50.0419 2321.48,53.3752 2320.5,56.5C 2320.5,52.8333 2320.5,49.1667 2320.5,45.5C 2322.74,45.2053 2324.74,45.5386 2326.5,46.5 Z"/></g>
<g><path style="opacity:1" fill="#fdfefe" d="M 3110.5,46.5 C 3112.17,46.5 3113.83,46.5 3115.5,46.5C 3115.5,59.5 3115.5,72.5 3115.5,85.5C 3113.83,85.5 3112.17,85.5 3110.5,85.5C 3110.5,72.5 3110.5,59.5 3110.5,46.5 Z"/></g>
<g><path style="opacity:1" fill="#e2f2ee" d="M 3156.5,46.5 C 3156.5,59.1667 3156.5,71.8333 3156.5,84.5C 3157.83,84.5 3159.17,84.5 3160.5,84.5C 3160.18,77.9779 3160.51,71.6446 3161.5,65.5C 3161.5,72.1667 3161.5,78.8333 3161.5,85.5C 3159.5,85.5 3157.5,85.5 3155.5,85.5C 3155.17,72.3226 3155.5,59.3226 3156.5,46.5 Z"/></g>
<g><path style="opacity:1" fill="#fbfdfd" d="M 3156.5,46.5 C 3158.17,46.5 3159.83,46.5 3161.5,46.5C 3161.5,51.5 3161.5,56.5 3161.5,61.5C 3163.17,61.5 3164.83,61.5 3166.5,61.5C 3166.5,62.8333 3166.5,64.1667 3166.5,65.5C 3164.83,65.5 3163.17,65.5 3161.5,65.5C 3160.51,71.6446 3160.18,77.9779 3160.5,84.5C 3159.17,84.5 3157.83,84.5 3156.5,84.5C 3156.5,71.8333 3156.5,59.1667 3156.5,46.5 Z"/></g>
<g><path style="opacity:1" fill="#fcfdfd" d="M 3196.5,46.5 C 3198.17,46.5 3199.83,46.5 3201.5,46.5C 3201.5,59.5 3201.5,72.5 3201.5,85.5C 3199.83,85.5 3198.17,85.5 3196.5,85.5C 3196.5,78.5 3196.5,71.5 3196.5,64.5C 3194.17,64.5 3191.83,64.5 3189.5,64.5C 3189.5,62.8333 3189.5,61.1667 3189.5,59.5C 3191.83,59.5 3194.17,59.5 3196.5,59.5C 3196.5,55.1667 3196.5,50.8333 3196.5,46.5 Z"/></g>
<g><path style="opacity:1" fill="#fefffe" d="M 3240.5,46.5 C 3240.5,59.1667 3240.5,71.8333 3240.5,84.5C 3238.83,84.5 3237.17,84.5 3235.5,84.5C 3235.5,71.8333 3235.5,59.1667 3235.5,46.5C 3237.17,46.5 3238.83,46.5 3240.5,46.5 Z"/></g>
<g><path style="opacity:1" fill="#bee2d8" d="M 3240.5,46.5 C 3241.5,59.3226 3241.83,72.3226 3241.5,85.5C 3239.26,85.7947 3237.26,85.4614 3235.5,84.5C 3237.17,84.5 3238.83,84.5 3240.5,84.5C 3240.5,71.8333 3240.5,59.1667 3240.5,46.5 Z"/></g>
<g><path style="opacity:1" fill="#fbfdfc" d="M 3102.5,47.5 C 3104.17,47.5 3105.83,47.5 3107.5,47.5C 3107.5,59.5 3107.5,71.5 3107.5,83.5C 3105.83,83.5 3104.17,83.5 3102.5,83.5C 3102.5,76.8333 3102.5,70.1667 3102.5,63.5C 3099.83,63.5 3097.17,63.5 3094.5,63.5C 3094.5,61.8333 3094.5,60.1667 3094.5,58.5C 3097.17,58.5 3099.83,58.5 3102.5,58.5C 3102.5,54.8333 3102.5,51.1667 3102.5,47.5 Z"/></g>
<g><path style="opacity:1" fill="#f6fbf9" d="M 623.5,65.5 C 623.5,66.1667 623.5,66.8333 623.5,67.5C 622.928,68.9733 622.095,70.3066 621,71.5C 618.037,69.5394 615.371,67.206 613,64.5C 610.974,68.0262 608.141,70.6929 604.5,72.5C 602.137,70.8862 601.471,68.8862 602.5,66.5C 608.725,62.1793 611.058,56.1793 609.5,48.5C 611.833,48.5 614.167,48.5 616.5,48.5C 615.175,55.8989 617.509,61.5656 623.5,65.5 Z"/></g>
<g><path style="opacity:1" fill="#fafcfc" d="M 3078.5,64.5 C 3078.5,65.8333 3078.5,67.1667 3078.5,68.5C 3067.17,68.5 3055.83,68.5 3044.5,68.5C 3044.5,67.1667 3044.5,65.8333 3044.5,64.5C 3049.17,64.5 3053.83,64.5 3058.5,64.5C 3058.5,63.5 3058.5,62.5 3058.5,61.5C 3055.17,61.5 3051.83,61.5 3048.5,61.5C 3048.5,57.1667 3048.5,52.8333 3048.5,48.5C 3057.17,48.5 3065.83,48.5 3074.5,48.5C 3074.5,49.8333 3074.5,51.1667 3074.5,52.5C 3067.5,52.5 3060.5,52.5 3053.5,52.5C 3053.5,54.1667 3053.5,55.8333 3053.5,57.5C 3060.83,57.5 3068.17,57.5 3075.5,57.5C 3075.5,58.8333 3075.5,60.1667 3075.5,61.5C 3071.83,61.5 3068.17,61.5 3064.5,61.5C 3064.5,62.5 3064.5,63.5 3064.5,64.5C 3069.17,64.5 3073.83,64.5 3078.5,64.5 Z"/></g>
<g><path style="opacity:1" fill="#f7fbfa" d="M 138.5,49.5 C 146.384,47.5263 151.884,50.193 155,57.5C 155.667,62.5 155.667,67.5 155,72.5C 152.021,81.3705 146.188,83.8705 137.5,80C 129.231,69.488 129.564,59.3213 138.5,49.5 Z"/></g>
<g><path style="opacity:1" fill="#f6fbf9" d="M 186.5,49.5 C 195.601,47.7986 201.101,51.4652 203,60.5C 203.867,65.6973 203.2,70.6973 201,75.5C 196.895,81.6016 191.395,83.1016 184.5,80C 178.653,73.3969 177.153,65.8969 180,57.5C 181.305,54.0386 183.471,51.372 186.5,49.5 Z"/></g>
<g><path style="opacity:1" fill="#d2eae4" d="M 1004.5,50.5 C 1011.65,49.5084 1018.98,49.175 1026.5,49.5C 1026.5,53.5 1026.5,57.5 1026.5,61.5C 1025.52,58.0381 1025.19,54.3714 1025.5,50.5C 1018.5,50.5 1011.5,50.5 1004.5,50.5 Z"/></g>
<g><path style="opacity:1" fill="#f7fbfa" d="M 1410.5,49.5 C 1418.38,47.5263 1423.88,50.193 1427,57.5C 1427.67,62.5 1427.67,67.5 1427,72.5C 1424.02,81.3705 1418.19,83.8705 1409.5,80C 1401.23,69.488 1401.56,59.3213 1410.5,49.5 Z"/></g>
<g><path style="opacity:1" fill="#f7fbfa" d="M 3136.5,49.5 C 3143.84,47.6776 3148.67,50.3443 3151,57.5C 3151.7,61.9054 3151.36,66.2388 3150,70.5C 3146.61,76.4667 3141.77,77.9667 3135.5,75C 3133.96,73.4207 3132.79,71.5873 3132,69.5C 3131.33,65.1667 3131.33,60.8333 3132,56.5C 3132.9,53.7666 3134.4,51.4333 3136.5,49.5 Z"/></g>
<g><path style="opacity:1" fill="#f7fbfa" d="M 3212.5,49.5 C 3214.5,49.5 3216.5,49.5 3218.5,49.5C 3218.33,54.5111 3218.5,59.5111 3219,64.5C 3219.29,66.0441 3219.96,67.3774 3221,68.5C 3223.18,62.3756 3224.01,56.0423 3223.5,49.5C 3225.17,49.5 3226.83,49.5 3228.5,49.5C 3227.1,58.3014 3229.1,66.1347 3234.5,73C 3233.33,74.1667 3232.17,75.3333 3231,76.5C 3228.61,74.6452 3226.95,72.3118 3226,69.5C 3222.36,78.7541 3218.86,78.7541 3215.5,69.5C 3214.5,72.1636 3213,74.497 3211,76.5C 3210,75.5 3209,74.5 3208,73.5C 3209.51,70.7913 3210.84,67.7913 3212,64.5C 3212.5,59.5111 3212.67,54.5111 3212.5,49.5 Z"/></g>
<g><path style="opacity:1" fill="#fbfdfd" d="M 1051.5,50.5 C 1053.5,50.5 1055.5,50.5 1057.5,50.5C 1057.5,58.5 1057.5,66.5 1057.5,74.5C 1064.3,74.8722 1070.97,74.2056 1077.5,72.5C 1077.5,74.5 1077.5,76.5 1077.5,78.5C 1068.88,79.6951 1060.21,80.3618 1051.5,80.5C 1051.5,70.5 1051.5,60.5 1051.5,50.5 Z"/></g>
<g><path style="opacity:1" fill="#fafdfc" d="M 1497.5,50.5 C 1505.83,50.5 1514.17,50.5 1522.5,50.5C 1522.5,52.1667 1522.5,53.8333 1522.5,55.5C 1519.5,55.5 1516.5,55.5 1513.5,55.5C 1512.81,64.9493 1516.47,72.116 1524.5,77C 1523.69,78.9717 1522.36,80.4717 1520.5,81.5C 1515.81,78.9729 1512.31,75.3062 1510,70.5C 1508.1,75.73 1504.77,79.73 1500,82.5C 1498.04,81.7082 1496.54,80.3749 1495.5,78.5C 1503.71,73.0823 1507.37,65.4157 1506.5,55.5C 1503.5,55.5 1500.5,55.5 1497.5,55.5C 1497.5,53.8333 1497.5,52.1667 1497.5,50.5 Z"/></g>
<g><path style="opacity:1" fill="#58b49a" d="M 1837.5,49.5 C 1845.37,49.2758 1847.7,52.6092 1844.5,59.5C 1841.63,60.7946 1838.8,60.7946 1836,59.5C 1833.73,55.6965 1834.23,52.3632 1837.5,49.5 Z"/></g>
<g><path style="opacity:1" fill="#c4e4dc" d="M 2751.5,47.5 C 2752.43,48.5676 2752.77,49.901 2752.5,51.5C 2744.17,51.5 2735.83,51.5 2727.5,51.5C 2727.5,55.5 2727.5,59.5 2727.5,63.5C 2726.52,59.3656 2726.18,55.0323 2726.5,50.5C 2734.83,50.5 2743.17,50.5 2751.5,50.5C 2751.5,49.5 2751.5,48.5 2751.5,47.5 Z"/></g>
<g><path style="opacity:1" fill="#b1dcd0" d="M 3089.5,50.5 C 3087.83,50.5 3086.17,50.5 3084.5,50.5C 3084.5,58.8333 3084.5,67.1667 3084.5,75.5C 3087.5,75.5 3090.5,75.5 3093.5,75.5C 3090.38,76.4794 3087.04,76.8128 3083.5,76.5C 3083.5,67.5 3083.5,58.5 3083.5,49.5C 3085.74,49.2053 3087.74,49.5386 3089.5,50.5 Z"/></g>
<g><path style="opacity:1" fill="#f7fbfa" d="M 3089.5,50.5 C 3089.5,57.1667 3089.5,63.8333 3089.5,70.5C 3093.17,70.5 3096.83,70.5 3100.5,70.5C 3100.5,72.1667 3100.5,73.8333 3100.5,75.5C 3098.17,75.5 3095.83,75.5 3093.5,75.5C 3090.5,75.5 3087.5,75.5 3084.5,75.5C 3084.5,67.1667 3084.5,58.8333 3084.5,50.5C 3086.17,50.5 3087.83,50.5 3089.5,50.5 Z"/></g>
<g><path style="opacity:1" fill="#f8fbfa" d="M 3170.5,50.5 C 3177.5,50.5 3184.5,50.5 3191.5,50.5C 3191.5,51.8333 3191.5,53.1667 3191.5,54.5C 3189.17,54.5 3186.83,54.5 3184.5,54.5C 3183.91,62.4865 3186.91,68.6532 3193.5,73C 3192.21,74.4095 3191.05,75.9095 3190,77.5C 3186.08,75.0038 3183.08,71.6704 3181,67.5C 3179.32,71.8839 3176.49,75.2173 3172.5,77.5C 3170.52,76.7248 3169.69,75.3914 3170,73.5C 3175.82,68.55 3178.65,62.2167 3178.5,54.5C 3175.83,54.5 3173.17,54.5 3170.5,54.5C 3170.5,53.1667 3170.5,51.8333 3170.5,50.5 Z"/></g>
<g><path style="opacity:1" fill="#50b195" d="M 1881.5,51.5 C 1884.5,51.5 1887.5,51.5 1890.5,51.5C 1890.5,58.1667 1890.5,64.8333 1890.5,71.5C 1887.5,71.5 1884.5,71.5 1881.5,71.5C 1881.5,64.8333 1881.5,58.1667 1881.5,51.5 Z"/></g>
<g><path style="opacity:1" fill="#55b398" d="M 2262.5,50.5 C 2268.05,51.9135 2270.39,55.5802 2269.5,61.5C 2269.55,64.2948 2269.05,66.9615 2268,69.5C 2265.33,72.1667 2262.67,72.1667 2260,69.5C 2258.45,64.6178 2258.11,59.6178 2259,54.5C 2260.03,52.9733 2261.2,51.64 2262.5,50.5 Z"/></g>
<g><path style="opacity:1" fill="#56b399" d="M 2686.5,50.5 C 2692.12,51.6445 2694.45,55.1445 2693.5,61C 2693.56,63.9597 2693.06,66.793 2692,69.5C 2689.93,71.6483 2687.59,71.9817 2685,70.5C 2681.29,63.4029 2681.79,56.7362 2686.5,50.5 Z"/></g>
<g><path style="opacity:1" fill="#a2d5c6" d="M 956.5,53.5 C 965.5,53.5 974.5,53.5 983.5,53.5C 980.167,54.1667 976.833,54.8333 973.5,55.5C 971.5,55.5 969.5,55.5 967.5,55.5C 963.833,54.8333 960.167,54.1667 956.5,53.5 Z"/></g>
<g><path style="opacity:1" fill="#a2d5c6" d="M 1357.5,53.5 C 1366.5,53.5 1375.5,53.5 1384.5,53.5C 1381.17,54.1667 1377.83,54.8333 1374.5,55.5C 1372.5,55.5 1370.5,55.5 1368.5,55.5C 1364.83,54.8333 1361.17,54.1667 1357.5,53.5 Z"/></g>
<g><path style="opacity:1" fill="#55b398" d="M 3138.5,54.5 C 3141.04,54.1043 3143.21,54.771 3145,56.5C 3146.01,61.5577 3145.51,66.3911 3143.5,71C 3139.86,72.3566 3137.69,71.1899 3137,67.5C 3136.06,62.9393 3136.56,58.606 3138.5,54.5 Z"/></g>
<g><path style="opacity:1" fill="#55b398" d="M 142.5,54.5 C 148.055,55.9135 150.388,59.5802 149.5,65.5C 149.547,68.2948 149.047,70.9615 148,73.5C 145.333,76.1667 142.667,76.1667 140,73.5C 138.445,68.6178 138.112,63.6178 139,58.5C 140.032,56.9733 141.199,55.64 142.5,54.5 Z"/></g>
<g><path style="opacity:1" fill="#54b298" d="M 189.5,54.5 C 191.484,54.3832 193.15,55.0499 194.5,56.5C 196.938,62.095 197.105,67.7617 195,73.5C 192.333,76.1667 189.667,76.1667 187,73.5C 184.269,66.4897 185.103,60.1564 189.5,54.5 Z"/></g>
<g><path style="opacity:1" fill="#f7fbfa" d="M 967.5,55.5 C 969.5,55.5 971.5,55.5 973.5,55.5C 979.657,56.1609 982.157,59.4943 981,65.5C 975.146,71.0769 968.646,71.9102 961.5,68C 957.566,64.4581 957.566,60.9581 961.5,57.5C 963.173,55.9137 965.173,55.2471 967.5,55.5 Z"/></g>
<g><path style="opacity:1" fill="#86c8b6" d="M 1019.5,55.5 C 1016.83,55.5 1014.17,55.5 1011.5,55.5C 1011.5,62.1667 1011.5,68.8333 1011.5,75.5C 1010.51,68.6866 1010.18,61.6866 1010.5,54.5C 1013.71,54.19 1016.71,54.5233 1019.5,55.5 Z"/></g>
<g><path style="opacity:1" fill="#50b195" d="M 1019.5,55.5 C 1019.5,62.1667 1019.5,68.8333 1019.5,75.5C 1016.83,75.5 1014.17,75.5 1011.5,75.5C 1011.5,68.8333 1011.5,62.1667 1011.5,55.5C 1014.17,55.5 1016.83,55.5 1019.5,55.5 Z"/></g>
<g><path style="opacity:1" fill="#f7fbfa" d="M 1368.5,55.5 C 1370.5,55.5 1372.5,55.5 1374.5,55.5C 1380.66,56.1609 1383.16,59.4943 1382,65.5C 1376.15,71.0769 1369.65,71.9102 1362.5,68C 1358.57,64.4581 1358.57,60.9581 1362.5,57.5C 1364.17,55.9137 1366.17,55.2471 1368.5,55.5 Z"/></g>
<g><path style="opacity:1" fill="#55b398" d="M 1414.5,54.5 C 1420.05,55.9135 1422.39,59.5802 1421.5,65.5C 1421.55,68.2948 1421.05,70.9615 1420,73.5C 1417.33,76.1667 1414.67,76.1667 1412,73.5C 1410.45,68.6178 1410.11,63.6178 1411,58.5C 1412.03,56.9733 1413.2,55.64 1414.5,54.5 Z"/></g>
<g><path style="opacity:1" fill="#f7fbfa" d="M 564.5,56.5 C 570.652,55.4082 575.818,57.0749 580,61.5C 580.956,69.5499 577.289,73.5499 569,73.5C 561.201,73.7015 557.534,70.0349 558,62.5C 559.494,59.6865 561.66,57.6865 564.5,56.5 Z"/></g>
<g><path style="opacity:1" fill="#d2eae4" d="M 2733.5,58.5 C 2742.17,58.5 2750.83,58.5 2759.5,58.5C 2759.78,60.4147 2759.45,62.0813 2758.5,63.5C 2758.5,62.1667 2758.5,60.8333 2758.5,59.5C 2749.98,59.8261 2741.65,59.4927 2733.5,58.5 Z"/></g>
<g><path style="opacity:1" fill="#62b89f" d="M 966.5,59.5 C 968.527,59.3379 970.527,59.5045 972.5,60C 975.816,61.2512 976.15,62.9179 973.5,65C 971.167,65.6667 968.833,65.6667 966.5,65C 965.248,63.1722 965.248,61.3388 966.5,59.5 Z"/></g>
<g><path style="opacity:1" fill="#62b89f" d="M 1367.5,59.5 C 1369.53,59.3379 1371.53,59.5045 1373.5,60C 1376.82,61.2512 1377.15,62.9179 1374.5,65C 1372.17,65.6667 1369.83,65.6667 1367.5,65C 1366.25,63.1722 1366.25,61.3388 1367.5,59.5 Z"/></g>
<g><path style="opacity:1" fill="#5eb69d" d="M 565.5,61.5 C 567.857,61.3367 570.19,61.5034 572.5,62C 575.326,64.5219 574.993,66.5219 571.5,68C 565.086,69.7555 563.086,67.5888 565.5,61.5 Z"/></g>
<g><path style="opacity:1" fill="#a5d7c9" d="M 998.5,55.5 C 999.461,57.2646 999.795,59.2646 999.5,61.5C 997.5,61.5 995.5,61.5 993.5,61.5C 993.81,64.7131 993.477,67.7131 992.5,70.5C 992.5,67.1667 992.5,63.8333 992.5,60.5C 994.5,60.5 996.5,60.5 998.5,60.5C 998.5,58.8333 998.5,57.1667 998.5,55.5 Z"/></g>
<g><path style="opacity:1" fill="#a5d7c9" d="M 1399.5,55.5 C 1400.46,57.2646 1400.79,59.2646 1400.5,61.5C 1398.5,61.5 1396.5,61.5 1394.5,61.5C 1394.81,64.7131 1394.48,67.7131 1393.5,70.5C 1393.5,67.1667 1393.5,63.8333 1393.5,60.5C 1395.5,60.5 1397.5,60.5 1399.5,60.5C 1399.5,58.8333 1399.5,57.1667 1399.5,55.5 Z"/></g>
<g><path style="opacity:1" fill="#aad9cc" d="M 597.5,57.5 C 598.461,59.2646 598.795,61.2646 598.5,63.5C 596.5,63.5 594.5,63.5 592.5,63.5C 593.919,62.5489 595.585,62.2155 597.5,62.5C 597.5,60.8333 597.5,59.1667 597.5,57.5 Z"/></g>
<g><path style="opacity:1" fill="#6bbca4" d="M 2303.5,61.5 C 2304.5,61.5 2305.5,61.5 2306.5,61.5C 2306.5,64.8333 2306.5,68.1667 2306.5,71.5C 2305.5,71.5 2304.5,71.5 2303.5,71.5C 2303.5,68.1667 2303.5,64.8333 2303.5,61.5 Z"/></g>
<g><path style="opacity:1" fill="#5db69d" d="M 2318.5,61.5 C 2319.5,61.5 2320.5,61.5 2321.5,61.5C 2321.5,64.8333 2321.5,68.1667 2321.5,71.5C 2320.5,71.5 2319.5,71.5 2318.5,71.5C 2318.5,68.1667 2318.5,64.8333 2318.5,61.5 Z"/></g>
<g><path style="opacity:1" fill="#71bfa9" d="M 2336.5,64.5 C 2336.5,72.5 2336.5,80.5 2336.5,88.5C 2333.94,88.8016 2331.61,88.4682 2329.5,87.5C 2331.5,87.5 2333.5,87.5 2335.5,87.5C 2335.17,79.6484 2335.51,71.9818 2336.5,64.5 Z"/></g>
<g><path style="opacity:1" fill="#56b399" d="M 1457.5,65.5 C 1460.5,65.5 1463.5,65.5 1466.5,65.5C 1466.5,68.8333 1466.5,72.1667 1466.5,75.5C 1463.5,75.5 1460.5,75.5 1457.5,75.5C 1457.5,72.1667 1457.5,68.8333 1457.5,65.5 Z"/></g>
<g><path style="opacity:1" fill="#fbfdfc" d="M 2721.5,66.5 C 2735.5,66.5 2749.5,66.5 2763.5,66.5C 2763.5,68.1667 2763.5,69.8333 2763.5,71.5C 2749.5,71.5 2735.5,71.5 2721.5,71.5C 2721.5,69.8333 2721.5,68.1667 2721.5,66.5 Z"/></g>
<g><path style="opacity:1" fill="#bbe0d6" d="M 3044.5,64.5 C 3044.5,65.8333 3044.5,67.1667 3044.5,68.5C 3055.83,68.5 3067.17,68.5 3078.5,68.5C 3078.5,67.1667 3078.5,65.8333 3078.5,64.5C 3079.45,65.9187 3079.78,67.5853 3079.5,69.5C 3067.5,69.5 3055.5,69.5 3043.5,69.5C 3043.22,67.5853 3043.55,65.9187 3044.5,64.5 Z"/></g>
<g><path style="opacity:1" fill="#fbfdfc" d="M 1835.5,70.5 C 1845.5,70.5 1855.5,70.5 1865.5,70.5C 1865.5,76.1667 1865.5,81.8333 1865.5,87.5C 1855.5,87.5 1845.5,87.5 1835.5,87.5C 1835.5,81.8333 1835.5,76.1667 1835.5,70.5 Z"/></g>
<g><path style="opacity:1" fill="#c1e3da" d="M 1835.5,70.5 C 1845.65,69.5058 1855.99,69.1724 1866.5,69.5C 1866.82,75.69 1866.49,81.69 1865.5,87.5C 1865.5,81.8333 1865.5,76.1667 1865.5,70.5C 1855.5,70.5 1845.5,70.5 1835.5,70.5 Z"/></g>
<g><path style="opacity:1" fill="#f3f9f7" d="M 3052.5,71.5 C 3058.18,71.3339 3063.84,71.5006 3069.5,72C 3075.2,74.8315 3075.87,78.4982 3071.5,83C 3063.07,86.9148 3055.24,86.0814 3048,80.5C 3047.05,76.2791 3048.55,73.2791 3052.5,71.5 Z"/></g>
<g><path style="opacity:1" fill="#fafcfc" d="M 992.5,72.5 C 992.5,76.1667 992.5,79.8333 992.5,83.5C 984.648,83.1746 976.982,83.508 969.5,84.5C 968.167,85.1667 968.167,85.8333 969.5,86.5C 977.316,87.4924 985.316,87.8257 993.5,87.5C 993.5,88.8333 993.5,90.1667 993.5,91.5C 983.167,91.5 972.833,91.5 962.5,91.5C 962.5,87.5 962.5,83.5 962.5,79.5C 994.5,78.8333 994.5,78.1667 962.5,77.5C 962.5,75.8333 962.5,74.1667 962.5,72.5C 972.5,72.5 982.5,72.5 992.5,72.5 Z"/></g>
<g><path style="opacity:1" fill="#fafcfc" d="M 1393.5,72.5 C 1393.5,76.1667 1393.5,79.8333 1393.5,83.5C 1385.65,83.1746 1377.98,83.508 1370.5,84.5C 1369.17,85.1667 1369.17,85.8333 1370.5,86.5C 1378.32,87.4924 1386.32,87.8257 1394.5,87.5C 1394.5,88.8333 1394.5,90.1667 1394.5,91.5C 1384.17,91.5 1373.83,91.5 1363.5,91.5C 1363.5,87.5 1363.5,83.5 1363.5,79.5C 1395.5,78.8333 1395.5,78.1667 1363.5,77.5C 1363.5,75.8333 1363.5,74.1667 1363.5,72.5C 1373.5,72.5 1383.5,72.5 1393.5,72.5 Z"/></g>
<g><path style="opacity:1" fill="#f6fbf9" d="M 2727.5,74.5 C 2729.5,74.5 2731.5,74.5 2733.5,74.5C 2733.5,76.8333 2733.5,79.1667 2733.5,81.5C 2742.17,81.5 2750.83,81.5 2759.5,81.5C 2759.5,83.1667 2759.5,84.8333 2759.5,86.5C 2748.83,86.5 2738.17,86.5 2727.5,86.5C 2727.5,82.5 2727.5,78.5 2727.5,74.5 Z"/></g>
<g><path style="opacity:1" fill="#f7fbfa" d="M 618.5,74.5 C 623.913,74.2288 629.246,74.7288 634.5,76C 641.569,78.5908 642.902,82.7575 638.5,88.5C 631.453,91.4013 624.12,92.2346 616.5,91C 608.691,87.6177 607.691,82.9511 613.5,77C 615.315,76.2432 616.981,75.4098 618.5,74.5 Z"/></g>
<g><path style="opacity:1" fill="#50b195" d="M 1842.5,75.5 C 1848.17,75.5 1853.83,75.5 1859.5,75.5C 1859.5,77.5 1859.5,79.5 1859.5,81.5C 1853.83,81.5 1848.17,81.5 1842.5,81.5C 1842.5,79.5 1842.5,77.5 1842.5,75.5 Z"/></g>
<g><path style="opacity:1" fill="#55b398" d="M 3054.5,75.5 C 3058.85,75.3343 3063.18,75.501 3067.5,76C 3068.83,77.3333 3068.83,78.6667 3067.5,80C 3063.17,80.6667 3058.83,80.6667 3054.5,80C 3053.27,78.5098 3053.27,77.0098 3054.5,75.5 Z"/></g>
<g><path style="opacity:1" fill="#d3ebe4" d="M 591.5,91.5 C 591.5,86.8333 591.5,82.1667 591.5,77.5C 581.5,77.5 571.5,77.5 561.5,77.5C 561.5,78.8333 561.5,80.1667 561.5,81.5C 560.549,80.0813 560.216,78.4147 560.5,76.5C 571.167,76.5 581.833,76.5 592.5,76.5C 592.821,81.6946 592.487,86.6946 591.5,91.5 Z"/></g>
<g><path style="opacity:1" fill="#fefffe" d="M 591.5,91.5 C 589.5,91.5 587.5,91.5 585.5,91.5C 585.5,88.1667 585.5,84.8333 585.5,81.5C 577.5,81.5 569.5,81.5 561.5,81.5C 561.5,80.1667 561.5,78.8333 561.5,77.5C 571.5,77.5 581.5,77.5 591.5,77.5C 591.5,82.1667 591.5,86.8333 591.5,91.5 Z"/></g>
<g><path style="opacity:1" fill="#58b49a" d="M 619.5,79.5 C 623.182,79.3347 626.848,79.5014 630.5,80C 634.79,80.8683 635.456,82.8683 632.5,86C 627.833,86.6667 623.167,86.6667 618.5,86C 615.851,83.4197 616.184,81.253 619.5,79.5 Z"/></g>
<g><path style="opacity:1" fill="#8dccba" d="M 561.5,81.5 C 569.5,81.5 577.5,81.5 585.5,81.5C 585.5,84.8333 585.5,88.1667 585.5,91.5C 584.523,88.7131 584.19,85.7131 584.5,82.5C 576.648,82.8254 568.982,82.492 561.5,81.5 Z"/></g>
<g><path style="opacity:1" fill="#87c8b6" d="M 1842.5,75.5 C 1842.5,77.5 1842.5,79.5 1842.5,81.5C 1848.17,81.5 1853.83,81.5 1859.5,81.5C 1853.69,82.4896 1847.69,82.8229 1841.5,82.5C 1841.2,79.9407 1841.53,77.6074 1842.5,75.5 Z"/></g>
<g><path style="opacity:1" fill="#c6e5dd" d="M 992.5,72.5 C 993.483,76.2984 993.817,80.2984 993.5,84.5C 985.5,84.5 977.5,84.5 969.5,84.5C 976.982,83.508 984.648,83.1746 992.5,83.5C 992.5,79.8333 992.5,76.1667 992.5,72.5 Z"/></g>
<g><path style="opacity:1" fill="#c6e5dd" d="M 1393.5,72.5 C 1394.48,76.2984 1394.82,80.2984 1394.5,84.5C 1386.5,84.5 1378.5,84.5 1370.5,84.5C 1377.98,83.508 1385.65,83.1746 1393.5,83.5C 1393.5,79.8333 1393.5,76.1667 1393.5,72.5 Z"/></g>
<g><path style="opacity:1" fill="#d2eae4" d="M 969.5,86.5 C 977.833,86.5 986.167,86.5 994.5,86.5C 994.784,88.4147 994.451,90.0813 993.5,91.5C 993.5,90.1667 993.5,88.8333 993.5,87.5C 985.316,87.8257 977.316,87.4924 969.5,86.5 Z"/></g>
<g><path style="opacity:1" fill="#d2eae4" d="M 1370.5,86.5 C 1378.83,86.5 1387.17,86.5 1395.5,86.5C 1395.78,88.4147 1395.45,90.0813 1394.5,91.5C 1394.5,90.1667 1394.5,88.8333 1394.5,87.5C 1386.32,87.8257 1378.32,87.4924 1370.5,86.5 Z"/></g>
<g><path style="opacity:1" fill="#c0e3da" d="M 2727.5,74.5 C 2727.5,78.5 2727.5,82.5 2727.5,86.5C 2738.17,86.5 2748.83,86.5 2759.5,86.5C 2748.68,87.4946 2737.68,87.8279 2726.5,87.5C 2726.18,82.9677 2726.52,78.6344 2727.5,74.5 Z"/></g>
</svg>
